<?xml version="1.0" standalone="no"?>
<!DOCTYPE svg PUBLIC "-//W3C//DTD SVG 20010904//EN"
 "http://www.w3.org/TR/2001/REC-SVG-20010904/DTD/svg10.dtd">
<svg version="1.0" xmlns="http://www.w3.org/2000/svg"
 width="1667.000000pt" height="1667.000000pt" viewBox="0 0 1667.000000 1667.000000"
 preserveAspectRatio="xMidYMid meet">
<metadata>
Created by potrace 1.11, written by Peter Selinger 2001-2013
</metadata>
<g transform="translate(0.000000,1667.000000) scale(0.100000,-0.100000)"
fill="#000000" stroke="none">
<path d="M0 8335 l0 -8335 8335 0 8335 0 0 8335 0 8335 -8335 0 -8335 0 0
-8335z m9138 3420 c110 -51 214 -190 273 -365 26 -77 33 -115 37 -206 l4 -111
-762 -2484 c-497 -1621 -774 -2508 -797 -2554 -72 -146 -247 -341 -410 -458
-102 -73 -248 -149 -337 -176 -68 -21 -69 -21 -2018 -21 -1853 0 -1950 1
-1945 18 2 9 445 1449 983 3200 l978 3182 1970 0 1971 0 53 -25z m3732 16 c0
-5 -222 -734 -494 -1620 l-495 -1611 -223 -385 -223 -385 -682 0 -683 0 6 103
c3 56 11 230 18 387 l12 286 495 1617 494 1617 888 0 c506 0 887 -4 887 -9z
m-1440 -4678 c0 -5 -116 -390 -258 -858 l-258 -850 -891 -3 -890 -2 254 822
c139 453 259 840 265 861 l11 37 884 0 c485 0 883 -3 883 -7z"/>
<path d="M6026 8482 c-208 -680 -381 -1243 -383 -1249 -4 -10 98 -13 485 -13
l490 0 48 33 c107 71 87 19 448 1190 285 927 327 1070 326 1125 0 36 -6 76
-15 92 -31 60 -28 60 -547 60 l-473 0 -379 -1238z"/>
</g>
</svg>
