<svg xmlns="http://www.w3.org/2000/svg" viewBox="0 0 595.28 841.89"><defs><style>.cls-1{fill:#2b7245;}.cls-2{fill:#e6e0db;}.cls-3{fill:#553b87;}.cls-4{fill:#94887f;}.cls-5{fill:#413c39;}.cls-6{fill:#f0cb76;}.cls-7{fill:#f4c9aa;}.cls-8{fill:#fff;}.cls-9{fill:#c94833;}.cls-10{fill:#f68e6f;}.cls-11{fill:#8a644a;}</style></defs><g id="kläder"><polygon class="cls-1" points="314.12 304.53 315.36 341.32 320.3 367.07 332.24 386.48 352.63 405.54 361.28 422.31 363.75 437.76 363.75 446.82 368.69 442.5 373.63 433.64 375.9 446.82 371.99 484.3 374.87 497.06 376.18 505.51 374 514.81 363.52 527.62 399.08 585.03 405.09 616.23 402.81 631.13 388.74 638.58 361.21 641.9 297.07 644.38 266.83 642.94 225.23 635.69 183.22 621.41 169.97 615.82 164.8 607.75 162.94 581.25 169.97 546.9 169.35 524.96 174.32 505.71 175.56 498.47 173.49 480.46 170.34 474.45 155.29 483.96 147 495.01 139.78 497.93 133.79 495.93 124.27 486.57 113.37 464.15 111.37 446.33 116.9 406.56 126.42 334.23 143.16 278.34 150.99 271.56 175.71 258.53 200.9 250.7 216.72 272.5 238.35 294.15 258.23 304.29 278.36 308.29 302.56 307.21 314.12 304.53"/><polygon class="cls-2" points="280.06 326.88 282.19 350.14 281.12 371.39 279.06 389.67 274.18 404.23 265.29 412.58 247.63 414.46 233.36 411.49 228.61 408.2 218.22 367.07 217.46 333.08 218.85 326.86 225.1 329.58 235.65 332.58 251.77 332.46 265.29 330.83 278.36 328.53 280.06 326.88"/><polygon class="cls-3" points="236.68 348.83 239.81 345.67 242.87 348.12 241.07 351.46 236.68 348.83"/><polygon class="cls-3" points="240.09 367.07 238.35 370.58 240.28 373.9 243.62 372.11 242.21 367.07 240.09 367.07"/><polygon class="cls-3" points="241.07 388.79 244.84 390.37 245.99 392.83 244.02 395.43 240.09 394.88 239.39 392.11 241.07 388.79"/><polygon class="cls-3" points="257.6 370.86 255.5 373.9 257.03 376.62 258.93 378.02 260.39 376.62 261.27 375.25 257.6 370.86"/><polygon class="cls-3" points="257.6 352.52 256.01 355.03 258.63 357.78 261.46 356.25 262.22 355.03 260.24 352.52 257.6 352.52"/><polygon class="cls-4" points="230.61 322.27 258.63 320.31 278.36 323.82 280.21 328.53 258.38 331.66 238.35 332.56 230.61 331.45 222.64 328.53 218.85 326.86 221.38 323.69 230.61 322.27"/><polygon class="cls-1" points="382.62 273.8 411.25 287.05 431.18 304.65 445.92 322.57 465.11 354.27 480.8 380.67 482.18 386.61 480.02 404.42 475.82 432.41 460.34 467.29 447.93 493.8 440.72 519.78 437.86 524.44 431.5 529.64 427.05 517.44 413.48 507.26 402.98 503.34 415.49 481.93 418.78 468.99 425.67 458.49 429.59 444.92 432.4 420.94 433.19 396.57 416.23 377.6 399.8 358.83 400.96 327.13 392.27 298.61 384.75 280.69 382.62 273.8"/><polygon class="cls-5" points="165.5 612.54 150.65 662.25 140.34 713.16 137.61 744.07 139.44 777.77 140.06 790.49 259.8 790.29 271.39 734.98 275.51 695.27 276.92 697.55 284.63 699.78 286.06 720.78 289.1 741.38 297.64 770.9 303.57 790.43 415.68 783.07 422.4 707.54 421.3 674.6 416.41 655.84 405.09 630.47 386.94 638.66 355.41 641.82 316.8 643.71 278.18 643.87 232.95 637.25 199.06 627.47 165.5 612.54"/></g><g id="hud"><polygon class="cls-6" points="316.78 260.84 316.06 347.7 321.88 370.66 332.24 386.48 352.63 405.54 361.28 422.31 363.75 446.82 368.69 442.5 373.63 433.64 375.9 446.82 377.28 448.15 389.26 436.43 395.55 430.3 399.56 419.53 404.84 419.21 405.95 407.28 402.99 383.47 399.19 363.09 400.81 331.45 396.37 308.29 378.97 263.8 377.21 241.9 372.91 193.23 363.72 147.2 351.01 109.95 333.81 80.72 313.86 59.74 295.23 52.68 287.52 52.68 274.71 55.11 259.71 58.42 247.34 66.81 233.89 73.83 221.87 83.63 217.94 94.85 216.39 107.69 214.88 119.52 214.03 129.86 214.03 138.78 215.58 146.15 218.01 152.57 215.54 154.44 214.88 160.38 217.67 169.69 219.59 178.2 218.34 188.51 220.33 203.8 224.12 221.09 226.18 232.39 227.3 248.84 239.81 241.5 245.45 234.64 265.33 249.91 278.17 257.6 291.5 257.1 301.17 250.41 310.92 241.16 313.32 250.41 316.78 260.84"/><polygon class="cls-7" points="275.58 99.39 269.55 93.78 255.45 95.13 241.9 103.37 230.48 116.77 223.28 134.58 221.04 152.17 221.04 154.44 216.78 151.18 214.88 159.7 220.18 178.2 224.37 180.86 227.3 197.18 229.26 212.18 235.68 226.42 247.34 236.37 265.33 249.91 275.16 256.07 285.4 257.91 295.07 255.38 308.89 242.16 324.47 221.8 329.61 210.68 332.63 182.61 331.47 148.04 324.72 118.22 311.23 101.22 298.11 94.64 291.32 93.78 284.15 95.62 280.07 99.39 277.57 100.14 275.58 99.39"/><polygon class="cls-8" points="291.79 165.81 297.07 161.93 311.14 160.61 315.34 165.81 307.92 169.66 300.2 170.75 293.75 168.89 291.3 167.46 291.79 165.81"/><polygon class="cls-8" points="261.98 164.72 255.14 159.64 244.59 159.64 238.43 164.72 244.59 168.43 250.21 170.09 256.31 169.66 261.98 167.04 261.98 164.72"/><polygon class="cls-7" points="314.2 241.6 316.78 304.9 292.59 308.29 273.18 308.29 247.51 300.06 225.71 282.45 209.36 263.56 204.07 254.52 225.39 249.84 236.53 244.02 242.34 235.14 247.34 236.37 261.18 246.79 273.02 254.84 281.26 257.91 292.59 256.78 305.75 245.17 314.2 241.6"/><polygon class="cls-7" points="403.89 502.35 412.95 506.14 427.63 518.36 431.07 527.05 428.96 531.43 414.42 551.42 404.94 569.36 397.35 580.53 392.93 587.91 378.82 599.13 374.1 591.43 383.8 581.2 388.55 569.83 383.8 572.56 373.83 581.65 360.24 589.2 356.12 582.34 373.83 567.89 373.25 563.76 363.47 571.26 351.15 576.78 344.95 578.96 345.74 574 342.06 570.52 353.34 563.22 366.6 552.59 373.65 545.24 371.17 542.85 360.39 549.96 350.36 556.12 342.06 559.99 338.19 552.64 345.89 546.38 356.71 537.34 362.53 529.2 371.42 517.67 375.54 510.27 376.36 504.09 381.28 504.09 386.1 505.7 393.84 505.33 403.89 502.35"/><polygon class="cls-7" points="167.85 374.08 173.02 387.37 184.32 397.23 192.63 403.1 199.5 405.54 202.93 401 207.81 397.9 216.33 393.63 219.22 390.75 221.88 384.49 216.33 366.43 212.02 354.36 210.02 340.84 210.02 331.66 209.08 327.17 207.3 324.6 199.89 327.96 190.49 333.44 184.4 337.48 181.61 341.32 171.9 347.12 166.26 355.35 167.13 362.12 168.53 366.95 167.85 374.08"/><polygon class="cls-9" points="373.11 591.94 370.25 597.47 370.62 600.51 372.37 602.82 377.81 598.76 375.69 593.6 373.11 591.94"/><polygon class="cls-9" points="356.12 582.34 350.43 586.5 351.54 590.8 353.84 591.94 360.24 589.2 356.12 582.34"/><polygon class="cls-9" points="340.68 571.46 337.7 575.11 338.19 578.47 340.02 579.91 343.75 578.47 345.74 574 340.68 571.46"/><polygon class="cls-9" points="341.82 558.92 338.19 552.64 333.96 557.26 333.29 560.71 334.47 562.63 341.82 558.92"/></g><g id="Layer_1" data-name="Layer 1"><path d="M136.69,790.49a7.64,7.64,0,0,0,1.58-.4c-.42-3.13-1-6.21-1.21-9.32-.64-9.61-1.37-19.22-1.63-28.84a204.09,204.09,0,0,1,2.21-37.77c1.47-9.16,3-18.33,4.91-27.41,2.19-10.14,4.86-20.2,7.45-30.26.57-2.22,1.83-4.26,2.51-6.45,3.33-10.68,6.37-21.44,9.92-32,2.1-6.28-.08-12.22-.32-18.33-.41-10.58-1.43-21.22,1.48-31.75a183.93,183.93,0,0,0,4.63-22.23c.58-4-.39-8.15-.29-12.22a76.75,76.75,0,0,1,1.07-13.4c1.25-6.24,3.33-12.33,4.8-18.54a16.51,16.51,0,0,0,.08-6.11c-.91-6.2-2-12.36-3-18.1-2.82,1.68-5.52,4.06-8.69,5-3.41,1-5.62,3-7.93,5.18a5.6,5.6,0,0,0-1.51,2c-1.5,4.22-4.63,7-8.64,8.85-4.93,2.3-10.08.66-13.35-3.58-1.33-1.71-3.72-2.63-5.17-4.28a57.41,57.41,0,0,1-6.09-8.17,98.53,98.53,0,0,1-5.08-10.05,49.88,49.88,0,0,1-4.25-28.16c1.43-10.38,2.91-20.75,4.14-31.15.67-5.65.67-11.38,1.31-17,1.59-14.05,3.35-28.09,5.1-42.12,1.9-15.28,6.85-29.9,10.62-44.78a178.07,178.07,0,0,1,10-29.82c2.33-5.15,6.71-8.54,11.35-11,11.38-6.11,23.18-11.47,35.9-14.74a80,80,0,0,0,10.94-4,2.67,2.67,0,0,1,3.6,1.1c1.15,1.57,2.25,1.91,4.36,1.32,5.19-1.44,10.53-2.34,15.79-3.55.84-.2,2.2-.88,2.22-1.38a83.32,83.32,0,0,0,0-12.93c-.65-5.64-1.88-11.23-3.09-16.8-1.15-5.24-2.84-10.37-3.85-15.63-1.2-6.2-1.93-12.49-.66-18.78,1.09-5.4.06-10.51-2.1-15.43-1.57-3.57-3-7.63-1.47-10.86,2.18-4.43.21-7.9-.84-11.65a54.14,54.14,0,0,1-.85-26.79c1.07-4.89,1.26-10,1.92-14.93,1.17-8.84,3.78-17.2,9-24.69,2.91-4.13,7.31-6.18,12-7.65,6.61-2.1,11.67-6.35,17-10.3a34.41,34.41,0,0,1,16.63-6.26c4.61-.56,9.3-.58,13.91-1.19,2.34-.31,4.53-1.5,6.85-2.11a6.5,6.5,0,0,1,3.16,0c4.46,1.22,8.86,2.65,13.33,3.85,6.65,1.79,11.43,6.22,15.87,10.79,10,10.26,17.79,22,24.77,34.34a189.68,189.68,0,0,1,19,49.46c3.19,13.27,5.85,26.68,8.21,40.11,3.22,18.36,4.47,36.91,4.8,55.52a99.19,99.19,0,0,0,4.41,27c2.86,1,5.24,1.76,7.5,2.73,4.28,1.85,8.59,3.68,12.72,5.82a65.46,65.46,0,0,1,10.07,6.12c5.5,4.26,11.11,8.51,15.88,13.47,5.4,5.59,10,11.88,14.79,18a150.7,150.7,0,0,1,9,12.93c4.29,6.94,8.2,14.09,12.41,21.08,2.28,3.8,4.93,7.39,7.23,11.18,3.53,5.8,7.07,11.6,10.27,17.57,2,3.79.51,7.9.08,11.84-.47,4.32-1.14,8.61-1.85,12.9-.75,4.62-1.72,9.21-2.47,13.83-.39,2.43-.29,4.95-.81,7.36-1.22,5.63-2,11.48-4.18,16.77-6.2,15-13.17,29.78-19.54,44.76-2.42,5.7-3.91,11.75-6,17.59a99,99,0,0,1-4,9.16,46.48,46.48,0,0,1-4.44,8.11c-1.91,2.48-4.52,4.47-6.82,6.68-1.67,1.61-3.62,3-4.95,4.86-6.77,9.27-14.05,18.19-18.78,28.75-2.18,4.88-5.62,9.26-8.65,13.77a4.54,4.54,0,0,0-.76,4.46c3.73,11.38,7.5,22.77,7.27,34.93a30.25,30.25,0,0,0,.87,6.59c.39,1.91.74,3.63-1.12,5.12a2.17,2.17,0,0,0-.18,2.05c2.8,5.67,6.18,11.12,8.47,17a127,127,0,0,1,8.38,33.16c1,9.2,1.62,18.35.92,27.55-.45,6-1.61,12-2.14,18-.8,9-1.35,18-2,27-.6,8.58-1.16,17.17-1.78,25.76a3.86,3.86,0,0,1-.74,2.1,16.88,16.88,0,0,1-2.52,2,11.58,11.58,0,0,1-.64-2.94q1.11-20.65,2.35-41.3c.4-6.44.91-12.88,1.47-19.31.2-2.19.9-4.35,1.06-6.54.33-4.39.42-8.8.66-13.2.61-11.39-.93-22.62-3.35-33.68a122.37,122.37,0,0,0-10.59-29.9c-.73-1.42-1.32-2.91-1.75-3.87-3.46,2-6.66,4-10,5.65-7.58,3.82-15.89,4.42-24.22,4.84a12.55,12.55,0,0,0-2.37.35,33.9,33.9,0,0,1-14,.87c-1-.17-2.09.29-3.12.25-2.89-.13-5.77-.43-8.66-.55-1.13,0-2.27.28-3.41.33-5,.24-10,.41-15,.66-7.69.38-15.42.43-23.05,1.3-8,.92-16,.59-23.93.08-7.38-.47-14.68-2-22-3.11s-14.82-1.8-22.08-3.36-14.44-4-21.65-6c-3.21-.9-6.53-1.53-9.62-2.71-8.23-3.15-16.31-6.68-24.58-9.74-3.57-1.32-7.17-2.38-9.7-6a9.64,9.64,0,0,0-.93,2c-1.93,14-6.87,27.23-12,40.41a98.64,98.64,0,0,0-3.75,13.8c-2.37,10.39-5.17,20.73-6.7,31.24a389.51,389.51,0,0,0-3.74,39.15c-.47,11.28.43,22.62.75,33.92.12,4.16.4,8.32.46,12.47,0,1.67.65,2.22,2.37,2.26m210-378.39c-4.75-9.48-17.65-17.45-25.12-25a53,53,0,0,1-11.06-15.84c-5.11-11.6-5.89-24-6.71-36.25-.43-6.65.81-13.41,1.28-20.11.18-2.67.3-5.35.44-7.89-5.5,1-10.67,2-15.88,2.83-1.88.28-3.88-.25-5.79-.05a71.51,71.51,0,0,1-23.81-1.1c-11.55-2.7-22.31-7.05-31.63-14.51-9-7.22-17.17-15.09-23.76-24.39-4-5.68-7.67-11.58-11.62-17.58-.87.37-2.06.9-3.28,1.38-3.61,1.45-7.16,3.07-10.86,4.26-4.59,1.47-9.55,2.08-13.91,4a115.37,115.37,0,0,0-18.33,9.71c-4.05,2.71-8.67,5.36-10.34,10.5-2,6.1-4.27,12.11-6.07,18.25-2.2,7.5-4,15.1-6,22.67-.76,3-1.48,6-2.11,9-2.13,10-4.77,20-6.16,30.07-2,14.35-3,28.83-4.51,43.24-1,9.66-2.33,19.29-3.53,28.94-.61,5-1.69,10-1.77,15s0,10.38,1.49,15.13c2.18,6.68,5.75,13,8.83,19.36a14,14,0,0,0,2.71,3.66c2.13,2.13,4.7,3.91,6.61,6.19,3.13,3.74,7.93,4.38,11.44,1a24.56,24.56,0,0,0,3.67-4.65,27,27,0,0,1,11.1-9.93,34,34,0,0,0,7.84-5.44c4.5-4.25,6.85-9.86,9.42-15.28a81.24,81.24,0,0,1,3.76-7.74c1.22-2,3.11-3.61,4.49-5.54,1.1-1.53,1.65-3.44,2.83-4.9,3.6-4.48,5.62-9.61,7.2-15s3.22-10.93,4.92-16.37c.55-1.74.2-2.61-1.79-2.74a12.3,12.3,0,0,1-7.07-3.14c-3.77-3-8.06-5.42-11.87-8.39a28.18,28.18,0,0,1-6.2-6.38c-1.82-2.74-2.87-5.93-4.41-9.28-.83,1.05-1.54,2-2.27,2.86-2.91,3.54-5.93,6.83-10.85,8-3.23.74-5.15,4.5-4.37,7.55.69,2.71,1.28,5.45,1.76,8.2a14.65,14.65,0,0,1-.12,3.23c-.81-.94-2-1.76-2.37-2.84a46.68,46.68,0,0,1-1.39-6.31c-2.2,2.31-2.19,4.44-1.73,6.79.59,3.05,1,6.14,1.34,9.23.06.51-.59,1.09-.91,1.63-.61-.35-1.63-.59-1.77-1.07a45.5,45.5,0,0,1-1.13-5.67c-.28-1.84-.43-3.71-.63-5.56l-.88-.13c-2.24,2.59-4.54,5.14-6.69,7.81a4.43,4.43,0,0,0-.91,2.59c0,2.81.22,5.61.22,8.42a9.6,9.6,0,0,1-.71,2.53c-.6-.75-1.62-1.46-1.72-2.28a54.08,54.08,0,0,1-.08-6.37l-1-.07a22.68,22.68,0,0,0-.92,4.61c0,2.85-.49,5.31-3,7.28-2,1.55-3.57,3.51-5.44,5.18-.44.41-1.28.42-1.93.61a6.75,6.75,0,0,1,.17-2c.2-.52.82-.88,1.22-1.34,3.14-3.63,6.79-6.92,7-12.22a9,9,0,0,1,2.4-5.1c.76-.86,1.39-1.13.86-2.37a3.59,3.59,0,0,1,.32-2.25c2.4.06,3.23-2,4.32-3.24,2.77-3.28,7.18-5.08,9-9.26.4-.95,1.84-1.66,1.92-2.56.39-4.25,3.48-6.05,6.8-8.09,5.25-3.23,11.53-5.91,11.15-13.51a2.23,2.23,0,0,1,.3-1,9.44,9.44,0,0,0-.36-8.82c-4.67-8.73,2.61-17.3,8.75-20.4,2.68-1.35,7.35-2.48,8.46-5.62.44-1.25,1.86-1.23,2.93-2.23,3.4-3.18,4.93-3.07,8.13-5.38.43-.31,5.42-2.92,6-3.11,2.72-1.36,1.85-1.4,5.36-2.89,2.13-.9,2.66-.14,3.65,1.53,1.23,1.8,1.26,3,1.7,6.8a8.86,8.86,0,0,1,2.95.85c2,1.33,2.24.77,2.39-1.23.49-6.52,2.53-9.39,7.93-10.44a133.37,133.37,0,0,1,16.05-2.17c7.15-.5,14.34-.79,21.5-.65a116.6,116.6,0,0,1,15.56,1.71c3.17.49,4.32,2.45,4.22,5.46a14.53,14.53,0,0,0,.45,4.56,67.54,67.54,0,0,1,2.27,26.82c-.92,8.28-1.34,16.62-2.43,24.89a149,149,0,0,1-3.46,16.48c-1,4.14-3.62,7.43-6.21,11-3.58,4.84-8.33,6.43-13.54,6.85-5.54.45-11.19-.26-16.76-.69a14.63,14.63,0,0,1-5.29-1.56c-4.28-2.15-9-3.9-10.37-9.16a4.92,4.92,0,0,0-1.19-2.24c-2.61-2.55-5.26-5.06-8.05-7.42a3.15,3.15,0,0,0-2.67-.32,53.45,53.45,0,0,0-6.83,3.37,27.32,27.32,0,0,0-4.8,3.57c-2.52,2.4-2.31,3.16.85,4.89,3.75,2.06,4.8,4.95,3.26,8.84-.79,2-1.52,4-2.25,6-3.65,10.06-7,20.21-11,30.15-2,5.13-5.11,9.88-7.62,14.84-3.06,6-6.19,12.06-8.95,18.22-.85,1.9-.71,4.25-.78,6.4-.05,1.43.4,2.87.49,4.31.59,9.23-3.56,17.65-4.94,26.54a73,73,0,0,0-.88,11.63c0,3.53.65,7.06.94,9.94,1,1.72,1.64,3,2.39,4.21a14.12,14.12,0,0,0,1.9,2.68c3.9,3.89,9,5.94,14,8,.57.23.92,1,1.38,1.45a5.79,5.79,0,0,1-2.11.33c-2.76-.68-5.48-1.49-8.2-2.28-1.14-.32-2.54-.42-3.32-1.13a65.93,65.93,0,0,1-4.42-5,26.25,26.25,0,0,0-2.16-1.87c-.37,2.26-.56,3.93-.92,5.55-1.31,5.82-2.67,11.63-4,17.44-.5,2.16-1.44,4.3-1.44,6.46,0,7,.16,14,.55,20.93s2.3,13.1,9.87,16c7.25,2.77,14.44,5.7,21.78,8.24,7.72,2.68,15.55,5.09,23.4,7.4a125,125,0,0,0,15.71,3.86c11.64,1.84,23.42,2.92,35,5,6.09,1.09,12.17,1.15,18.24,1.43,5.46.26,11-.55,16.46-.78,9.67-.4,19.35-.71,29-1.07.88,0,1.76-.22,2.65-.25,6.37-.24,12.84-1.19,19.09-.47,5.91.68,11.34-1.19,17.05-1.19,3,0,6.06-1.48,9.09-1.53,5.62-.08,10.32-2.41,15-4.87a5.5,5.5,0,0,0,2.78-3.42c.95-7.51,2.08-15,.67-22.63-.8-4.26-.89-8.64-1.69-12.89a99,99,0,0,0-2.94-9.86c-.76,1.1-1.18,1.72-1.61,2.33a16.1,16.1,0,0,1-2.52,3.46c-3.3,2.69-6.71,5.25-10.2,7.71-3.11,2.2-6.38,4.2-9.56,6.28-3.08-2-3.74-4.19-3.15-7.34.87-4.69,4.62-7.29,8-9.79,4.52-3.38,6.33-8,8.2-12.69a9.83,9.83,0,0,0,.14-1.81c-1.28,1.1-2.12,1.79-2.93,2.52-3.29,3-6.2,6.51-9.94,8.82-5.47,3.4-11.48,6-17.37,8.75-1.25.58-3.66.84-4.33.16-1.27-1.29-2.43-3.47-2.2-5.09a8.13,8.13,0,0,1,3.37-4.81c4-2.75,8.5-4.81,12.43-7.63,2.85-2,5.13-4.86,7.6-7.38.27-.28.16-.89.28-1.73a14.29,14.29,0,0,0-1.61.95c-2.31,1.84-4.38,4-6.93,5.46-3.74,2.08-8,3.33-11.72,5.43-4.13,2.33-8.65,2.85-13.17,3.5a3.43,3.43,0,0,1-2.58-1.38c-2.22-3.16,1-8.93,3.63-10.29a116.43,116.43,0,0,0,15.42-9c5.11-3.73,9.62-8.24,14.31-12.49a19,19,0,0,0,2.3-3.06l-.79-.8c-2.74,1.75-5.5,3.47-8.2,5.27-3,2-5.83,4.45-9.07,6.08-5.44,2.76-11.19,5-16.74,7.56-1.67.79-3.2,1.81-4.77.16s-1.18-3.57-.22-5.46a20.9,20.9,0,0,1,6.31-7.35c4.74-3.56,9.76-6.91,13.88-11.06,4.29-4.33,7.62-9.54,11.43-14.32,2.52-3.16,5.35-6.12,7.64-9.42a19.67,19.67,0,0,0,2.48-6.27c.66-2.52-.24-5.11-.17-7.7.09-3.23-1.89-6.52-3.13-10.22a38.71,38.71,0,0,0-2.36,4c-2,4.56-3.62,9.24-5.72,13.74s-4.6,9-7.07,13.39c-.37.65-1.58.86-2.41,1.28-.37-.81-1.2-1.73-1-2.4a35.09,35.09,0,0,1,2.15-5.49c4.52-10,9.1-19.9,13.58-29.88,1-2.25,2.32-4.58,2.49-6.94.52-7.09.72-14.22.7-21.33,0-4.13.14-8.22,2.31-11.8s.09-6.35-.61-9.27c-1.31,2.7-2.27,5.53-3.95,7.87s-4.11,4.24-6.21,6.32l-.66-.43c-.24-7.39.35-14.92-1-22.13s-6-11.41-8.4-18.54c.73.27,3.51-1.51,3.75-1.82,2-9,2.3-17.68-.15-26.47a122.58,122.58,0,0,0-8.58-21.95,140.64,140.64,0,0,1-13.33-45.21c-1-7.68-2.24-15.44-2-23.13a294.51,294.51,0,0,1,6.22-51.18c2.64-13,5.17-26,7.7-39.08,2.44-12.51,4-25.09,2.88-37.85-.41-4.76-.73-9.52-1.1-14.28-.74-9.72-2.21-19.32-6.65-28.2-4.15-8.34-9.11-16.22-16.7-22.17A102.28,102.28,0,0,0,313,90.16a22.77,22.77,0,0,0-12.35-3.28,58.45,58.45,0,0,0-8.45,1c-5.16,1-8.93,3.92-12.31,8.33.88-.18,1.18-.16,1.34-.29,4.88-4.11,10.56-4.63,16.51-3.07,8.46,2.23,15.59,6.48,20.84,13.37.94,1.23,2,2.39,2.87,3.67,2.39,3.45,5.71,6.42,6.78,10.58,2.76,10.73,6.24,21.39,7.72,32.29,1.17,8.66.36,17.69-.57,26.46-1.35,12.82-3.69,25.54-5.42,38.33a29.3,29.3,0,0,1-3.64,11.57,9.26,9.26,0,0,0-.57,1.43c-2.75,6.77-5,13.64-5.24,21-.1,2.66-1.29,5.28.67,7.81.41.52.28,1.47.28,2.23,0,2-.09,4.08-.13,6.12-.24,11.77-.52,23.54-.7,35.3-.1,5.94-2.27,11.81-.56,17.8a9.38,9.38,0,0,1,.29,3c-.29,5.36-.61,10.72-1,16.07A69.8,69.8,0,0,0,322,363.06a60.58,60.58,0,0,0,13.91,25c6.09,6.73,17.95,13.48,21.18,22a3.29,3.29,0,0,0,.42.63c.48-.37-5.08-.7-4.66-1,.49.74,7.08,3.42,4.92,5.46M329.6,176.83c-.91-11.37-1.59-22.76-2.8-34.1-1.07-10.07-2.77-20-8.41-29-5.24-8.34-11.14-15.59-21.73-17.66-4.52-.88-8.77-.7-12.92,2.06-4.74,3.16-7.19,4-12.25-.76a6.2,6.2,0,0,0-3.77-1.54c-6.85-.16-12.45.39-17.81,4.83-2.18,1.16,0,0-3.44,1.76-.16.09-4.7,2.85-4.86,3-2.91,3.4-6,6.67-8.66,10.27a44.39,44.39,0,0,0-6.35,13.66c-2.79,9.27-4.36,18.59-3.32,28.24.56,5.17,1,10.35,1.65,15.5.6,4.88,1.22,9.76,2.11,14.6,1.12,6.08,3,12.07,3.7,18.19,1.07,9.39,6.46,16.59,11.85,23.87a20.35,20.35,0,0,0,3.87,3.77q6.78,5.31,13.71,10.45c4.12,3.09,8.25,6.17,12.5,9.09a9.48,9.48,0,0,0,4.38,1.71c4.49.37,9,.45,13.53.55a3.38,3.38,0,0,0,2.18-.66c4.09-3.74,8.34-7.36,12-11.43,3.54-3.9,6.5-8.27,9.68-12.47,3.53-4.67,7-9.35,10.51-14.07a10.63,10.63,0,0,0,1.53-3.16A62.79,62.79,0,0,0,329.06,191m98.09,265.28c.86-.4,1.27-.54,1.63-.76.92-.55,1.81-1.13,2.72-1.7-.3,1.22-.53,2.47-.95,3.66-.14.41-.77.66-1.17,1a27.24,27.24,0,0,0-3.94,3.52c-1.82,2.38-3.35,5-4.94,7.5a8.08,8.08,0,0,0-.63,1.91,3.8,3.8,0,0,0,2.45-.92c1-.88,2.14-1.66,3.15-.32s0,2-1.28,2.69c-3.59,1.82-6.63,4.18-7.4,8.31l2.81,1.37c-7.72,4.9-9.53,12.73-13.36,19.48,7.34,1.23,12,5.81,17.14,9.4a24.06,24.06,0,0,1,10.31,15.68c1.67-1.58,3.62-3.15,4.33-5.12,1.59-4.37,2.52-9,3.76-13.44,2.05-7.39,3.24-15.15,6.41-22.07,5.45-11.9,12-23.33,18.35-34.85a70.19,70.19,0,0,0,8-21c1.33-7.2,2.23-14.47,3.19-21.73.8-6,1.32-12,2.12-18,.53-4,.17-7.3-2.78-10.85-6.42-7.74-10.9-16.71-15.15-25.72C457,343.94,452.27,333.59,445,324.5c-4.27-5.31-7.7-11.29-12.3-16.3a145,145,0,0,0-16.27-14.82c-4.31-3.45-9.22-6.23-14-9.12a71.12,71.12,0,0,0-6.71-3c-3.45-1.61-6.88-3.29-10.95-5.24,1,2.62,1.62,4.7,2.49,6.7,3.48,8,7.19,15.91,10.52,24,6,14.58,5.79,29.76,4.21,45-.22,2.17-1,4.73-.14,6.46a40.83,40.83,0,0,0,6.72,9.35c5.29,5.61,11,10.88,16.42,16.36,2.86,2.89,6.06,5.63,8.19,9,3.57,5.61,3.31,12,2.39,18.33-.48,3.25-.72,6.53-1.07,9.8a4.63,4.63,0,0,0,.54,0l3.22-.68a8.78,8.78,0,0,1-1.26,2.75c-4.44,4.49-4.45,10.38-5.65,15.9,0,.18.23.41.45.79.56-.31,1.07-.59,1.56-.89,1.38-.86,2.9-1.45,3.91.25s-.48,2.35-1.81,3-3.19,1.18-3.7,2.25C430,448,428.77,451.92,427.15,456.23ZM390.46,426.6l1.05-.05,1.12,2c3.44,6.32-7.49,14.14-11.4,17.87-1.66,1.59-4.58,2.27-4.68,5.12-.24,7.48-2.41,14.79-1.54,22.4.41,3.63-1.06,7.44-.7,11.08.53,5.3,1.9,10.52,3,15.76a2.55,2.55,0,0,0,1.36,1.76,37,37,0,0,0,8.27,1.51,67.84,67.84,0,0,0,11.55-1,7.9,7.9,0,0,0,4.55-2.45c1.64-2,2.47-4.62,3.91-6.81a60.25,60.25,0,0,0,7.62-15.24,31.22,31.22,0,0,0,1.31-3.81,19.12,19.12,0,0,1,3.92-9.22c1.79-2.25,4-4.88,4.18-7.44.16-2.76,1.23-5,2.05-7.37.67-1.93,1.36-3.85,2-5.78l-.86,0a4.34,4.34,0,0,1-.19-1.48c.82-3.37,2-6.69,2.48-10.09s2.82-6.71.58-10.26c-.23-.37-.07-1,0-1.52.69-5.71,1.6-11.42,2-17.15.17-2.36-.58-4.84-1.22-7.18-1.3-4.74-5.33-7.53-8.82-10.63-7.45-6.59-15-13.08-19.26-22.18a15.73,15.73,0,0,0-1.11-1.72l-1.07.28c.59,4.86.84,9.78,1.86,14.56,1.25,5.9,3.62,11.6,4.66,17.52,1.94,11-.24,21.86-2.73,32.6a2,2,0,0,1-1.41,1.2,2,2,0,0,1-1.54-1.08,15.8,15.8,0,0,1-.22-3c-.11-1.29-.3-2.57-.45-3.86-1.73,3.65-2.73,7.22-4,10.7a4.54,4.54,0,0,1-2.28,1.92,11.62,11.62,0,0,1-3.06.52c-.66-3.05-1.38-6.4-2.1-9.75l.43-.38,4.2,5,.7-.14c.54-5.24.84-10.5,1.7-15.69.57-3.47-.45-6.53-1.32-9.72a6.3,6.3,0,0,1,.1-2,5.83,5.83,0,0,1,1.79.62c3.06,2.44,3.65,5.82,3.94,9.4a70.32,70.32,0,0,0,1.22,7l1.15-.1c.21-3.27.46-6.53.63-9.8.35-6.41.33-12.76-1.91-19a74.24,74.24,0,0,1-3.75-34.45,128.76,128.76,0,0,0,.64-23.47,94.66,94.66,0,0,0-10.93-38.08,113.94,113.94,0,0,1-13-46.05c-.22-3.39-.09-6.79-.29-10.18-.34-5.6-.79-11.2-1.24-16.8-.49-6.28-.65-12.61-1.62-18.83-2-12.71-4.4-25.36-6.67-38a20.73,20.73,0,0,0-.71-2.41,11.75,11.75,0,0,0-.4,4.22c1.13,12.92-.48,25.64-2.6,38.38q-3,18-4.84,36.21c-1.07,10.85,2.34,21.24,5,31.65,2.59,10.24,8.29,19.15,13.37,28.28a54.84,54.84,0,0,1,6.29,37.85c-2.62,13.86-5.81,27.64-9.27,41.33a67.15,67.15,0,0,0-1.09,29.63c.86,4.41,2.78,8.62,3.71,13a35.62,35.62,0,0,1,.73,10.29,10.51,10.51,0,0,0,.38,4.82,59.29,59.29,0,0,1,1.71,7.54c.12.55.27,1.09.54,2.18C384,439.74,391,435.33,390.46,426.6Zm-25.71,17.64c.75-.25,1.1-.26,1.2-.42,2.6-4.41,5.21-8.83,7.72-13.29a3,3,0,0,0,.07-2c-1.27-5.21-2.4-10.46-3.95-15.59a52,52,0,0,1-1.44-25c2.88-14.86,6.67-29.56,10-44.33a72,72,0,0,0,1.25-26.41c-1.16-8.15-5.17-15.2-9.5-22-9.39-14.83-14.17-31-15.4-48.1-.89-12.33,1-24.65,3.47-36.79,2.5-12.31,4.55-24.69,4.27-37.25-.17-7.79-1.27-15.55-1.87-23.32a88.82,88.82,0,0,0-11-36c-5.72-10.46-12.67-20-23.26-26.79-9.81-6.31-19.87-10.68-32-9.15-3.31.42-6,1.55-7.91,4.13-1.66,2.29-3,6.64-4.52,9A20,20,0,0,1,280,93c-.11-1.22-.37-1.82-.16-2.18a3.75,3.75,0,0,0-2-5.46c-4.71-1.13-9.41-2.69-14.21-3.07a24.23,24.23,0,0,0-15,3.39,51.16,51.16,0,0,0-12,10c-4.87,5.69-9.58,11.43-12.22,18.42-2.15,5.67-4.07,11.42-6,17.14-.94,2.72-2.56,5.48-2.48,8.19.1,3.65,1.49,7.28,2.43,10.9.16.58.85,1,1.37,1.61.8-5.46,1.4-10.59,2.32-15.66,1.72-9.45,4.48-18.57,11-26.14a72.85,72.85,0,0,1,7.41-7.6C246.14,97.59,252,92.76,260,91.92c5.35-.55,10.71-.76,14.37,4.23a39.16,39.16,0,0,0,3.15,3.31c.55-1.3.95-2.14,1.27-3A14.71,14.71,0,0,1,280,93c2.44-3.56,6-5.29,10.3-6.5a32,32,0,0,1,19.32.29,48.74,48.74,0,0,1,19.47,12.54c11.39,11.85,18.53,25.69,20.27,41.86.64,5.93.82,11.9,1.5,17.83a109,109,0,0,1-.37,28.53c-1.44,9.59-3.62,19.08-5.38,28.63-1.93,10.48-4,20.94-5.55,31.47-1.95,13.58-4.11,27.19-4.8,40.85-.46,9.35,1.25,18.82,2.33,28.21a130.13,130.13,0,0,0,10.17,36.36c3.71,8.64,8.36,16.88,10.79,26.06,2.56,9.71,3.06,19.3.37,29a3.8,3.8,0,0,0,.06,2.19c1.52,4.14,3.58,8.16,4.61,12.4a122,122,0,0,1,2.33,15.6C365.64,440.13,365,442,364.75,444.24ZM207.37,255.87c.54,1,.8,1.62,1.17,2.16,6.08,8.8,12.27,17.47,20.08,25s15.95,14,26.18,18c7.67,3,15.56,5.23,23.86,5.56a122.23,122.23,0,0,0,15.07-.24c5.13-.42,10.19-1.56,15.32-2.14,3.63-.4,3.87-2,3.52-5.18-.92-8.54-1.1-17.14-1.69-25.71-.2-3-1-5.86-1.11-8.81-.2-4.38,0-8.79-.11-13.18a40.09,40.09,0,0,0-.83-5.29l-.85-.31c-1.79,1.84-3.57,3.69-5.38,5.51a28.75,28.75,0,0,1-14.28,8.18c-6.63,1.58-12.24-.37-17.11-3.34-7.72-4.72-14.64-10.65-21.86-16.11-1.36-1-2.57-2.25-4.12-3.63C237.14,250.89,222.26,253,207.37,255.87Zm24.16,154a28.09,28.09,0,0,1,3.3-.15c5.8.59,11.59,1.49,17.41,1.74a27.84,27.84,0,0,0,9.4-1.34c8.51-2.69,13.09-8.7,15-17a152,152,0,0,0,3.74-33c0-3.49.16-7,.1-10.46-.07-4-.27-8-.49-12-.14-2.67-.43-5.34-.65-8-6.35,1-12.41,2.38-18.54,3a191,191,0,0,1-21.26.84,57.68,57.68,0,0,1-12.25-2c-2.52-.6-4.84-1.93-7.45-3a8.79,8.79,0,0,0-.5,1.85c-.18,6.12-.2,12.25-.47,18.36-.4,8.71,1.54,17.12,3.4,25.52,1.74,7.91,4,15.7,6.08,23.54C229.46,401.87,230.51,405.94,231.53,409.87ZM378,505a24.52,24.52,0,0,1-.5,3.26c-.8,2.57-1.15,5.48-2.67,7.6-3.86,5.38-8.3,10.38-12.43,15.59a16.7,16.7,0,0,0-3.08,4.74c-1,3.07-3.46,4.5-5.95,6.2-4.46,3-8.74,6.34-13,9.65a2.15,2.15,0,0,0-.21,2.12,56.53,56.53,0,0,0,3.61,4.51c.69-.41,1.78-1.14,2.94-1.71a125.34,125.34,0,0,0,19.23-12.09,81.6,81.6,0,0,1,7.62-4.66c1.53-.88,2.62-.53,2.68,1.33a5.54,5.54,0,0,1-.42,2.39c-2,4.44-5.89,7.26-9.61,10.3-6.76,5.52-13.22,11.38-21.42,15-1.41.63-1.83,1.55-.25,2.36,2.07,1.07,2.41,2.5,1.57,4.46a8.76,8.76,0,0,0-.33,1.93,12.9,12.9,0,0,0,2-.47c3.64-1.58,7.39-3,10.86-4.86a48.86,48.86,0,0,0,8.89-5.94c5.24-4.55,10.12-9.48,15.26-14.14.76-.69,2.15-.74,3.25-1.08l.51.58a9.58,9.58,0,0,1-.83,2.23c-2.21,3.28-4.18,6.78-6.83,9.7-6,6.67-12.32,13.15-20.24,17.91a2.17,2.17,0,0,0-.39,2.1,39.73,39.73,0,0,0,2.76,4.25c2.59-1.48,5.59-2.93,8.29-4.79a90.23,90.23,0,0,0,23.53-23.59c.84-1.23,1.7-1.62,2.72-.76a2.41,2.41,0,0,1,.19,2.32c-2.45,4.62-5.1,9.14-7.56,13.76-1,1.88-1.32,4.18-2.59,5.85a88.56,88.56,0,0,1-6.9,7.37c-1.16,1.21-2.36,2.38-3.54,3.56l1,0c.93,1.91,1.85,3.82,2.88,6,.76-.78,1.54-1.66,2.39-2.46,1.69-1.6,3.34-3.26,5.17-4.71,2.59-2,5.39-3.8,6.83-7a50.51,50.51,0,0,1,3.72-5.85c3.73-5.84,7.85-11.49,11.05-17.59a139.74,139.74,0,0,1,15.31-22.92c1.08-1.32,2.91-3.13,2.59-4.22-.74-2.52.24-4.25,1.28-6.22a4.67,4.67,0,0,0,.23-2.22c-.08-4.49-3.3-7.31-6.39-9.86-4-3.32-8.52-6.13-12.88-9.06a4.76,4.76,0,0,0-2.92-.88c-3,.34-6,1-9,1.48-5.69,1-11.36,1.87-16.74-1.2A7.06,7.06,0,0,0,378,505ZM207.33,350.75c.75-1.95,1.57-3.64,2-5.42a3.45,3.45,0,0,0-2.64-4.29c-4.46-.49-8.91-1.91-13.44-.33a4.77,4.77,0,0,1-1.32.08c-7.59.35-14.35,2.56-19.72,8-4.7,4.73-5.66,8.79-2.82,14.34,1.34,2.61,1.73,5.09.38,7.56-1.72,3.11,0,5.74.92,8.45a32.3,32.3,0,0,0,2.82,5.72c2.07,3.58,4.51,6.84,8.4,8.91a57.12,57.12,0,0,1,6,4c2.5,1.76,4.81,3.79,7.44,5.34,1.36.8,3.27,2.25,4.83-.07,2.17-3.21,5.57-4.78,8.94-6.58,3.93-2.09,8.71-3.11,10.34-8.35,1.67-5.41.51-7.67-5.41-7.86-1.62,2.13-1.2,5.25-5.14,6.41-3.09.9-5.64,1.74-9.5.36,2.5-1.42,4.42-2.49,6.31-3.6,3.38-2,6.79-4,10.07-6.09a3.42,3.42,0,0,0,1.36-2.5,5.88,5.88,0,0,0-5.26-5.3c-3.69-.12-7.35,0-10.66,2.12a51.52,51.52,0,0,1-7.09,3.54c-.52.23-1.37-.22-2.06-.36.17-.62.15-1.6.54-1.79,3.22-1.55,6.45-3.12,9.8-4.35,2.63-1,5.46-1.39,8.17-2.17,4.41-1.27,4.4-1.3,3.32-5.55-.05-.16-.12-.32-.18-.48-1.06-3.27-3.1-4.2-6.54-3.22-2.71.77-5.47,1.79-8.24,1.89A25.77,25.77,0,0,0,186.87,363a25.86,25.86,0,0,1-2.46,1.09l-.89-.53c.42-1.14.59-3.11,1.28-3.3,4-1.1,8.22-1.81,12.36-2.57,2.25-.42,4.65-.37,6.76-1.12,1.09-.39,2.48-2.15,2.37-3.13-.32-2.65-1.39-5.21-2.13-7.81a10.44,10.44,0,0,1-.21-1.6l.83-.26C205.61,346.07,206.45,348.34,207.33,350.75ZM214.88,133l.88.15c.27-.65.57-1.29.79-2,2-5.95,3.54-12,6-17.82A62.74,62.74,0,0,1,246.1,84.92a26.75,26.75,0,0,1,20.16-4.11c5.23.91,10.35,2.4,15.63,3.66.58-.86,1.42-2,2.18-3.29,1.63-2.62.92-5.29-1.67-6.28A33.8,33.8,0,0,0,269,72.2c-8,.26-16.13-.14-22.88,5.24-3.34,2.66-7,5-10.2,7.76-3.81,3.31-7.35,6.91-10.95,10.45-4,4-6.06,9-7.05,14.32-1,5.53-1.7,11.11-2.46,16.68C215.13,128.77,215.06,130.9,214.88,133ZM340.2,95.13c-.48-.92-.86-1.86-1.41-2.71-6.47-10-13.44-19.68-22.45-27.83-1.73-1.57-3.2-3.53-5.23-2.33-.47-1.12-.58-2.4-1.19-2.68-2.8-1.27-5.66-2.73-8.65-3.13-1.45-.2-3.21,1.77-4.83,2.76a2.79,2.79,0,0,0-.44.29c-2.39,1.84-4.16,5.37-3.8,7.53a1.53,1.53,0,0,0,.5-.11,37.34,37.34,0,0,1,14.14-5.53,22.65,22.65,0,0,1,4.42.15l-.15.72c-.9.29-4.05.89-4.94,1.22-4.27,1.61-8.67,3-12.76,4.94s-6.41,6.17-5.78,9.5a3,3,0,0,0,1-.14c5.46-3,11.52-2.4,17.18-1.73a42.75,42.75,0,0,1,19.46,7.81C330.34,87.42,335.15,91.29,340.2,95.13ZM286,75a33.42,33.42,0,0,0,2.48-5.14,3.31,3.31,0,0,0-.83-2.91,12.35,12.35,0,0,0-4.35-2.36c-6.55-1.93-13.13-3.32-20.12-2.07-4.35.78-9,.76-12.37,3.86-4.86,4.45-10.84,7-16.73,9.71-1.66.78-3.57,1.31-4.91,2.44-3.48,3-6.37,6.38-7.42,11-.38,1.64-1.36,3.14-1.88,4.77s-.84,3.41-1.24,5.12c3.12-2.93,5.54-6.06,8.44-8.7,5.06-4.61,10.32-9,15.68-13.3a27.81,27.81,0,0,1,7.94-4.91,44.93,44.93,0,0,1,11.43-2.07C270.28,69.87,278.32,70.54,286,75ZM227.06,324.08c-2.13.14-4.21,1.07-6.31,1.64l.08.81c5.06,2.33,10.11,5,15.91,4.92,8.71-.07,17.43,0,26.05-1.75,4.8-1,9.72-1.44,15.57-2.28-1.49-1.3-2.32-2.64-3.41-2.87-4.63-1-9.35-2.35-14-2.27M228,246.79c2.71-1.27,4.6-2.13,6.45-3.06a1.31,1.31,0,0,0,.59-1.06c-.74-4.82-.13-9.75-2.22-14.5a124.92,124.92,0,0,1-5.66-16.39c-.87-3.08-.7-6.41-1.22-9.59-1.09-6.54-2.31-13.07-3.54-19.59a15.16,15.16,0,0,0-1.1-2.78c-.81.54-1.06.91-1.12,1.3-1.36,7.69-.46,15.3,1.06,22.85s3.42,15.3,4.89,23c.88,4.56,1.32,9.19,1.84,13.81C228.18,242.48,228,244.24,228,246.79ZM258,61.88c11.19-3.08,21.64-1.09,31.76,4.05a15.79,15.79,0,0,1,8.09-10.1c-3.54-1.59-6.78-3.11-10-1.79-4.85,2-9.84,2.43-15,2.68C267.49,57,262.43,58.29,258,61.88ZM222.37,178.2l.91-.53c-.19-2.84-.21-5.71-.61-8.52-.51-3.59-1.24-7.16-2.06-10.69a13.41,13.41,0,0,0-1.77-3.78c-1-1.58-2.22-1.28-2.49.34a16.74,16.74,0,0,0-.16,6.75c1.27,4.83,3.06,9.54,4.72,14.27A9.9,9.9,0,0,0,222.37,178.2Zm-6.65,183.4c.42-.54.61-.68.61-.8-.3-4.8-.39-9.63-1-14.39-.26-1.92-.86-4.31-4.2-5.09a30.6,30.6,0,0,1,1.28,3.26c.38,1.54,1.17,3.25.8,4.65C212,353.78,214.86,357.26,215.72,361.6ZM372.76,602c1.29-1.36,2.88-2.43,3.48-3.88a3.88,3.88,0,0,0-1.07-3.61c-1.4-1.07-1.71.54-2.13,1.55-.25.61-.81,1.1-1.12,1.69C371.16,599.16,370.77,600.58,372.76,602ZM345,574.35c-1-.39-2.26-1.33-3-1.05a6.53,6.53,0,0,0-3.09,2.69,2.87,2.87,0,0,0,.54,2.85C340.5,579.61,344.7,576.43,345,574.35Zm-9.76-12.62a13.88,13.88,0,0,0,1.4-.53,8.56,8.56,0,0,0,2.68-1.56,3,3,0,0,0,.62-2.62,2.92,2.92,0,0,0-2.56-.86C334.49,556.81,333.74,558.9,335.2,561.73Zm18.72,29.07,4-3.51c-.84-.81-1.61-2.13-2.55-2.25-.77-.1-2.07,1.08-2.53,2s-.17,2.1-.11,3.17C352.72,590.35,353.29,590.49,353.92,590.8ZM221.46,387.86c-2,2.89-1.85,3.7,1.18,5.77C222.22,391.59,221.87,389.88,221.46,387.86Z"/><path d="M302.52,790.27a23.9,23.9,0,0,1-1.77-3.59c-4.2-13.72-8.53-27.4-12.42-41.19a118.29,118.29,0,0,1-4.23-32.58c0-4.16,0-8.32,0-12l-7.76-2.24c-.2,1.22-.6,2.89-.73,4.57-.28,3.78-.36,7.57-.64,11.36-.39,5.34-.72,10.69-1.37,16-.91,7.42-2,14.82-3.21,22.2-.41,2.5-1.63,4.87-2.11,7.37-1.63,8.43-3.07,16.89-4.65,25.33a10.76,10.76,0,0,1-1.38,3.81c-.37.58-1.61.64-2.45.93-.25-.67-.78-1.38-.69-2,1-7.42,1.94-14.85,3.19-22.22a38.74,38.74,0,0,1,2.73-9.31c2.25-5,2.59-10.2,3.06-15.45.28-3,.63-6.09.94-9.14.57-5.58,1-11.19,1.73-16.75.69-5.21,1.62-10.41,2.65-15.57.3-1.51,1.3-2.89,2.1-4.58,2.47,2.13,4.7,3.5,7.86,2.72a2.31,2.31,0,0,1,2.94,2.23c.49,4.64,1.26,9.28,1.48,13.93.64,13.23,2.28,26.3,6.19,39,1.51,4.89,3.52,9.64,5,14.52,2.07,6.69,3.94,13.43,5.73,20.19.18.71-.76,1.69-1.18,2.54Z"/><path class="cls-7" d="M205.61,327.34c1.74-1,1.84-.16,2.19,1.19.56,2.16.66,1.59.53,3.85-3.56.37-6,1.62-7.94,4.09a4.42,4.42,0,0,1-2.69,1.13c-3.06.41-6.17.54-9.22,1a12.61,12.61,0,0,0-2.82.68l-.09-.14c.82-.91,2.23-1.47,3.17-2.24,2.43-2,3.62-1.74,6.1-3.66"/><path d="M250,209.69a47.59,47.59,0,0,0,6.69,2.54c1.66.38,3.53-.08,5.31-.1a46.42,46.42,0,0,1,14.59,2c2.11.66,4.83-.66,7.28-.81A79.43,79.43,0,0,1,296,213c3,.27,5.3-.73,7.75-1.83a3.19,3.19,0,0,1,2-.21c-.25.78-.39,2.18-.78,2.25-4.75.81-6.23,4.54-7.76,8-2.46,5.58-6,9.81-12.22,12-5.42,1.87-17.13.2-20.76-4-2.52-2.9-4.11-6.53-6.25-9.75a76,76,0,0,0-4.94-6.56c-.4-.48-1.51-.35-2.15-.74a10.45,10.45,0,0,1-1.7-1.63Zm9.37,7.6c2.56,5.16,4.15,11.2,10.79,13.19,6.85,2.05,13.82,2.23,20-2,3.7-2.53,7.51-10.42,6.64-13.24C285.1,231.14,272.51,227.52,259.41,217.29Zm5.41-1-.69.89c.26,2.43,2.32,3.43,4.41,4.12,1.81.6,3.8.68,5.69,1.1,4.75,1,9.52,1.12,14-.67,1.75-.69,2.92-2.71,4.36-4.13l-.7-.87c-3.43.92-6.86,1.9-10.32,2.73-1.82.44-3.88,1.22-5.53.8C272.2,219.29,268.55,217.66,264.82,216.3Zm-1.33-2.07v.66a6.55,6.55,0,0,0,.93.35c3.95.83,8,1.12,11.57,3.37.61.39,1.85,0,2.75-.17,3.37-.72,6.7-1.54,10.07-2.26,1.69-.36,3.43-.56,5.14-.84l-.18-1.21c-3.8.4-7.62.64-11.39,1.23-3,.46-5.73,1-8.73-.27A14.93,14.93,0,0,0,263.49,214.23Z"/><path d="M237.46,159.68c.3-1.05.54-1.87.77-2.69l4,1.07c.93-5.68,3.6.52,5.47-.62V155l.75-.57,2.86,4,1.48-2.69c.63,1.09.93,2.17,1.66,2.67.52.36,1.63-.07,2.38-.14,1.55,1.27,3.2,2.67,4.89,4,2.15,1.74,2.44,4.45,0,5.78a21.15,21.15,0,0,1-8.12,2.6c-4.4.4-8.51-1.05-12.32-3.31-1-.57-2.4-.37-3.79-.17-.69-.63-2.83-1-1.49-3,.15-.21-.78-1-1.07-1.6-.53-1.1-.95-2.25-1.67-4Zm11.25,1.69c-1.45,2.22-1,4.61,1.63,5.38a8.92,8.92,0,0,0,5.21-.23c.78-.28,1.57-2.33,1.24-3.19s-2-1.45-3.11-2c-.2-.1-.75.43-1.13.67.75.35,1.5.69,2.24,1.05a6.85,6.85,0,0,1,.83.74l-2.88,2.53Zm-3.14.56c-.41,0-.62,0-.75.11-1.31.81-2.61,1.64-3.91,2.46,1.3.89,2.59,1.8,3.9,2.67.8.53,1.62,1,2.77,1.72C246.78,166.1,246.17,164,245.57,161.93Zm14.18,1.8h-.81l-1.32,4.54.46.43c1.06-.74,2.43-1.31,3.05-2.3C261.41,165.94,260.25,164.65,259.75,163.73Z"/><path d="M305.83,157.15c.16,1,.31,1.83.6,3.55l4.6-5,1.46,3.51,1.66-2.57,1,.39c-.14,1.26-.28,2.51-.44,4l7.52.59c-.31,1.06-.59,2-1,3.43L318.84,163c-1.5.76-3.16,1.5-1.41,3.65-4.07,1.69-8,3.78-12.16,4.89-2.43.64-5.32-.21-8-.52a13,13,0,0,1-3.58-.91c-3.34-1.43-3.69-2.61-2.14-5.71a24.91,24.91,0,0,0,1.12-3.32c3.12.85,5.3-.09,7.14-3C302.13,160.3,302.26,160.29,305.83,157.15Zm-1.17,9.19c-3.62,1.12-4.29-1.12-4.36-3.79-2.27,0-2.3,1.35-2.18,2.61.18,1.82,1.17,2.87,3.27,3,1.65.1,3.07.26,3.26-1.82.7-.41,1.74-.68,2-1.27s.26-2.33-.09-2.46a12.62,12.62,0,0,0-3.57-.4l-.38.59C303.5,163.89,307.11,163.84,304.66,166.34Zm-6.45,3.31c-.78-1.94-1.44-3.6-2.38-6l-3.58,3.72ZM309,163.18v5.25l4.37-3.23Z"/><path d="M224.37,154.52c12.9-10.57,26.49-8.43,40.43-1.52v4.14c-6.63-2.32-13.14-4.8-19.81-6.82a13.09,13.09,0,0,0-6.55.33c-3.75.95-7.35,2.38-11.05,3.52A15.78,15.78,0,0,1,224.37,154.52Z"/><path d="M325.49,152.1c-1.33-.2-2.3-.08-2.89-.48-4.89-3.37-9.4-1.17-14.09.57-5.51,2-11.15,3.76-16.76,5.52-3.13,1-2.08-1.74-2.55-3s.14-1.77,1.69-2c3-.52,6-1.56,9-2.32,4.43-1.13,8.83-2.43,13.33-3.23,4.28-.77,7.83,1.62,11.46,3.34C324.93,150.64,325,151.18,325.49,152.1Z"/><path d="M288.07,198.75c-.09.52,0,1.2-.3,1.54-1.58,1.73-3.28,3.36-4.91,5.05-3.31,3.44-7.31,3.33-10.72,0-2.13-2.09-4.78-3.71-6.93-5.8-1.07-1-2.39-2.88-2.07-3.93.6-2,.95-4.75,4.72-5.24a33.16,33.16,0,0,1-1.65,3.4c-1,1.66-3,2.88.49,4.56,2.5,1.19,4.31,3.84,6.24,6,1.41,1.57,2.58,1.81,4.92,1.54,3.53-.42,4.59-2.64,6.25-4.76a21.37,21.37,0,0,1,3.17-2.8Z"/><path d="M310.81,214.69a6.24,6.24,0,0,0,.33-2.32c-.45-1.72-.79-3.64-1.84-5-2.27-3-5-5.6-7.49-8.38l.33-.61c.55.12,1.29.07,1.62.39,2.43,2.39,4.77,4.85,7.16,7.27S313.6,212.15,310.81,214.69Z"/><path d="M270.55,175c1-4.33-.23-8.26-2-12.1-.38-.85-1-1.61-1.36-2.47a9.79,9.79,0,0,1-.34-2.18C271.73,161.16,274,171.75,270.55,175Z"/><path d="M247.63,214.83a7,7,0,0,1,.93-9.93,12.94,12.94,0,0,0,2.28-2.75c.42-.56.73-1.19,1.09-1.78l1,.49c-.82,1.4-1.33,3.16-2.53,4.13-3,2.43-3.66,5.17-2.27,8.55a1.37,1.37,0,0,1,0,.75C248.09,214.43,247.91,214.54,247.63,214.83Z"/><path d="M286.22,180.25c-2.49-2.23-3.05-8.6-1.06-12C285.53,172.45,285.85,176.15,286.22,180.25Z"/><path d="M242.64,388.3c2.11-5.6,6.8-3.88,10.66-3.69,3.53.17,5.75-1.79,5-5a2.49,2.49,0,0,0-1.09-1.26c-2.76-1.78-3.24-4.41-1.45-7a7,7,0,0,0,1.07-3.21c.27-2.53.38-5.09.42-7.64a6.5,6.5,0,0,0-.61-2.35c-.14-.38-.59-.64-.81-1-1-1.69-1.28-3.53.2-4.95a4.15,4.15,0,0,1,3.18-.73c2.11.42,3.89,1.61,3.83,3.94,0,.8-1.07,1.57-1.63,2.37-.78,1.1-2.1,2.17-2.21,3.34a50.17,50.17,0,0,0,.14,8.92c.09,1,1,1.92,1.56,2.89,1,1.8,1.78,3.56-.23,5.3-.41.36-.43,1.2-.48,1.84a32.11,32.11,0,0,1-.24,3.82,3.71,3.71,0,0,1-4.17,3.17c-1.76-.12-3.49-.81-5.23-.8a8.49,8.49,0,0,0-4.64,1.09c-.59.41.05,2.43.15,3.73.1,1.14.64,2.48.2,3.38s-1.94,2.24-2.84,2.15c-1.51-.16-3.49-1-4.2-2.11s-.22-3,0-4.56c.18-1.24,1-2.42,1-3.66a40.76,40.76,0,0,0,0-7.16c-.23-2.17,0-4.43-2.28-6.21-.84-.67-1-3.51-.2-4.47,2.56-3.24,1.59-6.86,1.65-10.25,0-2.53-.19-5.33-2.64-7.4a3,3,0,0,1,0-4.6c.9-.85,2.64-1.86,3.49-1.55a7,7,0,0,1,3.6,3.25c.38.81-.79,2.31-1.29,3.5-.38.91-1.17,1.82-1.15,2.72a86.74,86.74,0,0,0,.64,9.67,11.59,11.59,0,0,0,1.62,4.58c1.53,2.46,1.29,4.58-1.11,6.24-.33.23-.77.63-.75.93C242,379.78,242.34,384,242.64,388.3Zm3,4.36c-1.31-1.06-2.28-2.4-3-2.29a3.58,3.58,0,0,0-2.54,2.21c-.23,1.77,1.47,2.42,3,2.29C243.84,394.81,244.44,393.77,245.64,392.66Zm15-17.57-2.57-2.47c-.52.65-1.56,1.38-1.46,1.94a3.6,3.6,0,0,0,1.77,2C258.64,376.75,259.58,375.83,260.65,375.09Zm-18.32-6.29-1.54-.31a12.52,12.52,0,0,0-1,3.2c0,.25,1.63.59,2.52.89Zm19.13-13.46,0-.84a8.92,8.92,0,0,0-2.62-1c-.43,0-1.42,1.2-1.3,1.42.39.7,1.13,1.58,1.83,1.65S260.74,355.78,261.46,355.34Zm-19.25-6.41c-1.16-.69-1.81-1.33-2.52-1.4-.4,0-.89.9-1.34,1.4a7.14,7.14,0,0,0,2,1.2C240.72,350.22,241.29,349.55,242.21,348.93Z"/><path class="cls-10" d="M259.41,217.29c13.1,10.23,25.69,13.85,37.4-2,.87,2.82-2.94,10.71-6.64,13.24-6.15,4.2-13.12,4-20,2C263.56,228.49,262,222.45,259.41,217.29Z"/><path class="cls-8" d="M264.82,216.3c3.73,1.36,7.38,3,11.22,4,1.65.42,3.71-.36,5.53-.8,3.46-.83,6.89-1.81,10.32-2.73l.7.87c-1.44,1.42-2.61,3.44-4.36,4.13-4.48,1.79-9.25,1.71-14,.67-1.89-.42-3.88-.5-5.69-1.1-2.09-.69-4.15-1.69-4.41-4.12Z"/><path class="cls-10" d="M263.49,214.23a14.93,14.93,0,0,1,10.16.86c3,1.24,5.76.73,8.73.27,3.77-.59,7.59-.83,11.39-1.23l.18,1.21c-1.71.28-3.45.48-5.14.84-3.37.72-6.7,1.54-10.07,2.26-.9.19-2.14.56-2.75.17-3.53-2.25-7.62-2.54-11.57-3.37a6.55,6.55,0,0,1-.93-.35Z"/><path class="cls-11" d="M248.71,161.37l4,4.93,2.88-2.53a6.85,6.85,0,0,0-.83-.74c-.74-.36-1.49-.7-2.24-1.05.38-.24.93-.77,1.13-.67,1.14.57,2.76,1.1,3.11,2s-.46,2.91-1.24,3.19a8.92,8.92,0,0,1-5.21.23C247.76,166,247.26,163.59,248.71,161.37Z"/><path class="cls-11" d="M304.65,166.34c-.19,2.08-1.61,1.92-3.26,1.82-2.1-.13-3.09-1.18-3.27-3-.12-1.26-.09-2.65,2.18-2.61.07,2.67.74,4.91,4.36,3.79Z"/><path class="cls-11" d="M304.66,166.34c2.45-2.5-1.16-2.45-2.05-3.54l.38-.59a12.62,12.62,0,0,1,3.57.4c.35.13.42,1.74.09,2.46s-1.3.86-2,1.27Z"/></g></svg>