<svg xmlns="http://www.w3.org/2000/svg" viewBox="0 0 595.28 841.89"><defs><style>.cls-1{fill:#2c292e;}.cls-2{fill:#ffce54;}.cls-3{fill:#e2c0b0;}.cls-4{fill:#e5c7b9;}.cls-5{fill:#a0643e;}.cls-6{fill:#fff;}.cls-7{fill:#a0a0a0;}.cls-8{fill:#404040;}.cls-9{fill:#61534a;}.cls-10{fill:#b9433a;}.cls-11{fill:none;stroke-width:4px;}.cls-11,.cls-14{stroke:#231f20;}.cls-11,.cls-13,.cls-14{stroke-miterlimit:10;}.cls-12{fill:#636466;}.cls-13{fill:#fbb040;stroke:#000;stroke-width:2px;}.cls-14{fill:#119e49;}</style></defs><g id="kläder"><polyline class="cls-1" points="135.77 782.79 398.57 788.84 400.07 745.26 401.32 718.15 395.86 724.39 384.06 727.62 314.13 726.75 268.55 721.9 216.02 712.96 172.8 698.93 152.06 688.62 142.24 678.43 138.52 707 136.53 734.7 135.77 782.79"/><polygon class="cls-2" points="380.79 267.53 369.93 276.68 362.59 288.87 360.21 301.06 360.21 318.27 362.59 331.5 436.03 315.54 429.75 302.58 421.94 291.35 410.51 283.35 392.41 273.25 380.79 267.53"/><polyline class="cls-2" points="326.89 570.16 277.5 596.85 211.54 594.63 206.79 579.1 192.47 519.9 185.24 546.4 184.13 557.18 181.28 570.9 175.91 584.77 151.06 643.79 144.48 675.58 148.12 684.54 159.83 693.12 194.18 706.46 216.02 712.96 251.19 719.62 297.03 725.75 348.22 727.66 384.06 727.62 395.86 724.39 403.28 715.05 403.28 698.36 403.28 668.83 399.19 634.83 394.63 607.61 385.89 559.72 384.51 555.26 326.89 570.16"/><polygon class="cls-2" points="158.81 308.85 162.04 320.7 162.52 336.66 160.67 351.02 156.79 367.05 147.52 386.1 143.48 392.96 132.53 374.65 127.14 365.75 132.87 350.52 142.63 332.63 158.81 308.85"/></g><g id="hud"><g id="Layer_5" data-name="Layer 5"><polygon class="cls-3" points="127.87 367.4 144.24 393.24 143.55 414.56 153.47 400.1 153.47 414.56 152 426.68 150.29 437.71 144.24 449.59 139.88 461.59 135.96 469.68 139.88 487.81 144.53 508.87 149.19 531.05 152.65 549.05 155.97 570 158.74 581.14 175.16 587.15 177.24 590.09 180.42 603.44 181.28 610.3 177.36 610.3 173.07 608.83 170.5 603.44 168.17 602.51 165.36 605.36 168.79 618.5 172.22 631.73 174.54 639.52 164.74 642.02 162.04 649.28 157.88 652.19 146.84 631.73 145.27 634.76 145.15 640.06 145.51 645.82 146.86 651.21 150.29 655.62 151.88 659.66 151.15 665.66 148.12 667.38 146.86 671.79 140.71 662.36 135.61 652.58 133.57 646.28 133.85 635.2 133.67 624.21 133.29 617.58 130.19 606.46 125.55 589.95 122.17 576.6 117.16 564.18 110.77 551.8 104.46 538.77 99.27 526.58 95.33 513.83 90.68 496.03 88.28 478.51 89.86 462.84 96.63 444.8 102.33 430.34 108.4 413.65 113.27 401.64 118.97 386.53 123.33 374.52 126.76 364.65 127.87 367.4"/></g><path class="cls-4" d="M148.83,541.4l-5.35-12.35c1.83-.73,3.37-1,3.85.67,1.08,3.7,1.79,7.5,2.66,11.25Z"/><polygon class="cls-4" points="501.49 520.72 504.28 539.54 504.58 555.91 504.58 574.82 502.67 582.81 489.34 586.77 465.11 594.78 440.51 599.03 422.21 602.18 393.43 606.01 355.9 613.98 336.07 616.72 309.02 618.45 296.41 618.45 288.93 615.81 283.6 611.43 280.04 609.91 267.94 611.43 253.5 612.55 245.16 610.32 239.56 612.96 231.53 614.61 221.77 616.11 216.58 615.81 208.75 612.45 206.79 612.15 206.04 613.88 201.94 614.61 197.36 615.3 193.5 613.57 189.43 607.38 185.66 596.89 190.55 593.94 190.14 587.64 192.47 586.72 196.24 591.81 198.19 593.35 204.48 590.89 208.24 589.37 210.78 593.16 214.55 594.66 220.34 593.84 228.07 593.16 261.43 586.52 288.07 580.72 287.87 577.37 297.64 578.69 305.87 579 315.61 573.61 324.56 573.29 331.41 576.98 358.87 575.76 376.3 567.44 413.27 551.05 417.29 545.61 446.82 535.98 501.49 520.72"/><polygon class="cls-3" points="324.75 82.8 298.41 79.38 282.59 86.22 267.9 120.04 261.42 146.91 251.15 165.9 244.45 201.06 244.97 225.26 256.44 248.69 244.45 298.9 253.02 356.87 306 345.09 304.23 333.83 306.99 311.64 309.51 297.39 316.99 279.69 301.81 288.65 304.98 266.7 313.65 253.44 333.98 238.25 356.12 195.87 352.64 150.79 345.02 107.9 324.75 82.8"/></g><g id="hår"><polygon class="cls-5" points="306 345.09 362.59 331.5 358.79 298.01 367.91 280.03 380.41 264.91 367.3 249.96 360.21 226.16 368.89 183.05 372.86 161.2 372.07 144.19 366.11 113.72 356.12 91.86 347.24 80.86 324.75 66.83 325.98 72.79 326.38 79.38 324.75 82.8 334.3 91.47 340.88 103.39 346.24 118.48 350.81 133.38 351.81 146.1 351.41 162.99 353.59 182.38 350.23 207.14 342.27 225.57 334.97 236.36 327.99 242.72 308.1 260.54 304.98 269.8 301.74 285.96 316.99 279.69 312.07 290.73 308.49 301.46 306.99 311.64 304.98 326.69 303.65 336.19 306 345.09"/><polygon class="cls-5" points="324.75 82.8 326.82 74.84 323.43 60.58 292.36 55.98 269.06 58.52 233.73 71.75 214.08 95.48 202.56 109.77 193.82 127.24 186.87 149.87 182.91 170.77 180.13 193.64 178.15 211.8 169.69 223.51 165.21 237.01 163.66 252.49 165.21 269.76 167.23 279.09 162.04 294.97 158.81 308.85 162.52 333.58 157.72 363.21 144.83 390.68 143.55 414.56 153.47 400.1 150.29 437.71 142.36 454.92 154.13 447.76 162.52 434.72 170.66 453.87 175.12 452.7 162.52 400.85 161.58 382.34 182.43 371.75 251.39 355.71 251.2 334.69 244.97 302.39 255.04 245.82 244.66 210.78 249.21 168.34 261.42 146.91 267.27 130.22 273.03 102.72 285.54 82.18 301.74 77.42 324.75 82.8"/></g><g id="Layer_1" data-name="Layer 1"><path d="M504,586.8c-4.91-1.09-8.5.73-12.24,2.3-2.26.95-4.87,1-7.22,1.77-7.91,2.57-15.69,5.62-23.7,7.81-4.95,1.35-10.23,1.48-15.37,2.18-6.25.86-12.51,1.7-18.76,2.6-4.49.65-9,1.39-13.43,2.11-4.95.78-9.91,1.54-14.84,2.46-.45.08-1.08,1.33-1,1.94.76,4.71,1.78,9.39,2.53,14.11q2.88,18.1,5.6,36.24a160,160,0,0,1,1.87,32.27c-.41,7.68-1.37,15.33-2,23a41.16,41.16,0,0,0,0,4.58c.12,4.21.36,8.42.39,12.63,0,5.67.18,11.37-.19,17-.62,9.45-1.59,18.88-2.47,28.31-.2,2.17-.61,4.32-1,6.47a4,4,0,0,1-.63,2.07,21.53,21.53,0,0,1-3,2.15,11.54,11.54,0,0,1-.69-3c.7-13.52,1.59-27,2.19-40.55.31-6.8.14-13.62.17-20.42,0-.46-.1-.92-.23-2.09-.75.94-1.34,1.37-1.49,1.91a3.57,3.57,0,0,1-3.95,2.83,4.74,4.74,0,0,0-1.67.25c-8.43,3.13-17.23,2.55-25.95,2.56-7.62,0-15.24-.28-22.85-.47-13.63-.32-27.26-.5-40.87-1.1-5.47-.24-10.91-1.46-16.37-2.17-11.05-1.44-22.15-2.66-33.17-4.31-10.32-1.55-20.62-3.27-30.83-5.42-10.91-2.3-21.77-4.89-32.2-9.07-9.46-3.78-19.16-7-28.59-10.81-6.71-2.74-12.79-6.63-17.23-12.62-.07-.09-.3-.08-.82-.21-.35,2.27-.82,4.5-1,6.76-1,11-2,22.1-2.86,33.16-.59,7.84-1,15.7-1.32,23.56s-.4,16-.59,24.06c-.06,2.5-.26,5-.17,7.5.06,1.85-.29,3.45-2.29,3.63-2.24.19-2.45-1.88-2.54-3.37-.31-5.1-.56-10.21-.52-15.31,0-4.85.53-9.69.77-14.54.26-5.33.57-10.65.66-16a310.45,310.45,0,0,1,3-41.66c.67-4.47,1.55-8.91,2.42-13.35a43.3,43.3,0,0,1,1.63-6.41c.38-1,1.46-1.83,2.45-3-1.11-1.9-2.47-3.9-3.51-6.06-2.49-5.15-5-10.31-7.13-15.59-.6-1.46-.14-3.37-.15-5.07q-.08-11.31-.14-22.61a3.48,3.48,0,0,0-.11-.72c-2.8-9.9-5.64-19.78-8.39-29.69-1.2-4.36-1.94-8.86-3.37-13.13a93.33,93.33,0,0,0-5-11.34c-5.89-12.06-12.12-24-17.72-36.14-2.35-5.11-3.55-10.77-5.11-16.23s-3.29-11.17-4.4-16.86a117.39,117.39,0,0,1-1.83-21.39c-.1-9.7,3.26-18.28,6.42-27,4.14-11.41,8.66-22.68,13-34,4.81-12.47,9.66-24.92,14.43-37.39,1.36-3.56,2.21-7.33,3.82-10.76,4.76-10.13,7.76-21.06,14-30.53,3.57-5.38,6.23-11.36,9.78-16.75,2.86-4.34,6.44-8.18,9.66-12.28a3.34,3.34,0,0,0,.61-1.72c.62-7.45,3.43-14.28,5.66-21.3.92-2.88.13-6.38-.19-9.56-1.13-11.42-3.55-22.79-1.72-34.33a38.62,38.62,0,0,1,3-9.68c3.28-7.3,7.13-14.36,10.26-21.72,1.39-3.27,1.67-7,2.28-10.6a24.3,24.3,0,0,0,.45-6.29c-.86-8.7,1.84-17,3-25.4,1.45-10.46,4.92-20.42,8.22-30.39,2.16-6.51,4.39-13.1,7.55-19.15,3.52-6.78,8-13.08,12.31-19.43,2.57-3.79,6-7,8.35-11A56.94,56.94,0,0,1,233,68.68c6.89-5,14.84-7.74,23.29-9.18,5.64-1,11.13-2.69,16.73-3.87s11.08-2.52,16.69-3a56.87,56.87,0,0,1,13.24,1,55.11,55.11,0,0,1,9.23,2.73c3.77,1.29,7.49,2.74,11.21,4.17a2.18,2.18,0,0,1,1.27,1.05c1.53,4.86,6.14,6.39,9.72,8.93,4.15,2.93,9,5,12.84,8.22,10,8.45,16.08,19.51,19.78,32a173,173,0,0,1,7.2,47.41c.07,7.06-1.28,14.2-2.53,21.2-1.94,10.92-4.42,21.73-6.54,32.62A61.45,61.45,0,0,0,366,241.1c1.46,5.08,4.6,9.07,7.87,13,2.55,3,5.69,5.56,8.11,8.66,1.56,2,2.53,4.29,5.05,5.58,8,4.14,16.19,8.13,23.86,12.88a69,69,0,0,1,19.88,18.15,39.34,39.34,0,0,1,5.53,11.73c.82,2.61,2.42,1.41,3.87,1a76,76,0,0,1,8.37-2.32c6-.95,9.34,1.24,10.95,7.24,1,3.66,1.52,7.44,2.22,11.17.62,3.34,1.16,6.7,1.79,10,1.86,9.69,3.62,19.4,5.65,29.05,4,18.95,8.23,37.84,12.14,56.81a290.72,290.72,0,0,0,9.57,35.36c4.22,12.33,8.14,24.79,11.65,37.34,1.64,5.87,2,12.09,2.91,18.16a7.35,7.35,0,0,1,.05,4.14c-1.49,2.49-1.29,6.51-.57,10.56,1.49,8.3,2.65,16.62,2.25,25.09-.38,8-.62,16.08-1.21,24.1C505.76,581.48,504.67,584.12,504,586.8Zm-215,24.63,2.08,3.64c4.79,1.68,5.73,3.13,10.85,1.92a16.54,16.54,0,0,1,3.15-.26c7-.26,14-.45,21-.77,2.17-.1,4.33-.81,6.5-.78a89.51,89.51,0,0,0,27-4.19c4.93-1.47,10.14-2,15.22-3,1-.19,2-.5,3-.75l0-.72c-.64-.22-1.26-.48-1.9-.65-2.85-.75-6.68,1.35-8.31-2.9,0-.11-.27-.15-.43-.19a6.69,6.69,0,0,1-4.9-5c-.76-4.11-3.63-8.51.25-12.6a.75.75,0,0,0,.12-.46c-.13-2.66,1.86-3.26,3.79-4,1.11-.42,2.66-.8,3.08-1.66,1.35-2.78,3.75-4.13,6.23-5.51,4-2.23,10-.53,12.42,3.37a29.67,29.67,0,0,0,3.39,3.73c.54.61,1,1.27,1.53,1.91l-.41.29-2.29-1.1a5.66,5.66,0,0,0-.21,1.32c.4,3.94,2.52,7.56,2,11.73-.21,1.57.57,3.26.9,4.9a31.82,31.82,0,0,0-4.11,1.86c-1.8,1.13-3.27,3.13-5.77,1.43-.31-.2-.94.11-1.43.11-2.33,0-4.68.08-7-.09-.7-.06-1.34-.84-2.06-1.32h9.43c.49,0,1.14-.26,1.42,0,1.79,1.44,3,.09,4.28-.79a25.8,25.8,0,0,0,3-2c.49-.44,1.05-1.58.83-1.93-1.87-2.92.82-7.08-2.61-9.54-.11-.08-.05-.45,0-.68.52-2.68-.71-4.82-2.53-6.45-1.17-1-3.38-2.41-4.31-2-2.6,1.27-6.55.8-7.3,5.63-.39-1.52-.57-2.22-.79-3.1a19.32,19.32,0,0,0-3.87,1.69c-1.57,1.14-3.5,2.34-4.22,4-2.52,5.73.15,13.39,5.44,16.75a6.42,6.42,0,0,0,1.75.84c2.47.64,4.94,1.31,7.45,1.77a9,9,0,0,0,3.72-.12c3.61-1,6.72-2.72,8.63-6.12.61-.73,1.6-1.39,1.76-2.22a31.87,31.87,0,0,0,.48-5.79c0-1.87,1.08-4-1.57-5.5a7.16,7.16,0,0,1,1.53-.52c1-.07,2.08-.06,3.12-.06.72,0,1.44.06,2.16.09-.39.66-.69,1.8-1.19,1.89-2.87.56-3.16,2.46-2.94,4.82a16.75,16.75,0,0,1,0,2.92c-.21,2.34-.36,4.64-2.83,6.06-1,.57-1.61,1.85-2.83,3.33,2-.14,3.37-.16,4.68-.34,6.91-.92,13.82-1.78,20.7-2.85,9.66-1.51,19.27-3.45,29-4.71,8.14-1.06,16.22-2.15,23.93-5,4.46-1.68,8.81-3.67,13.2-5.53.26-.11.44-.4.85-.79l-3.16-2.45a63.39,63.39,0,0,1-6.55,4.65c-3.5,1.89-7.21,2.95-11,.5-.4-.26-1-.68-1.29-.54-1.87.94-3.67,2-5.43-.16a.48.48,0,0,0-.46,0c-1.32,1.29-2.82.57-4.29.49a2.43,2.43,0,0,0-1.77.88,2.87,2.87,0,0,1-3.62,1.1,2,2,0,0,0-1.37,0c-2.34,1-5.48-.46-7.2,2.46-.23.4-1.2.33-1.79.57a6.42,6.42,0,0,0-1.84,1c-2,1.83-3.62,1.8-6.1.37a5.18,5.18,0,0,0-3.75-.46,41.13,41.13,0,0,0-5.62,2.84c-1.23.64-2.48,1.25-3.72,1.87l-.6-.94c2.67-1.79,5.3-3.63,8-5.33a10.22,10.22,0,0,1,2.76-.76c-1.11-5.19-1.2-5.62,3.69-6.4-.85,1.71-2.5,3.36-.4,5.25l1.79-6.26a17.47,17.47,0,0,1-2.71-2.82c-1.55-2.65-3.74-3.29-6.47-1.85a12.7,12.7,0,0,1-2.69.56,10.68,10.68,0,0,0-1.61.66l-4.25,2.34-1.25-.64c.92,1.74-.48,4.7,2.71,5l6,.57c-1.81-2.85-4-3.51-6.8-1.38.27-3.18,2.71-2.44,4-3.39-.15-.82-.32-1.68-.48-2.54a9.63,9.63,0,0,0,6.28,2.37c1.28-.06,2.55-.23,4.17-.38-.4.59-.49.9-.65,1-1.27.37-2.56.7-4.1,1.1l1.82,1.95c-3.07,3.1-6,3.92-10,2.44-1.87-.7-2.64-.28-3.12,1.57a8.84,8.84,0,0,1-5,5.9c-1.77.87-2.81-.26-3.84-1.13-.25-.21.33-1.67.78-2.39,1.34-2.11,2.84-4.12,4.2-6.21.82-1.26-.23-4.64-1.37-5.75a5.78,5.78,0,0,1-1.27-2.71,6.3,6.3,0,0,1,.23-2.12l-.59-.29c-1.62,2.88-3.52,5.39-7.63,6.14-.35-2.93-.87-5.75-1-8.59-.23-5.72,4.57-8.66,7.42-12.64a2.26,2.26,0,0,1,3.9.84c.95,4.14,2.95,8.16,1.7,12.36,3.35,1.57,1,5.16,3,7.74a20.58,20.58,0,0,0,.25-2.66,7.16,7.16,0,0,1,3.61-6.73c2.53-1.42,2.59-3.11,2.51-5.33-.18-5.25,1.48-7.27,6.37-7.76a4.05,4.05,0,0,0,0-.92c-1.1-5.6,1.13-7.67,6.71-6.17a2.51,2.51,0,0,0,3.26-1.15,5.78,5.78,0,0,1,8-1.47c.86.55,2.18,1.34,2.19,2,.08,3.71,2.3,5.77,5.29,7.78a14.74,14.74,0,0,1,0-2.85c.44-2.08.7-4.3,1.68-6.12a4.61,4.61,0,0,1,3.65-2.09c1.11.16,2,2,3,3,.58.59,1.19,1.4,1.91,1.57,2.56.6,3.32,1.55,2.67,3.93-.36,1.35.14,1.86,1.47,1.62.56-.09,1.11-.25,1.67-.37a6,6,0,0,1,7.19,3.94c.16.43.36.84.77,1.79,1.45-.93,3.37-1.47,3.82-2.59a3.83,3.83,0,0,0-1.8-5c-.37-.2-.06-1.61-.06-2.46l.64-.05a13.41,13.41,0,0,1-.65-3.29c.3-5.2,0-10.64,5.24-14.05.43-.28.57-1,.92-1.41a11.38,11.38,0,0,1,1.12-1.07,4.91,4.91,0,0,1,.89,1.51c.43,2.63.69,5.28,1.17,7.89a9.91,9.91,0,0,0,1.23,2.54,12.37,12.37,0,0,0,1.36-3.42c.86-2.55,2.78-3.7,5.1-2.56,1.64.81,2.89,2.44,4.32,3.69a13.56,13.56,0,0,1,2.46,2.17,6.51,6.51,0,0,1,.52,2.5c-3.4.58-2.48,3.94-3.66,5.93-.3.51.75,1.81,1.18,2.74.78-.47,1.87-.77,2.28-1.47a13.54,13.54,0,0,0,1-3.44c.26-1,.54-2,.8-3l1,.2-.63,5.08.81.32c.34-.62.92-1.22.95-1.85a27.82,27.82,0,0,0-.22-4.37c-.69-5.95-1.38-11.89-2.15-17.83-.26-2-.72-4-1.1-6.11-4.22,1.62-8.07,3-11.88,4.56a150.65,150.65,0,0,1-24.34,7.44c-12.11,2.6-24.19,5.36-36.27,8.16a16.07,16.07,0,0,0-4.26,2.05c-1.24.74-2.31,1.77-3.55,2.51s-2.73.78-3.43,1.68c-2.8,3.6-6.87,5.06-10.73,6.89-4.39,2.08-8.77,4.2-13.27,6-6.65,2.69-13.43,5-20.07,7.76-1.9.77-3.37,2.72-5.28,3.29-4.59,1.36-8.94,4-14,3.21a2.54,2.54,0,0,0-1.41.32,13.27,13.27,0,0,1-10,.79c-2.72-.74-5.54-1.39-8.6-.76,1,3.39,2.06,6.48,1.07,9.78a4.31,4.31,0,0,1-.89-1.79c-1-3-2-6.1-3.12-9.1a2.64,2.64,0,0,0-1.63-1.12c-1.61-.48-3.38-.55-4.88-1.23a7.09,7.09,0,0,0-6.72.51,18.54,18.54,0,0,0-4.18,3.26c-4.4,4.5-10,6-15,2.23a14.23,14.23,0,0,0-4.71-1.93c-1.6-.45-3.3-.67-5.05,1.16,5.85,2.76,10,6.27,5.2,13.26,3.6.81,7.28,1.08,10.44,2.52s5.84,4,8.73,6.14l-.32.56a5.56,5.56,0,0,1-1.44-.4c-2.34-1.42-4.58-3-7-4.3a9.58,9.58,0,0,0-3.54-.69c-.95-.09-2,.33-2.86,0-4.64-1.58-9.2-3.39-13.84-5-5.28-1.79-10.65-2.75-16.18-1a58.2,58.2,0,0,1-6.52,1.87c-1.47.29-2.28.77-2.6,2.34a35.65,35.65,0,0,1-1.62,4.69l-.86-.25c.3-1.8.6-3.6,1-5.83a28.57,28.57,0,0,0-4.24,1.43,20,20,0,0,1-11.91,2.43c-1.49-.16-3.08.69-5.16,1.21l3.9,3.77-.79.88c-.94-.73-1.85-1.53-2.86-2.17s-2.11-1.59-2.87-1.36c-3.47,1-6.32-.43-9.3-1.7-2.24-1-4.58-1.9-6.25.69-2.62-3-5.7-.4-8.42-.86-.82-.14-.5.24-1.88,1.2,5,3.25,11.42,2.95,15.78,5.71a7.13,7.13,0,0,0,2.77.81c4.15.56,8.34.92,12.48,1.58,4.7.75,9.2,1.54,14.2,2.67a42.18,42.18,0,0,0,18.51-.37c3.51-.76,5.39.16,8.82-1,3.2-1.07,3.63,1,6.59,1.43.94.31,2.89,1.57,3.74,1.92M162.19,387.79c1.1,5.78,2.13,11.58,3.33,17.34.54,2.61,1.41,5.16,2.13,7.73,1.71,6.15,3.69,12.24,5.08,18.46,1.27,5.76,1.54,11.74,2.91,17.46,3.68,15.44,7.65,30.82,11.61,46.19q3.7,14.34,7.76,28.59c3,10.51,6.21,20.93,7.85,31.81,1.55,10.23,3.93,20.34,6,30.5a27.79,27.79,0,0,0,1.59,5.29,3.11,3.11,0,0,0,2.07,1.43,23.73,23.73,0,0,0,6.26.51c6.82-.77,13.67-1.48,20.4-2.78,13.11-2.54,26.14-5.45,39.2-8.25a3,3,0,0,0,1.74-1,12.28,12.28,0,0,1,14.25-4.72,35.2,35.2,0,0,0,5.61,1.51c3.86.72,7.48.9,10.42-2.7,2.69-3.28,6.61-4.14,10.75-4,.61,0,1.65,0,1.77-.34.94-2.38,3.25-2.25,5.08-2.78,10.8-3.12,21.67-6,32.46-9.17,12-3.5,23.81-7.36,35.79-10.76,15.41-4.39,30.9-8.52,46.37-12.69,13.57-3.66,27.51-6,40.64-11.3,5-2,10.1-3.89,15.07-6,3-1.28,2.9-1.45,1.58-4.46a7.35,7.35,0,0,1-.41-1.63c-1.17-6.21-1.89-12.55-3.62-18.59-2.7-9.4-6.06-18.61-9.17-27.89-1.81-5.37-4.1-10.62-5.46-16.1q-5-20.15-9.37-40.46c-3-14-5.69-28.08-8.52-42.13-1.55-7.69-3.21-15.37-4.63-23.08-1.05-5.73-1.78-11.52-2.68-17.27-.5-3.19-1.05-6.38-1.59-9.56-.36-2.1-1.89-2.66-3.61-2.23-2.54.63-5,1.6-7.49,2.43a21.73,21.73,0,0,1-2.76.91c-4,.79-7.91,1.47-11.85,2.25-7.46,1.46-14.92,2.91-22.36,4.45-5.07,1.05-10.12,2.23-15.17,3.36-10.75,2.4-21.53,4.68-32.24,7.24-6.68,1.6-13.19,4-19.9,5.4-15.53,3.35-31.13,6.33-46.69,9.53-14.85,3.06-29.67,6.23-44.51,9.32-7.92,1.65-15.87,3.13-23.76,4.9-9,2-17.9,4.55-27,6.36a124.14,124.14,0,0,0-30.86,10.72C163.74,382.84,161.41,384.2,162.19,387.79Zm73.15,227.85c-4.79.54-9.62.79-14.35,1.64a9.66,9.66,0,0,1-8.09-2.21c-4.09-3.17-8.11-.41-12.1-3.7a37.82,37.82,0,0,1-4.2-4c-3.08-3.48-4.88-5.89-5.76-10.25a5.45,5.45,0,0,0-1-1.8,20,20,0,0,0-1.81,2.3,7.26,7.26,0,0,0,.14,2.24c1.16,3.85,3.68,5.63,4.5,9.55.61,2.91,1.83,4.45,4.78,4.86,1.21.16,8.78-1.63,10.31-.94-3.2,4-14.61,4-16,0-.47-1.3-3.17-1.36-5.07-1.07-1.28.2-2.78-.57-4-.21-2.43.75-2.41.77-2.78-1.61-.95-6.14-2.1-12.25-3.23-18.37a2.46,2.46,0,0,0-.89-1.34c-1.39-1.1-2.71-2.47-4.3-3.1-3.91-1.56-8-2.75-11.92-4.14-.67-.24-1.62-.65-1.79-1.19a80.66,80.66,0,0,1-3.12-11.38c-.43-2.63-.85-4.59-3.86-4.49a4.94,4.94,0,0,1-.17-1c0-.49.13-1,.18-1.45.5-5.44,1.91-10.86.24-16.34-.26-.84,0-1.9-.48-2.58-1.46-2.26-3.38-4.25-4.62-6.61a59.72,59.72,0,0,1-3.61-9c-.31-1-.91-2.73,1.49-2.68,2.85.06,2.76-.27,1.8-3.51-.11-.4-.21-.81-.29-1.22-1.67-9-3.29-18-5-26.91-.2-1-1.11-2.66-1.69-2.66a56.75,56.75,0,0,0-7.38.89c4,6.12,7.63,11.65,11.2,17.22.26.41.07,1.11.09,1.68-.46-.2-1.07-.28-1.34-.63a22.74,22.74,0,0,1-2-3c-2.78-4.92-5.15-10.09-9.49-14-1.07-1-.9-2.32.82-2.72a48,48,0,0,1,5.71-1c1.89-.19,3-.69,2.4-2.72-.47-1.6-1-3.2-1.27-4.83-.65-3.34-1.17-6.69-1.78-10.25-1.24,1.58-2.25,3-3.42,4.32-1.55,1.74-3.91,3.15-1.36,6.16l-1,.29-4.06-4c1.19-.58,2.09-.72,2.4-1.22,2.8-4.42,6.41-8.43,7-14a5.71,5.71,0,0,1,1.06-2.28c.52-.8,1.41-1.41,1.74-2.25.57-1.47.63-3.15,1.29-4.56a26.32,26.32,0,0,1,3.14-5c1.92-2.46.59-6.83,4.72-8,.13,0,.18-.43.25-.66a46.12,46.12,0,0,0,1.86-6.78c1-8.43,1.86-16.9,2.76-25.35.18-1.71.35-3.42.52-5.12-3.85,4.42-6.65,9.21-7.28,14.95-2.46.28-3.52-.54-3.6-3.29-.16-5.35-.26-10.72,0-16.06.14-3.08.55-5.73-1.58-8.66-3.06-4.22-5.19-9.11-7.68-13.74-1.17-2.16-2.26-4.36-3.72-7.18-1.28,3.56-2.26,6.52-3.39,9.42q-5.2,13.37-10.5,26.7c-5.09,12.87-10.29,25.71-15.3,38.62-3.1,8-6.5,15.87-8,24.44a57,57,0,0,0-.22,17.3c1.42,11,4.76,21.62,7.87,32.25A89.46,89.46,0,0,0,102,529c2.19,5.21,4.76,10.27,7.12,15.41,3,6.61,6.17,13.19,9,19.89a155.33,155.33,0,0,1,6.57,17.18c3.06,10.5,5.58,21.15,8.3,31.75.76,3,1.92,5.95,2,9,.2,6.06.44,12.25-.53,18.19s.86,10.75,3.15,15.58c2.05,4.35,5,8.29,7.48,12.4.33.53.68,1,1,1.54,0-2.61-.22-5.07,1.11-7.13a1.69,1.69,0,0,1,2.89.07l.19.34a6.39,6.39,0,0,0-.92-6c-1.3-2-3.23-3.42-3.85-6-1.55-6.63-3.36-13.16-.09-19.79.12-.25,0-.63,0-.95a80.85,80.85,0,0,1-.1-9.59c.53-5.29,2.83-6.49,7.62-4.24a5.54,5.54,0,0,0,.47-1.54c.05-4.78,1.36-8.85,5.74-11.55,1.18-.73,1.88-1.75,3.51-.75.6.36,2-.2,2.84-.69,2.22-1.35,3.68-1.16,5.7.4s2.09,3.69,2.82,5.69c.43,1.19,7.55,1.45,5.9,2.37-1.82,1-7.45-.21-8.15-1.29a57.7,57.7,0,0,1-2.78-5.44c-1.52,2.65-1,4.71-.27,6.77,2.46,6.87,4.7,20,5.46,21.92a19.2,19.2,0,0,0,.71,2.37c.68,2.78,1.16,3.67,1.36,5.16.19,1.09,1.37,4.79.85,5.95a8,8,0,0,1-1.26,1.28c-.6.54-1.11.45-2.32,1.06-1.64,1.22-4-3.19-7.5-4.77-1.52,1.75-.83,3-1.13,5.37a9.32,9.32,0,0,0,.55,3.31,3.32,3.32,0,0,1-.82,3.34c-1.31,1.33-.46.67-2.4,1.86-1.45.38-4.24-1.39-5.58-4.17-1.23-2.57-2.59-5.08-4.08-8-.46.81-.88,1.25-.94,1.73-.21,1.5.09,3.19-.5,4.5-.7,1.6-.25,2.42.69,3.61a7,7,0,0,1,1.77,3.9c-.06,4.82-.47,9.64-.84,14.45v0a1.74,1.74,0,0,1-2.53,1.41l-.58-.29c-.69-.33-1.39-.63-2.09-.94a9.61,9.61,0,0,0-.88,2.37,5.28,5.28,0,0,0,.57,2.08A21.29,21.29,0,0,0,158,689.61a186.76,186.76,0,0,0,21.92,9.7c12.41,4.38,24.56,9.58,37.7,11.76,12.85,2.14,25.54,5.15,38.39,7.27,10.2,1.69,20.53,2.61,30.79,3.91,5.95.76,11.87,2.09,17.83,2.35,13.86.61,27.73.86,41.6,1,12.81.15,25.63.22,38.43-.11,3.53-.09,7-1.71,10.52-2.65a1.11,1.11,0,0,0,.54-.47c1.64-2.49,3.68-4.52,3.8-8,.31-8.57,2.06-17.14,1.83-25.67-.39-13.84-1.85-27.66-3-41.47-.28-3.52-1-7-1.58-10.82-4.56,1-8.63,2-12.74,2.8a6,6,0,0,1-3.07-.43,43.67,43.67,0,0,0-17.45-2.68c-2.18.09-4.32,1-6.49,1.37a6.11,6.11,0,0,1-2-.32c.29-.49.47-1.27.88-1.42a26.65,26.65,0,0,1,12.63-1.37,50.54,50.54,0,0,0,11.3.64c2.87-.25,5.66-1.69,8.43-2.75a7.32,7.32,0,0,0,4.87-5.84c.6-3.28,1.27-6.47.05-9.87a15.74,15.74,0,0,1-.81-5.19c0-2.94-1.43-3.23-3.38-2.72s-3.54,1.18-5.35,1.59c-9.49,2.11-19,4.16-28.47,6.22-3.08.67-6.13,1.69-9.25,1.91-10.93.8-21.88,1.29-32.83,1.94-4.41.27-8.81.71-13.23.92-1.44.07-2.92-.52-4.37-.69a11.94,11.94,0,0,0-2.32-.47c-5.68.56-4.94-5.33-12.77-8.1a7,7,0,0,0-6.31-.22,6.62,6.62,0,0,1-1.79.71c-6.2.64-12.41,1.16-18.6,1.84-2.14.23-4.73-2.14-6.7-1.35m99.54-483.54c-1.11-7.27-2.57-15.1-5.91-22.43-1.61-3.53-3.69-6.85-5.4-10.34-2.91-5.92-7.79-10.18-13.2-13.26-3.5-2-8.24-2-12.47-2.44-5.71-.52-10.82,2.41-16.27,3.47a8.56,8.56,0,0,0-2.73,1c-2.17,1.33-5,2.31-6.27,4.28A109,109,0,0,0,272,116.29a88.74,88.74,0,0,0-1.75,9.08c1.12-.18,1.87-.49,2.16-1.05,1.26-2.44,3.54-3.33,5.94-3.73s4.89-.82,7.1-.26c3.8,1,7.41,2.7,11.11,4.07,2.48.93,5,1.72,7.46,2.71a2.09,2.09,0,0,1,1,1.58c0,1.85-.21,3.7-.31,5.55-.09,1.42-.71,1.89-2.08,1.33-4.18-1.69-8.33-3.5-12.58-5-3.54-1.24-7.11-3.08-11-2.18-2.47.58-4.74,2-7.17,2.81-3,1-3.86,2.17-3.7,5.63l9.07,1.67v-3.4c1.52,1.3,2.49,2.68,3.71,3,.66.15,1.74-1.6,2.82-2.69l3,3.88,2-2.54c.54.64,1.12,1.25,1.6,1.93.72,1,1.36,2.11,2,3.16l.67-.29c.18-1.24.35-2.48.52-3.72,1.17,1.89,1.79,3.77,2.71,5.5.66,1.24,1.92,2.17,2.55,3.43.53,1.09,1.14,2.83.65,3.58-.83,1.27-2.52,2.81-3.82,2.79a109.59,109.59,0,0,1-11.78-1.29,18.93,18.93,0,0,0-2.6-.26c-1,0-2,.15-3,.24l-.19-.79-2,1.52-.16-1.87-2.46.17c.27-1,.46-1.65.73-2.58l-4.94,1.16-.2-.48L271,146.5l-3.51-6.69-.63.16-1.28,3.75,1.91,1c-2.48-.25-2.85,1.56-3.57,3.13-.84,1.83-1.94,3.53-2.86,5.32C260,155.28,259,157.4,258,159.5c-.49,1-.88,2.06-1.46,3-1.35,2.19-3.45,4.16-4.05,6.52-1.7,6.73-2.82,13.6-4.15,20.42a28.85,28.85,0,0,0-.88,5.47c0,8.65,1.22,17.07,4.81,25.09,2.83,6.32,5.5,12.91,11.19,17,7,5.06,14.53,9.3,21.89,13.81a42,42,0,0,0,6,3c3.61,1.5,7.37,2.48,11.32,1.64,6.87-1.46,12.26-6,18.25-9.21a73.52,73.52,0,0,0,8.78-5.94,14.88,14.88,0,0,0,3.2-3.55,55.4,55.4,0,0,0,3.12-5.46c1.71-3.3,3.83-6.48,4.93-10,2.69-8.56,5.2-17.21,7.19-26a63.83,63.83,0,0,0,1.23-14.49c-.05-7.28-.61-14.55-1-21.82-.06-1-.23-2.8-.69-2.92-1.56-.41-3.74-.91-4.86-.16-5.23,3.53-10.19,2.68-15.28,0a6.94,6.94,0,0,0-2.23-.92,2.73,2.73,0,0,1-2.68-2.93c4.06-1.77,6.16-5.31,7.58-9.53,1.87,2.32,2.16,2.27,3.84.09a10.77,10.77,0,0,1,1.92-1.56c1.83,4,4.06-.25,6.08.7l.48,2.93,3.41-2.84c.09,1.71.15,2.78.24,4.48,1-.75,2-1.07,2.25-1.69,1.26-3.1-.59-7.67-3.73-8.92a7.91,7.91,0,0,0-4.21-.32c-3.8.72-7.54,1.72-11.31,2.6a10.19,10.19,0,0,0-6.39,4.07c-2.41,3.46-3,13.2-.57,16.63,3.18,4.52,4,9.83,5.54,14.9a7.63,7.63,0,0,0,1.63,2.79c1.18,1.29,1.87,4.81.56,5.78-2,1.5-4.36,3.34-6.66,3.49-2.88.2-.53-3.49-2.11-4.82,0,0,.84-1.57,1.19-1.53,2.84.33,2.53-1.75,2.17-3.15-1.29-5-2.39-10.09-4.44-14.76-2.69-6.12-2.92-17.5,3.65-22.4,2.69-2,3.13-4.18,3-7-.09-2,.83-2.73,2.79-2.69,3.45.07,6.91,0,10.36-.06ZM243.29,284.85c.81-5.9,1.66-11.8,2.41-17.72,1-7.54,1.9-15.08,2.71-22.63a13.86,13.86,0,0,0-1.89-9.31,34.41,34.41,0,0,1-4.93-15.59c-.33-3.47-.7-6.93-1-10.4-.67-8.2-.77-16.35.82-24.52,1.12-5.78,3.22-11.15,5.33-16.57A58,58,0,0,1,254,155.44c4-5.65,7.54-11.71,8.76-18.74,1.15-6.6,2-13.26,3.44-19.8A111.19,111.19,0,0,1,276.3,88.15c1.12-2.13,2.29-4.5,4.09-5.94,3.47-2.8,6.89-6,11.83-6.15.33,0,.65-.32,1-.53-3.46-2.9-9.41-2.13-13.73,1.86-3.61,3.33-7.19,6.74-9.06,11.56a4.69,4.69,0,0,1,.66-3.15c2.92-3.56,5.56-7.55,9.15-10.28,2.55-2,6.39-2.47,9.75-3,1.69-.26,4.1.13,4.67,2.87l7.13-.75c-1.73-4.47-7.62-6.59-12.4-4.66l-7.49,3-.25-.64a22.22,22.22,0,0,1,10.71-4.22c3.9-.3,8.18.13,10.21,4.12s5.58,3.93,9.42,5c-2.89-9.21-9.69-10.73-17.88-10.16,1.64-1.83,6.81-2.26,10.64-.73,4.77,1.92,8,5.4,8.44,11l3.92.46c0-2.38.63-4.71-.12-6.45-1.87-4.3-6-5.68-10.47-6.21.51-.54,1-1,1.43-1,4.5-.36,11.85,3.66,11,9.68-.18,1.35-1,3-.44,3.92s2.44.75,3.71,1.17a14.69,14.69,0,0,1,2.05,1c.13-.52.26-.88.31-1.25A16.92,16.92,0,0,0,323,69.6c-.73-1.67-1.19-3.32-3.05-4.1-4.11-1.72-8.19-3.51-12.31-5.22a20.8,20.8,0,0,0-15.86-.36,19.53,19.53,0,0,1-3.77,1,28,28,0,0,0-11.34,4.75c-11.64,7.81-20.44,18.28-28.62,29.49-5.76,7.9-7.87,17-9.15,26.17-.87,6.25-.13,12.78.37,19.15.75,9.55-.73,18.48-6.52,26.29s-11.19,15.49-13.23,25.16c-2.08,9.92-3.05,19.86-1.7,30,1.42,10.62,4.87,20.69,9,30.43a63.38,63.38,0,0,1,4.42,35.45c-1.2,7.77-2.43,15.55-3.17,23.37-1.48,15.76,1.38,30.92,7.05,45.74,1.61-.3,3.18-.62,4.76-.89s3.22-.42,4.8-.75c4.17-.85,4.1-.88,4.36-5.05a78.52,78.52,0,0,0-3.57-28.31c-3.12-10-6.77-19.77-7.63-30.27-.52-6.28-.76-12.6-.88-18.9a9.42,9.42,0,0,1,1.45-4.55,21.18,21.18,0,0,1,3.08-3.51l.74.39C242.73,271.65,241.12,278.39,243.29,284.85ZM163,438.49a28,28,0,0,1-1.83,3.21c-2.07,2.76-3.91,5.8-6.45,8.05-2.3,2-5.35,3.26-8.15,4.68a7.74,7.74,0,0,0-4,4.92c-.95,2.91-1.71,6-3.18,8.59a6.27,6.27,0,0,0-.34,6.16,9.5,9.5,0,0,1,.74,2.26c.45,2.79.69,5.62,1.24,8.39,1.46,7.46,3,14.91,4.57,22.35,1.62,7.68,3.36,15.33,4.95,23,1.64,7.93,3.27,15.86,4.68,23.83,1.2,6.85,2.37,13.72,3,20.64.36,4,1.73,5.8,5.87,6.09,2.39.18,4.67,1.75,7,2.53.57.19,1.74,0,2-.45q3.39-6.15,6.51-12.44a2.67,2.67,0,0,0,.05-2.09c-1.14-2.32-.48-4.41.5-6.51,1.59-3.39,2.8-6.75,2.3-10.71a38.22,38.22,0,0,1,.46-9.41c.49-3.77,1.42-7.48,2-11.24.67-4.65,1-9.37,4.27-13.19a2.65,2.65,0,0,0,.14-2c-2.22-8.37-4.57-16.71-6.73-25.1-2.3-8.94-4.44-17.92-6.62-26.89-.72-2.93-1.34-5.88-2-8.82l-.64-.3a5.59,5.59,0,0,1-.37.91c-1.52,2.45-2.24,2.5-3.62.06a39.46,39.46,0,0,1-2.4-5.3C165.57,446.09,164.36,442.45,163,438.49Zm91.13-85.25,50.47-10.81c-3.31-6.14-.71-12.2-.57-18.38l-7.93,2.44-.32-.82a8.33,8.33,0,0,1,1.49-.88c1.59-.58,3.21-1.1,4.82-1.63s2.69-1.19,2.76-3.16a97.47,97.47,0,0,1,.87-10.39A70.81,70.81,0,0,1,308,298.49c1.52-4.76,3.59-9.35,5.39-14,.06-.13-.14-.37-.45-1.1-2.55,2.9-4.92,5.51-7.18,8.21s-3,6.28-5.84,8.57c0-4.13-.28-8,.08-11.75s1.54-7.26,2-10.94c.45-3.29,3-6.61.17-10-.26-.3-.06-.95-.14-1.43-.18-1.18-.39-2.36-.56-3.3-2-.23-3.65-.36-5.31-.63-2.63-.42-5.23-1.1-7.87-1.34a22.83,22.83,0,0,1-10.17-2.93,4.6,4.6,0,0,0-2.25-.77c-6.76.06-12.73,2.24-16.55,8-2.5,3.76-5,7.28-2.76,13,5.08,13,7.77,26.72,9.62,40.57.29,2.14.95,4.45.45,6.42a58.39,58.39,0,0,1-3.92,9.83,3.08,3.08,0,0,1-2.38,1.28c-.52,0-1.46-1.08-1.52-1.74-.18-2,0-4,0-6,0-5.52-.27-11.05,0-16.55a54.82,54.82,0,0,0-7.24-30.48,30.65,30.65,0,0,0-1,4.48c-.26,3.63,0,7.34-.61,10.91a7.72,7.72,0,0,0,1.15,6.32c1.86,2.62,1.41,4-1.13,5.05.53,3.56,1,7,1.58,10.43.52,2.85,1.61,5.63,1.89,8.5.64,6.53,1,13.08,1.34,19.64A41.61,41.61,0,0,1,254.11,353.24ZM203.6,305.61l.64-.22c-.27-6.53-.69-13.07-.78-19.6-.14-10.05-.52-20.13.06-30.15a119,119,0,0,1,8.08-36.35,16,16,0,0,0,.53-3.77,4.86,4.86,0,0,0,1.13-2.55,86.89,86.89,0,0,1,4.29-29,62.89,62.89,0,0,1,10.86-19.42c5-6.18,6.88-13.23,7.09-21,.17-6,.52-12,.51-18,0-2.33-.31-3.58-.64-7.07-.1-.08,0-.46.08-.7,1.46-5.6,2.4-11.42,4.56-16.74,1.86-4.58,4.87-8.77,7.82-12.8,6.92-9.44,14.76-18,24.5-24.71,1.42-1,2.91-1.86,4.37-2.79a4.52,4.52,0,0,0-2.74-.25,102.88,102.88,0,0,0-25,8.49,88.41,88.41,0,0,0-26.07,18.79,5,5,0,0,0-1.54,2.41c-.31,2.42-1.61,4.37-2.56,6.5-.68,1.51-.71,3.41-1.64,4.68-3.8,5.2-4.68,11-3.83,17.12,1.29,9.31,2.86,18.58,4,27.9.93,7.35,1,14.7-1.54,21.86-1.2,3.42-1.83,7-3.17,10.4a73.94,73.94,0,0,1-5.55,11.51c-2,3.21-4.85,5.85-7,9-1.64,2.33-2.74,5-4.22,7.5a41.2,41.2,0,0,1-2.72,3.51A8,8,0,0,0,192,212a75.14,75.14,0,0,0-4.83,34.82,155,155,0,0,0,6.53,32.11c2.16,6.69,4.48,13.33,6.86,19.95C201.34,301.19,202.56,303.37,203.6,305.61Zm7.62-202.45-.86-.44a16.65,16.65,0,0,0-1.52,2.07c-2.64,5-5.17,10.07-7.84,15.06-6,11.17-9.5,23.27-12.66,35.4-2.26,8.66-3.33,17.65-4.65,26.54-.72,4.87-.84,9.84-1.27,14.75-.31,3.48-.86,6.93-1,10.41-.55,14.25-.86,28.5-2.68,42.7a203.15,203.15,0,0,1-5.1,26.68,41,41,0,0,1-3.78,8.76c-1.82,3.42-4,6.81-5,10.48-2,6.78-3.08,13.73-1.63,20.89.87,4.28.6,8.83,1.84,13,1.78,5.92,4.45,11.58,6.77,17.34.12.32.45.56.84,1a57.77,57.77,0,0,1,1.91-6.2c3.73-8.5,8.13-16.69,10.33-25.85,1.84-7.65,4.12-15.16,3.79-23.16-.28-6.82,0-13.68-.72-20.45-.71-7-2.29-13.89-3.43-20.84-2.3-14.12-.3-27.75,4.68-41.06a37.71,37.71,0,0,0,1.6-6c.48-2.53.25-5.29,1.17-7.63,2.23-5.7,5.11-11.16,7.42-16.84a125.2,125.2,0,0,0,6-16.62,134.14,134.14,0,0,0,2.83-18.44c.35-3.49.55-7.24-.34-10.57-2.07-7.8-2.76-15.41.27-23.07Zm153,225.15L431,313.81c-1.58-3.92-2.82-7.34-4.33-10.63a23,23,0,0,0-3.16-4.86c-5.08-6.17-11.95-10-18.66-14-5.47-3.27-11.12-6.24-16.66-9.4-1.83-1.05-3.53-2.33-5.37-3.38a1.83,1.83,0,0,0-1.72.12c-2.78,2.55-5.77,4.94-8.1,7.86-4.65,5.8-6.83,12.77-8.56,19.92A61.64,61.64,0,0,0,364.17,328.31ZM231.24,358a81,81,0,0,0-1.76-8.14,102,102,0,0,1-5-24.41c-.33-4.69-1-9.45-.5-14.07,1-9.73,2.79-19.38,4-29.09a42.83,42.83,0,0,0-1.76-19.93q-3.56-9.93-7.2-19.82c-.08-.23-.42-.37-1.11-.95-.25,2.16-.38,3.88-.66,5.58-1.19,7.27-3,14.49-3.52,21.8-1.22,16.32-1.81,32.69-2.75,49-.09,1.46-.9,2.88-1.37,4.32a27.4,27.4,0,0,1-3-3.62c-1.23-2.13-2.17-4.43-3.46-7.13-.44.72-.64.91-.68,1.13-.27,1.68-.49,3.37-.75,5.05-2.34,14.91-2.48,29.7,2.75,44.13.22.6,1.23,1.43,1.71,1.33C214.5,361.55,222.79,359.77,231.24,358Zm127-28c-.53-4.7-1.1-9-1.47-13.29-.32-3.64-.25-7.31-.63-10.93-.76-7.24-.42-14.17,3.43-20.69,4.17-7.06,8.07-14.27,16.24-17.55,1.94-.78,1.77-2,.77-3.21a81.73,81.73,0,0,0-6.16-7.11c-7-6.92-9.83-15.74-10.89-25.11a53.1,53.1,0,0,1,.45-15.26c2.26-12.66,4.94-25.25,7.79-37.79,1.9-8.34,3.69-16.64,2.91-25.23-.52-5.71-1.34-11.41-2.17-17.09-2-13.51-5.22-26.64-11.64-38.85-3.14-6-6.92-11.44-12.2-15.57-4-3.16-8.65-5.6-13-8.36-1.17-.73-2.35-1.45-3.53-2.17a1.33,1.33,0,0,0,0,1.21c1.83,2.93,4.78,4.49,7.69,6,7.2,3.63,13.09,8.57,16.77,15.88a7.39,7.39,0,0,1,.23,1.87c-3.06-3.73-5.42-7.44-8.6-10.22s-7.19-4.66-10.84-6.93l-.66.79c3.1,3.53,5.87,7.45,9.4,10.49,5.43,4.7,9.05,10.54,12.22,16.75a58.75,58.75,0,0,1,6,24.38c.4,9.38.53,18.78.45,28.16-.12,15.9-.62,31.77-3.27,47.53-1.38,8.17-4.32,15.93-4.5,24.47-.17,7.94,0,15.54,2.18,23.23,3.58,12.69,1.83,24.95-3.93,36.8-2.26,4.65-4.26,9.56-4,14.92s.8,10.66,1.15,16a10.74,10.74,0,0,1-.23,3.2c-.43,1.86,2.05,5.57,3.71,5.24C354.18,331,356.43,330.4,358.23,330Zm-54.89-45c3.81-2.21,7.7-4.29,11.39-6.66,5.32-3.42,11.43-5.5,15.81-10.56,4.21-4.86,7.84-9.82,9.36-16.18a14.84,14.84,0,0,1,5.62-8.57,5.36,5.36,0,0,0,1.87-2.66c1.3-5,2.16-10.13,3.64-15.07,3.12-10.36,5.87-20.85,6.48-31.61,1.2-21,2-42,.26-63-.73-8.65-2.28-17.11-6.63-24.68a92.23,92.23,0,0,0-9-12.25c-2.89-3.52-6.24-6.68-9.22-10.13-1.66-1.93-3-4.15-4.47-6.24-.55,2.21-2.36,4.68-.11,6.27,6.21,4.39,9.56,10.79,13.34,17,4.74,7.87,5.83,17,9.43,25.26,2.08,4.79,2.71,10.33,3.33,15.6.5,4.23,0,8.57-.05,12.86-.05,3,0,5.95-.25,8.9-.34,3.57-.55,7.11.56,10.57,2.31,7.2,2,14.58,1.45,21.94a58.79,58.79,0,0,1-1.95,10.74c-1.39,5.21-2.19,10.91-4.95,15.34-4,6.38-9.13,12.12-14.4,17.52-4.68,4.8-10.32,8.67-15.34,13.17-3.11,2.79-6.66,5.55-8.59,9.1-3.8,6.94-5.91,14.65-7.59,22.42A2.23,2.23,0,0,0,303.34,285ZM143.18,389c14.11-23.5,20.4-48.43,15.1-76a9.67,9.67,0,0,0-1.48,1.33c-2.38,3.47-5,6.81-7,10.48-6.63,12-14,23.72-18.86,36.69-.82,2.18-1.15,4.08.3,6.36,3.13,4.9,5.87,10.06,8.74,15.13C141.11,385.06,142.19,387.17,143.18,389Zm28.15-15.27c-3.59-.95-3.28-2.91-2.67-5.28,2.52-9.86.63-19.22-3.58-28.25-.1-.22-.46-.32-.88-.59-.64,4.93-1.38,9.62-1.85,14.34a56.19,56.19,0,0,1-6.58,21.43c-4.51,8.33-9.23,16.6-10.43,26.25-.27,2.2-.34,4.42-.49,6.63l.65,0c.91-1.51,1.73-3.07,2.73-4.52,1.69-2.46,3.41-4.92,5.3-7.23.49-.59,1.65-.63,2.5-.93,0,.73.12,1.46.09,2.19s-.25,1.28-.26,1.92c-.12,5.16.2,10.38-.41,15.48-.92,7.68-2.29,15.33-3.85,22.91a36.64,36.64,0,0,1-3.56,8.91,34.31,34.31,0,0,1-3.8,5l.43.47a15.61,15.61,0,0,0,2.25-1.85c2-2.41,4.07-4.83,5.94-7.36,1.38-1.87,3-3.78,3.66-5.92,1.83-5.61,3.19-11.37,4.85-17.05.18-.6,1-1,1.57-1.52.47.55,1.27,1.06,1.35,1.66.23,1.76.15,3.56.24,5.34,0,.52.11,1.4.38,1.5,2.08.75,1.34,2.19,1.08,3.61a15.85,15.85,0,0,0-.25,3.37c.24,5.93,2.32,11.38,4.46,16.82.7,1.8,1.7,1.83,3.19,1-.47-1.9-.95-3.69-1.36-5.5-1.6-6.93-3-13.9-4.81-20.79-1.26-4.92-3-9.72-4.44-14.6-2.51-8.47-2.4-17.27-3.35-25.95-.48-4.42,1.61-6.38,5-8C166.49,376.3,168.54,375.2,171.33,373.76Zm11.35,228.75c1.62-.58,2.08-1.58,1.39-3.46-1-2.67-1.8-5.39-2.66-8.18a1.5,1.5,0,0,1,2-1.86,3.52,3.52,0,0,1,1.59,1.66c.85,1.54,1.86,3,2.8,4.45l.87-.32c-.19-1.22-.33-2.45-.58-3.66-.5-2.53-1.12-5-1.53-7.59a.93.93,0,0,1,0-.43,1.4,1.4,0,0,1,2.24-.57,1.84,1.84,0,0,1,.17.22,28.8,28.8,0,0,1,1.65,3.45c2.77-1.72,3.05,1,4.05,2.14a45.66,45.66,0,0,1,3.51,5c2.41-1.62,4.69-3.25,7.08-4.71a2.68,2.68,0,0,0,1.42-3.22c-1.25-5.61-2.37-11.25-3.65-16.85q-3.25-14.19-6.65-28.35c-.86-3.56-1.92-7.07-3-11.12a10.45,10.45,0,0,0-.85,1.49c-1.7,6.42-3.63,12.79-5,19.28-1.19,5.77-.55,6.42,4.94,8.52.31.12.74.08.92.28a9.15,9.15,0,0,1,2.14,2.77c.22.65-.54,1.65-.87,2.5a9.49,9.49,0,0,1-2.17-1c-2.12-1.69-4.16-3.49-6.44-5.43a51.41,51.41,0,0,0-2,5.35c-.64,2.57-1.14,5.22,1.65,7.05a28,28,0,0,1,3.32,2.35c1.61,1.44.87,2.29-.72,2.8a36.12,36.12,0,0,0-3.12-2.49c-.43-.28-1.63-.29-1.69-.12-2,5.17-5.12,10.32-5.36,15.6C178,592.73,181,597.52,182.68,602.51Zm136.21-263c-2.72-6.28-4.17-12.58-3.45-19.1,1-9,4.95-17.1,8.87-25,3.27-6.62,8.31-12.35,12.06-18.78,2.83-4.84,6.08-9.64,6.58-15.54.14-1.68.53-3.34.8-5l-.66-.18a13.56,13.56,0,0,0-1,1.8c-2.12,5.78-6.26,10.22-10.59,14.23-3.54,3.28-8.09,5.47-12.16,8.19a6.09,6.09,0,0,0-2,1.95,37.89,37.89,0,0,0-1.88,4.44c-3.2,8.22-6.58,16.35-7.34,25.33-.49,5.79-1.6,11.53-2.57,17.26-.59,3.45-1.07,6.81.12,10.25.63,1.83,1.36,2.76,3.5,2.08a53.7,53.7,0,0,1,6-1.19Zm-146.76,34c3-1.17,5.81-2.43,8.69-3.28q9.65-2.87,19.38-5.37c2-.5,2.25-1.32,1.63-3.07a68.91,68.91,0,0,1-2.75-8.8c-2.63-12.72-1.73-25.44.55-38.1.71-4,1.68-7.86-1-11.55a11.34,11.34,0,0,1-1.22-3.16c-.46-1.4-.85-2.82-1.27-4.23l-.64.08c-.11.84-.24,1.67-.33,2.51-1.06,10.32-2,20.63-5.57,30.51-2.71,7.61-5.15,15.33-7.72,23a8.86,8.86,0,0,1-.61,1,19.61,19.61,0,0,0-2.13,4.21c-1,4-1.66,8.08-2.43,12.14-.27,1.4-.81,2.23-2.46,1.84S172.24,371.85,172.13,373.47ZM351.61,263.12c-.31.26-.51.34-.53.45-1,7.81-5.14,14.18-9.42,20.53-3.31,4.91-7.46,9.13-7.55,16.06-.14,10.07-.69,20,2.18,29.84,1.54,5.26,1.52,5.27,6.8,3.92,2-.5,3.94-1,6.54-1.74-3.88-3.65-4.42-7.8-4.3-12.16,0-.08-.05-.16-.05-.24-.08-6.22-.4-12.46-.11-18.67.1-2.21,2.15-4.29,2.51-6.55.95-6,3.64-11.36,5.71-17A15.29,15.29,0,0,0,351.61,263.12ZM238.78,610.59a3.58,3.58,0,0,0-.84-.4c-6.58-1.18-5.15-1.5-11.77-2.45-4.39-.63-9.51.47-12.74-2.86a3.18,3.18,0,0,0-1.89-.93,18.92,18.92,0,0,1-12.19-4.89c.26-.24.43-.57.59-.54.36.06.6.77,1,.38a15.79,15.79,0,0,1,1.54-.46,12.68,12.68,0,0,0,2-.52,7,7,0,0,1,1.89-.95c1-.4,2.09-.72,3.1-1.06-.47-3.48-.89-3.76-3.86-2.69-1.6.58-3.15,1.33-4.79,1.77-1.38.37-1.68,1-1.3,2.3a7.93,7.93,0,0,1,.46,1.23c-.14.07-.45.48-.59.54l-5.9-10.61-.77.18c-.31.6-.93,1.25-.86,1.81.5,3.49,2,5,2.81,8.42a34.44,34.44,0,0,0,2.8,7.24c.92,1.82,3.11,1.66,4.6,3,3.45,1.85,3.62,1.33,7.61,2.58a15.17,15.17,0,0,0,7.05,2.87,70.87,70.87,0,0,0,13.91-1.1c3.51-.51,3.25-.83,3.8-1m92.49-39.73c1,.8,1.5,1.28,2.07,1.64,4.14,2.53,8.68.76,13,1.12a46.67,46.67,0,0,0,8.88-.58c2.35-.26,4.85-.32,7-1.19,7.41-3,14.67-6.37,22-9.53,8.82-3.8,17.7-7.49,26.51-11.33a44.59,44.59,0,0,0,5.23-3.16l-.39-1C383.72,558.05,355.78,565.75,326.89,572.73ZM474,584.62c1.55,0,4.18-1,4.26-3.18s1.61-5.3-1.55-7c-2.56,2-3.84,1.85-4.36-.59l2,.4c-.06-.55,0-1-.15-1.16-2.47-1.65-2.32-4-1.77-6.43a1.91,1.91,0,0,0-.59-1.41,16.86,16.86,0,0,0-2.87-2.55,4,4,0,0,0-2.51-.62,31.36,31.36,0,0,0-7,1.58c-2.18.89-5,2-5.89,3.82-1.42,3-1.75,6.67-2,10.1-.32,3.79,2.32,6.2,6.08,6.4,2.2.12,4.39.51,6.58.85a2.5,2.5,0,0,0,3-2.76c0-1.2-.16-2.4-.24-3.61l1-.18,2.58,9.33C471.54,586.82,472.52,585.94,474,584.62Zm-38.41-4.45-.1.71c.69.26,1.4.8,2,.71,2.39-.3,4.74-.9,7.13-1.2,2.09-.27,2.37-1.38,2.16-3.21-.19-1.65-.56-3.71.2-4.94,1.3-2.11.79-4.33,1.33-6.43a3,3,0,0,0-.61-2c-1.75-2.76-4.35-3.91-7.58-4-3.54-.16-3.95,0-5.16,3.9,2.44.64,2.72,2.54,2.18,4.55a2.86,2.86,0,0,1-2.1,1.54c-2.07.21-3.37-.88-3.52-3.12-2.74.32-4.6-1.19-6.1-3s-3-1-4.37-.49c-.67.27-1.21,1.84-1.15,2.78.23,3.33,4.72,7,8.48,4.45a2.39,2.39,0,0,1,2.93-.38,11.84,11.84,0,0,1-.81,1.15c-.46.51-1.4,1-1.38,1.46.19,3.87.89,4.4,4.72,4a2,2,0,0,1,1,0c2.5,1.44,4.6.38,6.74-.92.41-.26,1.1-.05,1.67-.06-.2.56-.24,1.27-.62,1.64C440.69,579.17,438.65,580.87,435.56,580.17ZM171.58,636c-.46-1.24-1.48-3.73-1.87-5.28q-3-11.85-5.77-23.73c-.48-2-1.39-1.89-3-1.19-3,1.35-4.13,3.94-4.68,6.87a7.38,7.38,0,0,0-.08,3.92c2,4.92,4.33,9.72,6.53,14.57,1.4,3.09,2.73,5.57,4,8.33C168.17,637.86,170,637.87,171.58,636ZM332.37,298a11.24,11.24,0,0,0-1.42,1.53c-1.62,3.08-3.53,6-4.69,9.29A34.07,34.07,0,0,0,324,319.12c-.13,4.9.69,9.82.93,14.74,0,.95-.72,1.92-1,2.91a2.17,2.17,0,0,0-.05,1.33,1.17,1.17,0,0,0,1,.42c3.48-.89,6.95-1.84,10.52-2.8A85.11,85.11,0,0,1,332.37,298ZM157.66,650.35c1.62-2.16,3.12-4,4.41-6a3,3,0,0,0,0-2.27c-1.84-5.24-3.48-10.59-5.79-15.63-1.54-3.36-4.07-6.27-6.44-9.81-.7,1.13-1.26,1.67-1.38,2.3-1.07,5.37-3.5,10.83.9,15.91.25.29.28.76.47,1.11C152.51,640.87,155.15,645.74,157.66,650.35ZM167,263.13l.71.05c.11-3,.62-6,.27-9a41.78,41.78,0,0,1,2.08-19.38,46.47,46.47,0,0,1,2.07-4.34c-2.07,7.41-4.25,14.69-2.73,22.48,2.64-9.22,5.84-18.34,4.39-28.33C166.7,230.64,162.63,254.19,167,263.13ZM432.16,566.24,437.33,555c-4.88.22-5.13.57-4,4.43a19.63,19.63,0,0,1,.41,2.55l-.74.22a9.08,9.08,0,0,1-1.15-2.14,6.08,6.08,0,0,0-3.63-4.5,8.62,8.62,0,0,0-2.13-.32,7.84,7.84,0,0,0,.46,2.1c.7,1.3,1.69,2.43-.09,3.75-.28.21,0,1.84.4,2.17A49.29,49.29,0,0,0,432.16,566.24Zm19.75-3c2.27-1,4.38-1.81,6.39-2.83.79-.4,1.92-1.26,1.91-1.89,0-1.18-.43-2.47-2.37-2.31s-3.56-.45-3.37-3c0-.46-.42-1-.84-1.84l-3,4.08,2.89,2.21-4,.37C450.45,560.1,451.27,561.87,451.91,563.26ZM286.79,150.79c.41-2.36.61-4.11,1-5.8.37-1.53-.46-2.08-1.62-2a41.27,41.27,0,0,0-7.09,1.25c-2.2.65-2.49,2.34-.5,3.41C281.14,149.05,284,149.77,286.79,150.79ZM488,555.29c4.39-1.89,5.47-3.47,5.17-7.29a24,24,0,0,0-.06-3.29,4.49,4.49,0,0,0-1.44-2.54,2.32,2.32,0,0,0-2.25.54c-.34.59.14,1.64.26,2.49,0,.24.07.47.13.86l-1.81.36ZM334.3,156.81v-8.34c-2.47-.84-5.83.55-6.56,3-.24.8-.18,2.32.27,2.58A59.68,59.68,0,0,0,334.3,156.81ZM146.84,649.28c3.39-4,3.46-11,0-14.51Zm334.25-93.12c2.77-.36,3.38-3.56,1.11-7.25l-2.13.88c1.72-2.62,1.72-2.62,1-4.21-.85,1.09-1.57,2.13-2.41,3-1.16,1.27-.92,2.42,0,3.69S480.14,554.67,481.09,556.16ZM148.83,541.4,150,541c-.87-3.75-1.58-7.55-2.66-11.25-.48-1.67-2-1.4-3.85-.67ZM489,576.91l-.68.91,3.49,5.86c1.6-1,3.06-1.73,4.37-2.7a2.14,2.14,0,0,0,.12-1.68C493.91,578.42,491.46,577.68,489,576.91Zm-70.7-4.59v5.2l6.74-.59c-.48-.87-.73-2.09-1.45-2.49A38.91,38.91,0,0,0,418.32,572.32ZM187.53,609.83c-.47-1.65-.78-3.08-1.31-4.42-.23-.58-.91-1-1.39-1.46-.67.76-1.88,1.52-1.87,2.27a7.71,7.71,0,0,0,1.31,3.82c.35.54,1.5.68,2.31.76C186.88,610.83,187.24,610.14,187.53,609.83Zm229.38-36a6.52,6.52,0,0,0-4.85,5.14,4.26,4.26,0,0,0,.38,1.49,12.9,12.9,0,0,0,1.43-.86c.55-.44,1-1.11,1.58-1.41C417.5,577.23,417.58,575.73,416.91,573.87Zm-17.58,1.94c1.37-1.85,2.66-3.5,3.84-5.24.23-.34,0-1,0-1.48a3.44,3.44,0,0,0-1.29.27c-2.27,1.58-4.1,7.54-3,10.6l2.49-3.09Zm9.53,12.52-1.05-.76a14,14,0,0,0-1.73,1.62,31,31,0,0,0-2.41,3.57,7.18,7.18,0,0,0-.44,2c.74-.07,1.89.13,2.14-.25C406.66,592.55,407.72,590.41,408.86,588.33Zm71.72-44.5a23.06,23.06,0,0,0,1.35-4.13c.05-.47-1-1.58-1.33-1.5-2.19.54-4.08,4.36-2.77,6.82l2-4.41C480.12,541.82,480.28,542.51,480.58,543.83ZM337.65,156.28c2.84-2,.94-4.71,1.58-6.95C336.09,149.25,335.55,151.67,337.65,156.28Zm93.21,432.28,1.1.45a16.09,16.09,0,0,0,1.31-2.5,17,17,0,0,0,.47-2.78,12.34,12.34,0,0,0,.3-2.06,2,2,0,0,0-1.14-.34,10.18,10.18,0,0,0-1.13,2.35,18.39,18.39,0,0,0-.46,2.46C431.17,586.94,431,587.75,430.86,588.56Zm66-29.52c2,2.36,1.8,6.23,5.23,7.76C502.43,564.91,498.84,559.36,496.85,559Zm4.46,18.26c.71-3.91-.7-5.61-3.73-4.74C497.76,575.77,498.42,576.64,501.31,577.3Zm-24.13-6.89c-.28-1.68-.45-3.09-.77-4.46a5.09,5.09,0,0,0-1-1.43c-.45.4-1.07.72-1.32,1.22C473,568,473.53,568.81,477.18,570.41ZM427,591.74l.11,1.13c1.46,1.06,3.09,1.54,4.73.45.28-.18-.27-1.6-.43-2.44Zm-29-19c1.59-1.91,3.17-3.69,4.58-5.6.29-.39-.06-1.24-.15-2.43C400.07,567.54,397.5,569.4,398,572.77Zm33.35,7.34c-4.56,0-4.32-3.68-5.29-6.6a3.2,3.2,0,0,0-.35,2.12,38,38,0,0,0,2,4.63C428.7,582.11,429.83,582.08,431.36,580.11ZM290.89,144.19c-2,1.33-1.51,3-1.1,4.46.27.93,1.26,1.66,1.93,2.47l.64-.45C291.91,148.66,291.45,146.66,290.89,144.19ZM437.63,589.82c-2-2-3.51-1.1-5.05.3C434.06,592.06,435.38,592,437.63,589.82Zm64.44-27.42.6-.17v-4.51l-3.48,1.2ZM500.66,567l-1,.09c-.34,1.09-.67,2.19-1,3.27l2.95,1.49.58-.28ZM447.45,585.5l-1.17-.63L444.22,587l2.69,1.63ZM373.39,578l5.81-2.59C377.21,574.22,374.23,575.54,373.39,578Zm69.29,8.12-3.7,1.5v.77l4.67.84C443.24,587.86,443,587.14,442.68,586.07Zm41.79,0,4.87-1.85-.17-.65-3.38-.77Zm-45.34-30.89-.78-.17c0,1-.36,2.2.1,2.82s1.75.54,3.3.92c-.61-1.56-.9-2.31-1.29-3.29L439,556.83C439.07,556.11,439.1,555.65,439.13,555.19ZM408.7,581.45l-.39-5.18C406.19,578.12,406.2,579.08,408.7,581.45ZM281,588.12l1.1.15c.3-1.55.59-3.1.89-4.65l-.82-.16C281.45,585,279.87,586.25,281,588.12Zm211.19-14.81.92,1,3.67-3.39c-.22-.23-.44-.47-.67-.7Zm-339.51-8,1.13-.11c-.12-1.4-.25-2.8-.37-4.2l-.76,0Zm331.22-18-1,.27c.49,1.62,1,3.24,1.46,4.85l.84-.23Z"/><path class="cls-6" d="M367.25,269.8a8.3,8.3,0,0,0-1.93-9.29c-7.16-7.64-9.92-16.66-8.5-27,.15-1.13.4-2.24.61-3.37a1.79,1.79,0,0,0-1.16,1.26c-2.22,9.75-.8,18.82,5.31,26.89,2.52,3.34,5.74,6.26,5.07,11C366.64,269.39,366.86,269.49,367.25,269.8Z"/><path class="cls-6" d="M338,240.46l-.49-.29c-.54.71-1.11,1.4-1.6,2.13A47.61,47.61,0,0,1,325.19,254c-4.07,3.08-7.47,7.05-11.1,10.7-.38.39-.35,1.2-.5,1.82l.59.17a24.86,24.86,0,0,1,3.05-4.19c3.14-2.9,6.39-5.72,9.79-8.31,4.25-3.25,7.37-7.41,10.22-11.83A11.94,11.94,0,0,0,338,240.46Z"/><path class="cls-7" d="M393,599.63c-1.91,3.4-5,5.16-8.63,6.12a9,9,0,0,1-3.72.12c-2.51-.46-5-1.13-7.45-1.77a6.42,6.42,0,0,1-1.75-.84c-5.29-3.36-8-11-5.44-16.75.72-1.64,2.65-2.84,4.22-4a19.32,19.32,0,0,1,3.87-1.69c.22.88.4,1.58.79,3.1.75-4.83,4.7-4.36,7.3-5.63.93-.45,3.14.91,4.31,2,1.82,1.63,3.05,3.77,2.53,6.45-.05.23-.11.6,0,.68,3.43,2.46.74,6.62,2.61,9.54.22.35-.34,1.49-.83,1.93a25.8,25.8,0,0,1-3,2c-1.31.88-2.49,2.23-4.28.79-.28-.22-.93,0-1.42,0h-9.43c.72.48,1.36,1.26,2.06,1.32,2.32.17,4.67.09,7,.09.49,0,1.12-.31,1.43-.11,2.5,1.7,4-.3,5.77-1.43a31.82,31.82,0,0,1,4.11-1.86Zm-12.7-18.36-.89-.5a17.41,17.41,0,0,1-1.6,3c-1.18,1.44-2.35,3.38-3.92,3.91-2,.67-3.13,1.5-3.39,3.48-.29,2.14.37,3.75,2.59,4.62,1.74.69,3.58,1.35,4.15,3.61a2.49,2.49,0,0,0,2.12,1.09,34.38,34.38,0,0,0,5-1.66c1-.38,2.06-.81,3.06-1.27s2.45-.8,2.56-1.4a5.35,5.35,0,0,0-.86-3.48c-.56-.87-1.75-1.34-2.77-2.06,1.38-2,3.14-4.07.7-6.23-1.43-1.26-3.33-1.93-5.12-.7-.68.46-.92,1.57-1.36,2.39l.57.27c2.07-1.87,4-2.31,5.21-1,1.48,1.59.2,2.76-.83,4.07l-2.17-1.24c.49,2.64,2.53,3.25,3.81,4.55a13.36,13.36,0,0,1,1.74,3h-3.33l-.48,0c-1,2.4-3.14,3.06-5.34,3.54-.48.1-1.55-.4-1.59-.73-.34-2.58-2.57-2.42-4.18-3.32a5.4,5.4,0,0,1-2.3-3.26c-.3-1.4.74-2.39,2.31-2.89a6.86,6.86,0,0,0,3.33-2.21A43.36,43.36,0,0,0,380.25,581.27Zm-7.55,17.48c-.2-1.86-3.58-3.75-6.94-3.81Z"/><path class="cls-7" d="M474,584.62c-1.45,1.32-2.43,2.2-3.33,3l-2.58-9.33-1,.18c.08,1.21.22,2.41.24,3.61a2.5,2.5,0,0,1-3,2.76c-2.19-.34-4.38-.73-6.58-.85-3.76-.2-6.4-2.61-6.08-6.4.28-3.43.61-7.07,2-10.1.85-1.81,3.71-2.93,5.89-3.82a31.36,31.36,0,0,1,7-1.58,4,4,0,0,1,2.51.62,16.86,16.86,0,0,1,2.87,2.55,1.91,1.91,0,0,1,.59,1.41c-.55,2.48-.7,4.78,1.77,6.43.17.12.09.61.15,1.16l-2-.4c.52,2.44,1.8,2.57,4.36.59,3.16,1.66,1.63,4.77,1.55,7S475.52,584.57,474,584.62Zm-6.45-10.3c.67-5.08.67-5.08-.94-5.61-.36,1.77-.78,3.55-1,5.35a1.6,1.6,0,0,0,.65,1.4c2.26.81,4.58,1.47,6.88,2.18C472,575.16,469.57,575.25,467.52,574.32Zm-5-7.05.75-.12c-.46-1.29-1.3-1.85-2.26-.43a34.41,34.41,0,0,0-2.75,5.2c-.18.41.2,1.08.22,1.15a14.15,14.15,0,0,0,2.94-.9c.38-.21.52-1,.62-1.56C462.28,569.51,462.4,568.38,462.55,567.27Zm-4.67,7.78-.63-.53c-.53.78-1.7,1.86-1.49,2.28a12.44,12.44,0,0,0,3.15,4.51c1.44,1.14,4.17-.2,6-2.53-2,.46-3.89,1.38-5.64,1.17C457,579.68,456.5,577.31,457.88,575.05Z"/><path class="cls-7" d="M435.56,580.17c3.09.7,5.13-1,7.05-2.87.38-.37.42-1.08.62-1.64-.57,0-1.26-.2-1.67.06-2.14,1.3-4.24,2.36-6.74.92a2,2,0,0,0-1,0c-3.83.39-4.53-.14-4.72-4,0-.46.92-1,1.38-1.46a11.84,11.84,0,0,0,.81-1.15,2.39,2.39,0,0,0-2.93.38c-3.76,2.54-8.25-1.12-8.48-4.45-.06-.94.48-2.51,1.15-2.78,1.34-.54,2.94-1.2,4.37.49s3.36,3.29,6.1,3c.15,2.24,1.45,3.33,3.52,3.12a2.86,2.86,0,0,0,2.1-1.54c.54-2,.26-3.91-2.18-4.55,1.21-3.85,1.62-4.06,5.16-3.9,3.23.14,5.83,1.29,7.58,4a3,3,0,0,1,.61,2c-.54,2.1,0,4.32-1.33,6.43-.76,1.23-.39,3.29-.2,4.94.21,1.83-.07,2.94-2.16,3.21-2.39.3-4.74.9-7.13,1.2-.64.09-1.35-.45-2-.71Zm-3-7.77-.78.09.62,3a15.6,15.6,0,0,0,2.74-1,12.19,12.19,0,0,0,2-1.77l-.4-.45L433.14,575Zm8-2.24-.44.46c.88,1,1.71,2,2.66,2.93.22.22.83,0,1.25,0-.07-.41,0-1-.26-1.19C442.67,571.58,441.56,570.89,440.48,570.16Z"/><path class="cls-7" d="M432.16,566.24a49.29,49.29,0,0,1-5.3-3c-.45-.33-.68-2-.4-2.17,1.78-1.32.79-2.45.09-3.75a7.84,7.84,0,0,1-.46-2.1,8.62,8.62,0,0,1,2.13.32,6.08,6.08,0,0,1,3.63,4.5,9.08,9.08,0,0,0,1.15,2.14l.74-.22a19.63,19.63,0,0,0-.41-2.55c-1.13-3.86-.88-4.21,4-4.43Z"/><path class="cls-7" d="M451.91,563.26c-.64-1.39-1.46-3.16-2.39-5.19l4-.37-2.89-2.21,3-4.08c.42.89.88,1.38.84,1.84-.19,2.53,1.5,3.14,3.37,3s2.35,1.13,2.37,2.31c0,.63-1.12,1.49-1.91,1.89C456.29,561.45,454.18,562.27,451.91,563.26Z"/><path class="cls-6" d="M286.79,150.79c-2.78-1-5.65-1.74-8.18-3.09-2-1.07-1.7-2.76.5-3.41A41.27,41.27,0,0,1,286.2,143c1.16-.13,2,.42,1.62,2C287.4,146.68,287.2,148.43,286.79,150.79Z"/><path class="cls-7" d="M488,555.29v-8.87l1.81-.36c-.06-.39-.09-.62-.13-.86-.12-.85-.6-1.9-.26-2.49a2.32,2.32,0,0,1,2.25-.54,4.49,4.49,0,0,1,1.44,2.54,24,24,0,0,1,.06,3.29C493.43,551.82,492.35,553.4,488,555.29Z"/><path class="cls-6" d="M334.3,156.81a59.68,59.68,0,0,1-6.29-2.73c-.45-.26-.51-1.78-.27-2.58.73-2.48,4.09-3.87,6.56-3Z"/><path class="cls-7" d="M481.09,556.16c-.95-1.49-1.64-2.71-2.46-3.84s-1.16-2.42,0-3.69c.84-.92,1.56-2,2.41-3,.75,1.59.75,1.59-1,4.21l2.13-.88C484.47,552.6,483.86,555.8,481.09,556.16Z"/><path class="cls-7" d="M489,576.91c2.44.77,4.89,1.51,7.3,2.39a2.14,2.14,0,0,1-.12,1.68c-1.31,1-2.77,1.74-4.37,2.7l-3.49-5.86Z"/><path class="cls-7" d="M415.69,580.54c.16.86.33,1.72.48,2.54-1.32.95-3.76.21-4,3.39,2.82-2.13,5-1.47,6.8,1.38l-6-.57c-3.19-.29-1.79-3.25-2.71-5l1.25.64,4.24-2.34Z"/><path class="cls-7" d="M418.32,572.32a38.91,38.91,0,0,1,5.29,2.12c.72.4,1,1.62,1.45,2.49l-6.74.59Z"/><path class="cls-8" d="M187.53,609.83c-.29.31-.65,1-.95,1-.81-.08-2-.22-2.31-.76a7.71,7.71,0,0,1-1.31-3.82c0-.75,1.2-1.51,1.87-2.27.48.48,1.16.88,1.39,1.46C186.75,606.75,187.06,608.18,187.53,609.83Z"/><path class="cls-7" d="M416.91,573.87c.67,1.86.59,3.36-1.46,4.36-.61.3-1,1-1.58,1.41a12.9,12.9,0,0,1-1.43.86,4.26,4.26,0,0,1-.38-1.49A6.52,6.52,0,0,1,416.91,573.87Z"/><path class="cls-7" d="M399.33,575.81l2,1.06L398.88,580c-1.06-3.06.77-9,3-10.6a3.44,3.44,0,0,1,1.29-.27c0,.5.19,1.14,0,1.48C402,572.31,400.7,574,399.33,575.81Z"/><path class="cls-7" d="M408.86,588.33c-1.14,2.08-2.2,4.22-3.49,6.2-.25.38-1.4.18-2.14.25a7.18,7.18,0,0,1,.44-2,31,31,0,0,1,2.41-3.57,14,14,0,0,1,1.73-1.62Z"/><path class="cls-7" d="M480.58,543.83c-.3-1.32-.46-2-.74-3.22l-2,4.41c-1.31-2.46.58-6.28,2.77-6.82.32-.08,1.38,1,1.33,1.5A23.06,23.06,0,0,1,480.58,543.83Z"/><path class="cls-9" d="M337.65,156.28c-2.1-4.61-1.56-7,1.58-6.95C338.59,151.57,340.49,154.25,337.65,156.28Z"/><path class="cls-7" d="M430.86,588.56c.15-.81.31-1.62.45-2.42a18.39,18.39,0,0,1,.46-2.46,10.18,10.18,0,0,1,1.13-2.35,2,2,0,0,1,1.14.34,12.34,12.34,0,0,1-.3,2.06,17,17,0,0,1-.47,2.78A16.09,16.09,0,0,1,432,589Z"/><path class="cls-7" d="M496.85,559c2,.32,5.58,5.87,5.23,7.76C498.65,565.27,498.89,561.4,496.85,559Z"/><path class="cls-7" d="M501.31,577.3c-2.89-.66-3.55-1.53-3.73-4.74C500.61,571.69,502,573.39,501.31,577.3Z"/><path class="cls-7" d="M477.18,570.41c-3.65-1.6-4.16-2.38-3-4.67.25-.5.87-.82,1.32-1.22a5.09,5.09,0,0,1,1,1.43C476.73,567.32,476.9,568.73,477.18,570.41Z"/><path class="cls-7" d="M427,591.74l4.41-.86c.16.84.71,2.26.43,2.44-1.64,1.09-3.27.61-4.73-.45Z"/><path class="cls-7" d="M398,572.77c-.51-3.37,2.06-5.23,4.43-8,.09,1.19.44,2,.15,2.43C401.18,569.08,399.6,570.86,398,572.77Z"/><path class="cls-7" d="M431.36,580.11c-1.53,2-2.66,2-3.61.15a38,38,0,0,1-2-4.63,3.2,3.2,0,0,1,.35-2.12C427,576.43,426.8,580.1,431.36,580.11Z"/><path class="cls-9" d="M290.89,144.19c.56,2.47,1,4.47,1.47,6.48l-.64.45c-.67-.81-1.66-1.54-1.93-2.47C289.38,147.22,288.93,145.52,290.89,144.19Z"/><path class="cls-7" d="M437.63,589.82c-2.25,2.18-3.57,2.24-5.05.3C434.12,588.72,435.65,587.84,437.63,589.82Z"/><path class="cls-7" d="M502.07,562.4l-2.88-3.48,3.48-1.2v4.51Z"/><path class="cls-7" d="M500.66,567l1.56,4.57-.58.28-2.95-1.49c.34-1.08.67-2.18,1-3.27Z"/><path class="cls-7" d="M447.45,585.5l-.54,3.17L444.22,587l2.06-2.17Z"/><path class="cls-7" d="M373.39,578c.84-2.41,3.82-3.73,5.81-2.59Z"/><path class="cls-7" d="M442.68,586.07c.34,1.07.56,1.79,1,3.11l-4.67-.84v-.77Z"/><path class="cls-7" d="M484.47,586.08l1.32-3.27,3.38.77.17.65Z"/><path class="cls-7" d="M439.13,555.19c0,.46-.06.92-.1,1.64l1.43-1.36c.39,1,.68,1.73,1.29,3.29-1.55-.38-2.85-.33-3.3-.92s-.1-1.85-.1-2.82Z"/><path class="cls-7" d="M408.7,581.45c-2.5-2.37-2.51-3.33-.39-5.18Z"/><path class="cls-4" d="M281,588.12c-1.1-1.87.48-3.17,1.17-4.66l.82.16c-.3,1.55-.59,3.1-.89,4.65Z"/><path class="cls-7" d="M492.16,573.31l3.92-3.14c.23.23.45.47.67.7l-3.67,3.39Z"/><path class="cls-4" d="M152.65,565.31v-4.26l.76,0c.12,1.4.25,2.8.37,4.2Z"/><path class="cls-7" d="M483.87,547.29l1.26,4.89-.84.23c-.49-1.61-1-3.23-1.46-4.85Z"/><path d="M325,449.06c.58-4.39.85-9,5-11.59,2.77-1.74,5.78-3.41,9.36-1.72a2.34,2.34,0,0,0,2.06-.81c2.4-3.62,5.79-4.44,9.74-3.65a3.38,3.38,0,0,1,2,1.4c.21.38-.49,1.28-.78,1.95a16.31,16.31,0,0,0-1.11,2.63c-.92,3.81.92,9.22,4,11.21,1.08.7,2.57.74,3.79,1.26.74.32,1.95,1.09,1.89,1.5-.77,5.18-2.06,10.21-6.65,13.47a4.05,4.05,0,0,1-2.73.12c-1.1-.21-2.11-.92-3.2-1.05a2.69,2.69,0,0,0-2.08.86c-2.56,3.33-6.25,4.1-10.07,2.2C328.91,463.16,326,456.79,325,449.06Zm25.76-15.6c-4.54-.65-5.77-.21-8.43,3.36-1,1.36-1.95,1.69-3.47.83-.87-.5-2.12-1.08-2.93-.81-3.84,1.3-7.32,3.6-8.6,7.46-2.78,8.43,3,18.67,11.4,21.37,2,.62,3.84.25,4.83-1.18,2.13-3.06,4.72-2.81,7.73-2.05a3.94,3.94,0,0,0,3.09-.37c3-2.64,4.08-6.16,4.45-10C351.1,451.21,347.57,442,350.8,433.46Z"/><path d="M338,425.31c.23-3.43-.19-7,3.29-8.87a5.89,5.89,0,0,1,4-.06c.41.11.68,1.92.48,2.85A7.44,7.44,0,0,1,338,425.31Zm2-2.16c3.17-1.29,4.63-3.38,4-5.64C341.11,418.36,339.77,419.22,339.91,423.15Z"/><path d="M184,638.46c3,1.14,6.11.92,8.58,3.76,1.57,1.82,4.54,2.6,7,3.43s5.08,1,7.57,1.67c5.3,1.44,10.56,3,15.84,4.53l-.16,1.22a21.1,21.1,0,0,1-4.5-.05c-6.15-1.39-12.3-2.81-18.37-4.51-2.84-.79-6.07-1.64-8.09-3.55s-3.86-3.47-6.52-4.16c-.55-.14-1-.8-1.4-1.27C183.86,639.41,184,639.09,184,638.46Z"/><path d="M353.64,669.74c-1.7.71-3.37,1.5-5.11,2.09-1.29.43-2.82,1.14-4,.8-5.55-1.64-11.56-.86-16.94-3.76-2.47-1.32-5.81-1-8.75-1.43-2.61-.35-5.22-.6-7.82-1-.36-.05-.65-.55-1-.85.44-.23.89-.7,1.31-.67,5.21.39,10.44.64,15.61,1.38,2.64.38,5.11,1.89,7.75,2.49a46.3,46.3,0,0,0,10,1.48c2.31,0,4.6-1.31,6.94-1.84.69-.16,1.52.32,2.29.51C353.87,669.22,353.75,669.48,353.64,669.74Z"/><path d="M307.5,222.54c-6.68-.26-12.58-2.12-16.68-8-2.66-3.83-5.61-7.46-8.53-11.11a22.73,22.73,0,0,0-2.67-2.28,8.8,8.8,0,0,1-1-1.32c.53-.19,1.23-.7,1.57-.52,4.74,2.43,8.95,1,13.38-1.15,2.22-1.07,5-1.23,7.55-1.38,5.82-.35,11.7-.31,17.21,1.78a20.06,20.06,0,0,1,6.4,4.48c2.67,2.55,4.8,5.75,9.2,5.24.31,0,.8.59,1,1,.09.15-.31.81-.56.86-2.7.53-4.49,2.59-6.12,4.35C322.6,220.57,315.67,223,307.5,222.54Zm-15.33-12.25-.83.64c1.08,1.46,1.87,3.37,3.29,4.3,4,2.63,8.4,4.61,13.43,4.16a51.75,51.75,0,0,1,5.62-.65c5.47.14,9.53-2.46,13.33-6.36a7,7,0,0,0-2.07-.27c-4.47,1-8.92,2.06-13.39,3a8.35,8.35,0,0,1-3.33.16,91.36,91.36,0,0,1-9-2.22C296.84,212.33,294.53,211.23,292.17,210.29Zm29.79-.41c-2.23-3.67-24.32-6.63-29.87-4,2.05,1.78,4.47,1.67,6.85,2,4.21.59,8.4,1.41,12.56,2.3A18.53,18.53,0,0,0,322,209.88Zm-26.47-7.71a73.25,73.25,0,0,1,29.19,5c-3.07-3-6.47-5.21-10.89-5.46-1.89-.11-3.94-.06-5.6-.8C303.61,198.84,299.65,201.1,295.49,202.17Z"/><path d="M307.89,184.08c-3.82,1.43-7.5-3.41-6.77-7.49.42-2.32.67-5,3.59-5.79.54-.15,1.22.22,1.84.35-.33.45-.56,1-1,1.31-2.44,1.5-2.68,4-2.6,6.38a4,4,0,0,0,3.44,4.1C306.84,183,307.2,183.54,307.89,184.08Z"/><path d="M310,178.39a33.47,33.47,0,0,1,4.25,1.79c.36.2.37,1.31.22,1.92-.06.22-1.08.24-1.66.26a15.86,15.86,0,0,1-2.58-.06,4.51,4.51,0,0,1-2.26-.66,2,2,0,0,1-.27-1.94C308.15,179.1,309.09,178.87,310,178.39Z"/><path d="M282.06,192.66c-.11,2.07-1.76,2.71-3.08,3.65s-2.48,1.87-3.66,2.77C274.79,196.81,277.93,193.64,282.06,192.66Z"/><path d="M333.72,201.06c2.76.7,3.85,4.57,2.17,7.19C335.16,205.81,334.5,203.62,333.72,201.06Z"/><path d="M317.19,191.89a5.73,5.73,0,0,1,.14,1.67,5.51,5.51,0,0,1-.77,1.29c-.36-.34-.93-.62-1-1a5.31,5.31,0,0,1-.15-2.37,5.77,5.77,0,0,1,1.05-1.69,15,15,0,0,1,.78,1.68C317.29,191.71,317.18,192.06,317.19,191.89Z"/><path d="M294.77,185.25c-1.54.8-2.86,1.52-4.23,2.12-.09,0-.55-.75-.84-1.15,1.41-.72,2.81-1.44,4.24-2.12A8,8,0,0,1,294.77,185.25Z"/><path d="M310.63,188.49c1.95,2,1.67,3.38-.9,5.15C310.09,191.56,310.36,190,310.63,188.49Z"/><path d="M466.48,553.49c.44-5.35-1.64-10.72.9-15.84a8,8,0,0,1,5.22,8.18c-.07,1.21-.19,2.42-.31,3.62-.25,2.41-1.4,3.5-3.86,3.72C467.83,553.23,467.24,553.36,466.48,553.49Z"/><path d="M310.77,581.36c4.45,1,6.38,7.42,3.41,9.37C314.88,586.75,313.23,583.91,310.77,581.36Z"/><path d="M471.44,553.48l2.14,1.91-1.46,3C469.55,556.55,469.32,555.62,471.44,553.48Z"/><path d="M228.69,178.08c-1.88,6-4.47,12.14-5.68,18.57S222,209.83,221.53,216C218.28,211.36,222.42,184.93,228.69,178.08Z"/><path d="M244.29,259.53c.22-4.25.75-8.52.56-12.75s-1.13-8.5-1.79-13.1C246,236.76,246.92,252.42,244.29,259.53Z"/><path d="M241.84,235.15c1.45,7.1,2.3,14.2.63,21.33l-.63,0Z"/><path d="M190.28,241.85c-4.75-8.71,4-35.19,13.82-42.1C193.45,211.8,189.19,225.93,190.28,241.85Z"/><path d="M194.33,235.07c-2.55-7,4.95-28.25,11.5-32.3A56.74,56.74,0,0,0,194.33,235.07Z"/><path d="M367.25,269.8c-.39-.31-.61-.41-.6-.49.67-4.77-2.55-7.69-5.07-11-6.11-8.07-7.53-17.14-5.31-26.89a1.79,1.79,0,0,1,1.16-1.26c-.21,1.13-.46,2.24-.61,3.37-1.42,10.35,1.34,19.37,8.5,27A8.3,8.3,0,0,1,367.25,269.8Z"/><path d="M338,240.46a11.94,11.94,0,0,1-.78,1.91c-2.85,4.42-6,8.58-10.22,11.83-3.4,2.59-6.65,5.41-9.79,8.31a24.86,24.86,0,0,0-3.05,4.19l-.59-.17c.15-.62.12-1.43.5-1.82,3.63-3.65,7-7.62,11.1-10.7a47.61,47.61,0,0,0,10.74-11.71c.49-.73,1.06-1.42,1.6-2.13Z"/><path d="M380.25,581.27a43.36,43.36,0,0,1-3,5.63,6.86,6.86,0,0,1-3.33,2.21c-1.57.5-2.61,1.49-2.31,2.89a5.4,5.4,0,0,0,2.3,3.26c1.61.9,3.84.74,4.18,3.32,0,.33,1.11.83,1.59.73,2.2-.48,4.37-1.14,5.34-3.53a3.88,3.88,0,0,1,.48,0h3.33a13.36,13.36,0,0,0-1.74-3c-1.28-1.3-3.32-1.91-3.81-4.55l2.17,1.24c1-1.31,2.31-2.48.83-4.07-1.22-1.3-3.14-.86-5.21,1l-.57-.27c.44-.82.68-1.93,1.36-2.39,1.79-1.23,3.69-.56,5.12.7,2.44,2.16.68,4.21-.7,6.23,1,.72,2.21,1.19,2.77,2.06a5.35,5.35,0,0,1,.86,3.48c-.11.6-1.64,1-2.56,1.4s-2,.89-3.06,1.27a34.38,34.38,0,0,1-5,1.66,2.49,2.49,0,0,1-2.12-1.09c-.57-2.26-2.41-2.92-4.15-3.61-2.22-.87-2.88-2.48-2.59-4.62.26-2,1.4-2.81,3.39-3.48,1.57-.53,2.74-2.47,3.92-3.91a17.41,17.41,0,0,0,1.6-3Z"/><path d="M372.7,598.75l-6.94-3.81C369.12,595,372.5,596.89,372.7,598.75Z"/><path d="M467.52,574.32c2.05.93,4.49.84,5.55,3.32-2.3-.71-4.62-1.37-6.88-2.18a1.6,1.6,0,0,1-.65-1.4c.26-1.8.68-3.58,1-5.35C468.19,569.24,468.19,569.24,467.52,574.32Z"/><path d="M462.55,567.27c-.15,1.11-.27,2.24-.48,3.34-.1.56-.24,1.35-.62,1.56a14.15,14.15,0,0,1-2.94.9c0-.07-.4-.74-.22-1.15a34.41,34.41,0,0,1,2.75-5.2c1-1.42,1.8-.86,2.26.43Z"/><path d="M457.88,575.05c-1.38,2.26-.88,4.63,1.39,4.9,1.75.21,3.65-.71,5.64-1.17-1.83,2.33-4.56,3.67-6,2.53a12.44,12.44,0,0,1-3.15-4.51c-.21-.42,1-1.5,1.49-2.28Z"/><path d="M432.53,572.4l.61,2.6,3.55-2.65.4.45a12.19,12.19,0,0,1-2,1.77,15.6,15.6,0,0,1-2.74,1l-.62-3Z"/><path d="M440.48,570.16c1.08.73,2.19,1.42,3.21,2.23.25.2.19.78.26,1.19-.42,0-1,.19-1.25,0-.95-.91-1.78-1.94-2.66-2.93Z"/><path class="cls-10" d="M292.17,210.29c2.36.94,4.67,2,7.1,2.79a91.36,91.36,0,0,0,9,2.22,8.35,8.35,0,0,0,3.33-.16c4.47-1,8.92-2.06,13.39-3a7,7,0,0,1,2.07.27c-3.8,3.9-7.86,6.5-13.33,6.36a51.75,51.75,0,0,0-5.62.65c-5,.45-9.4-1.53-13.43-4.16-1.42-.93-2.21-2.84-3.29-4.3Z"/><path class="cls-6" d="M322,209.88a18.53,18.53,0,0,1-10.46.3c-4.16-.89-8.35-1.71-12.56-2.3-2.38-.34-4.8-.23-6.85-2C297.64,203.25,319.73,206.21,322,209.88Z"/><path class="cls-10" d="M295.49,202.17c4.16-1.07,8.12-3.33,12.7-1.29,1.66.74,3.71.69,5.6.8,4.42.25,7.82,2.43,10.89,5.46A73.25,73.25,0,0,0,295.49,202.17Z"/><line class="cls-11" x1="383.32" y1="555.49" x2="385.98" y2="564.26"/></g><g id="Layer_2" data-name="Layer 2"><path class="cls-12" d="M162.19,387.79c-.78-3.59,1.55-5,4.12-6.22a124.14,124.14,0,0,1,30.86-10.72c9.05-1.81,17.94-4.34,27-6.36,7.89-1.77,15.84-3.25,23.76-4.9,14.84-3.09,29.66-6.26,44.51-9.32,15.56-3.2,31.16-6.18,46.69-9.53,6.71-1.45,13.22-3.8,19.9-5.4,10.71-2.56,21.49-4.84,32.24-7.24,5-1.13,10.1-2.31,15.17-3.36,7.44-1.54,14.9-3,22.36-4.45,3.94-.78,7.9-1.46,11.85-2.25a21.73,21.73,0,0,0,2.76-.91c2.49-.83,4.95-1.8,7.49-2.43,1.72-.43,3.25.13,3.61,2.23.54,3.18,1.09,6.37,1.59,9.56.9,5.75,1.63,11.54,2.68,17.27,1.42,7.71,3.08,15.39,4.63,23.08,2.83,14.05,5.51,28.13,8.52,42.13q4.37,20.29,9.37,40.46c1.36,5.48,3.65,10.73,5.46,16.1,3.11,9.28,6.47,18.49,9.17,27.89,1.73,6,2.45,12.38,3.62,18.59a7.35,7.35,0,0,0,.41,1.63c1.32,3,1.4,3.18-1.58,4.46-5,2.14-10.05,4-15.07,6-13.13,5.26-27.07,7.64-40.64,11.3-15.47,4.17-31,8.3-46.37,12.69-12,3.4-23.83,7.26-35.79,10.76-10.79,3.15-21.66,6-32.46,9.17-1.83.53-4.14.4-5.08,2.78-.12.31-1.16.37-1.77.34-4.14-.17-8.06.69-10.75,4-2.94,3.6-6.56,3.42-10.42,2.7a35.2,35.2,0,0,1-5.61-1.51,12.28,12.28,0,0,0-14.25,4.72,3,3,0,0,1-1.74,1c-13.06,2.8-26.09,5.71-39.2,8.25-6.73,1.3-13.58,2-20.4,2.78a23.73,23.73,0,0,1-6.26-.51,3.11,3.11,0,0,1-2.07-1.43,27.79,27.79,0,0,1-1.59-5.29c-2.07-10.16-4.45-20.27-6-30.5-1.64-10.88-4.87-21.3-7.85-31.81q-4.06-14.25-7.76-28.59c-4-15.37-7.93-30.75-11.61-46.19-1.37-5.72-1.64-11.7-2.91-17.46-1.39-6.22-3.37-12.31-5.08-18.46-.72-2.57-1.59-5.12-2.13-7.73C164.32,399.37,163.29,393.57,162.19,387.79Z"/><path class="cls-8" d="M199.29,596.16a3.25,3.25,0,0,0,1.08,2.78c1.94,1.39,8.49-2.76,9.06-3,.77-.36-.46-2.93-1.25-3.18-1.46-.45-3.86.93-4.62,1.15S199.34,595.17,199.29,596.16Z"/><path class="cls-13" d="M330.13,435.84l4.11-.88c7.19-1.95,12.79,6.11,13.78,10.4l3.55,15.32a12.47,12.47,0,0,1-9.71,15l-1.53.3a12.64,12.64,0,0,1-14.8-9.53l-3.61-15.42C320.58,445.32,323,437.26,330.13,435.84Z"/><polygon class="cls-14" points="335.21 435.15 339.31 428.71 335.1 429.85 340.08 420.58 332.81 424.25 337.47 411.61 327.49 420.91 317.09 415.64 324.98 425.69 317.68 425.63 325.9 430.9 321.41 432.27 330.38 436.18 335.21 435.15"/></g></svg>