<svg xmlns="http://www.w3.org/2000/svg" viewBox="0 0 398.77 100.73"><defs><style>.cls-1{fill:#ffd405;}.cls-2{fill:#010101;}</style></defs><g id="Layer_2" data-name="Layer 2"><g id="Layer_1-2" data-name="Layer 1"><path class="cls-1" d="M246.23,44.53c.86-1.33,1.29-2,2.15-3.35l-1.4,0Z"/><path class="cls-1" d="M265.83,32.2a6.9,6.9,0,0,0,.25-1.37c0-.46.05-.91.05-1.35a22.69,22.69,0,0,0-.28-3.65,15.62,15.62,0,0,0-.77-3.07,5.76,5.76,0,0,0-1.28-2.09,2.17,2.17,0,0,0-1.72-.7l-25.35,1.66q-6.1,24.84-12.45,49.61l12.4.6q4.31-17,8.45-34l6.7-.19c-3.68,5.77-5.52,8.6-9.2,14.15l-.7,2.8,10.45.1c.33-.37.84-1,1.52-1.87s1.45-1.9,2.3-3.09,1.77-2.5,2.73-4,1.89-3,2.77-4.55,1.69-3.12,2.43-4.67A31.25,31.25,0,0,0,265.83,32.2Z"/><path class="cls-1" d="M280.48,52.37l11.95,0c1.12-5.16,1.68-7.76,2.8-13l-11.85.26.6-2.91,11.95-.34c1.64-7.53,2.46-11.32,4.1-19l-24.55,1.62q-6.11,27-12.45,54l22.15,1.07c2.4-6.45,3.6-9.72,6-16.33l-11.85-.17Z"/><path class="cls-1" d="M104.79,49l-.2-.18q2.1-15.36,4.25-30.72l-12.55-.82q-3.57,26.6-7.05,53.21V71a5.75,5.75,0,0,0,.55,2.94,6.59,6.59,0,0,0,1.1,1.38l14.39-.7a2.21,2.21,0,0,0,1.63-1.2A16.59,16.59,0,0,0,108.24,71q11.9-29.11,24.64-57.85l-12.5-1Q112.37,30.49,104.79,49Z"/><path class="cls-1" d="M180.88,22.87l-12.5-.82c-4.27,16.67-8.38,33.37-12.44,50.09L180.39,71c1.48-5.74,2.22-8.58,3.7-14.22l-11.86.17Q176.48,39.88,180.88,22.87Z"/><path class="cls-1" d="M227.13,23.92a3.42,3.42,0,0,0-1-1.14,1.76,1.76,0,0,0-1.18-.37l-19.74,1.3a6.26,6.26,0,0,0-3.85,1.77,8.59,8.59,0,0,0-2.51,4.08q-4.74,17.24-9.29,34.52a11.05,11.05,0,0,0-.25,1.89,5.45,5.45,0,0,0,.9,3.14,2.63,2.63,0,0,0,2.44,1.25,169.06,169.06,0,0,1,19.75.31,3.41,3.41,0,0,0,1.73-.46,10.08,10.08,0,0,0,1.8-1.28,8.76,8.76,0,0,0,1.53-1.78,6.6,6.6,0,0,0,.89-2q4.91-18.53,9.6-37.1l.05-.61a7.2,7.2,0,0,0-.25-1.91A7.36,7.36,0,0,0,227.13,23.92ZM214.68,40.34c-1.56,6-2.34,9-3.9,14.89a2.72,2.72,0,0,1-.52.9c-.28.35-.51.53-.68.52l-4.65-.06c-.36,0-.55-.37-.55-1.08a1.65,1.65,0,0,1,.11-.57c1.58-5.83,2.37-8.78,3.95-14.72a2.18,2.18,0,0,1,.39-.92.94.94,0,0,1,.75-.42l4.65-.13c.41,0,.61.25.61.79A1.47,1.47,0,0,1,214.68,40.34Z"/><path class="cls-1" d="M64.74,15.23Q58.4,46.18,52.29,77.16l22.15-1.08c2.4-7.2,3.6-10.77,6-17.82l-11.85.18,1.15-5.89,12,0c1.12-5.43,1.68-8.13,2.8-13.51l-11.85-.26.6-3.14,12,.34c1.64-7.7,2.46-11.52,4.1-19.09Z"/><path class="cls-1" d="M141.44,52.28l11.95,0,2.79-11.64-11.84-.26.6-2.71,11.95.34c1.64-6.63,2.46-9.91,4.1-16.41L136.43,20Q130.08,46.79,124,73.69l22.15-1.08c2.4-6.24,3.6-9.32,6-15.41l-11.85.18C140.75,55.33,141,54.31,141.44,52.28Z"/><path class="cls-1" d="M56.07,7.64a7.26,7.26,0,0,0-1.35-2.16,2.55,2.55,0,0,0-1.63-.91L18.6,1.68Q9.68,48.93,1.2,96.26l34.29-2.61A4.75,4.75,0,0,0,38,92.47a14.81,14.81,0,0,0,2.57-2.74,23.7,23.7,0,0,0,2.17-3.63A15.4,15.4,0,0,0,44,82.35q6.54-33.54,13.3-67A9.33,9.33,0,0,0,57.34,14,15.74,15.74,0,0,0,57,10.62,15.81,15.81,0,0,0,56.07,7.64ZM38.79,35.21c0,.08,0,.1,0,.1v.3Q35.95,49.82,33.2,64a5.47,5.47,0,0,1-.7,1.71c-.37.61-.66.92-.85.93L24,66.89q3.2-17,6.45-34l7.64.23c.5,0,.75.5.75,1.41A2.72,2.72,0,0,1,38.79,35.21Z"/><path class="cls-1" d="M370.58,78.32l12.49.61c1.48-7.81,2.22-11.74,3.7-19.66l-12.5-.18C372.8,66.83,372.06,70.68,370.58,78.32Z"/><path class="cls-1" d="M377.17,43.69l-.25,9,9.6,0c1.3-3.71,2-5.58,3.25-9.33v.1q3.32-18.34,6.55-36.71l-12.49.91Q380.53,25.73,377.17,43.69Z"/><path class="cls-1" d="M317.68,39.74,317,43.4l2-3.69Z"/><path class="cls-1" d="M371.63,34.3c1.63-8.67,2.45-13,4.09-21.81L353.13,14a4.94,4.94,0,0,0-2.78,1.29,15.25,15.25,0,0,0-2.73,3.12,24.57,24.57,0,0,0-2.32,4.37,29,29,0,0,0-1.58,5c-.06.32-.14.84-.24,1.55a13.14,13.14,0,0,0-.15,1.81v.2q4.11,13.66,8.1,27.38l-13.85-.2c-1.28,6.25-1.92,9.36-3.19,15.54.32,1,.48,1.51.81,2.52l21.38,1a4.16,4.16,0,0,0,2.74-1.1,14.71,14.71,0,0,0,2.78-3,24.27,24.27,0,0,0,3.83-9.37c.06-.33.14-.84.22-1.54a16.12,16.12,0,0,0,.12-1.84v-.2c-2.84-10.5-4.26-15.69-7.09-25.92Z"/><path class="cls-1" d="M334.58,35.25a9.65,9.65,0,0,0,.7-2c.19-.79.36-1.51.5-2.14v-.1s.05,0,.05-.09l.15-.57.2-1a14.69,14.69,0,0,0,.3-3,25.59,25.59,0,0,0-.3-3.86,23.38,23.38,0,0,0-.82-3.58,9,9,0,0,0-1.28-2.62,1.93,1.93,0,0,0-1.65-.92l-25,1.64Q301.34,45.85,295,74.66l12.4.6q4.29-19.68,8.45-39.39l6.5-.18c-3.6,6.65-5.4,9.92-9,16.35l-.05.36a.67.67,0,0,1,0,.28,4.14,4.14,0,0,0-.05.8,7.25,7.25,0,0,0,.12,1.36l.28,1.36c.06.31.12.58.15.82a4.74,4.74,0,0,0,.1.55v-.09c2.48,7.27,3.72,11,6.2,18.4l13.05.63.27-1.3c-3.07-9.5-4.6-14.18-7.67-23.41C329.24,45.29,331,42,334.58,35.25Z"/><path class="cls-2" d="M59.5,17.83V17A20.07,20.07,0,0,0,59,12.72a15.32,15.32,0,0,0-1.25-3.65c-.24-.48-.36-.72-.59-1.2a12.1,12.1,0,0,0-1.76-3.34A3.37,3.37,0,0,0,53.09,3l-35-3Q8.82,49,0,98l.4,0,1.35,2.73,35.24-3a4.85,4.85,0,0,0,2.63-1.3,16.55,16.55,0,0,0,2.73-3,26.06,26.06,0,0,0,2.32-3.93,16.92,16.92,0,0,0,1.42-4.09Q52.61,52,59.39,18.59A5.51,5.51,0,0,0,59.5,17.83Zm-2.21-2.52q-6.78,33.49-13.3,67a15.4,15.4,0,0,1-1.3,3.75,23.7,23.7,0,0,1-2.17,3.63A14.81,14.81,0,0,1,38,92.47a4.75,4.75,0,0,1-2.46,1.18L1.2,96.26Q9.69,48.92,18.6,1.68L53.09,4.57a2.55,2.55,0,0,1,1.63.91,7.26,7.26,0,0,1,1.35,2.16,15.81,15.81,0,0,1,.92,3A15.74,15.74,0,0,1,57.34,14,9.33,9.33,0,0,1,57.29,15.31Z"/><path class="cls-2" d="M38.09,33.12l-7.64-.23q-3.25,17-6.45,34l7.65-.21c.19,0,.48-.32.85-.93A5.47,5.47,0,0,0,33.2,64q2.74-14.22,5.55-28.43v-.3s0,0,0-.1a2.72,2.72,0,0,0,.05-.68C38.84,33.62,38.59,33.14,38.09,33.12ZM32.45,63.66a3.27,3.27,0,0,1-.36,1c-.16.3-.31.46-.44.46L27,65.2q2.64-14,5.35-28l5.19.12C35.48,47.79,34.47,53.05,32.45,63.66Z"/><path class="cls-2" d="M91.74,18.53,90.39,16l.1-.52L64.24,13.7q-6.64,32.49-13,65.05l.4,0,1.35,2.53,23.45-1.32c2.72-8.13,4.08-12.15,6.8-20.08l-1.45-2.34.25-.74-10.45.13,0-.36,12.1-.14c1.3-6.37,2-9.53,3.25-15.82l-.4-.74.65,0C89,31.25,89.92,27,91.74,18.53ZM85.19,35.94l-12-.34-.6,3.14L84.49,39c-1.12,5.38-1.68,8.08-2.8,13.51l-12,0-1.15,5.89,11.85-.18c-2.4,7.05-3.6,10.62-6,17.82L52.29,77.16q6.12-31,12.45-61.93l24.55,1.62C87.65,24.42,86.83,28.24,85.19,35.94Z"/><path class="cls-2" d="M134.29,12.6l.25-.63-14.6-1.2q-5.73,13-11.2,26.18c1-6.92,1.44-10.36,2.4-17.21l-1.4-2.41.1-.51-14.25-1Q92,43.07,88.44,70.28V71a8.77,8.77,0,0,0,.44,3.17,4.75,4.75,0,0,0,1,1.61c.39.66.58,1,1,1.65-.1-.18,0-.08.27.25s.51.63.68.86l0,.09s.06,0,.1.09l.29.33,14.55-.82a2.67,2.67,0,0,0,2-1.31,16.78,16.78,0,0,0,1.48-2.58q12.27-29.92,25.44-59.43C135.15,14,134.86,13.53,134.29,12.6Zm-26,58.4a16.59,16.59,0,0,1-1.33,2.39,2.21,2.21,0,0,1-1.63,1.2l-14.39.7a6.59,6.59,0,0,1-1.1-1.38A5.75,5.75,0,0,1,89.24,71v-.45q3.48-26.61,7.05-53.21l12.55.82q-2.15,15.36-4.25,30.72l.2.18q7.59-18.53,15.59-36.88l12.5,1Q120.1,41.89,108.24,71Z"/><path class="cls-2" d="M153.44,56.56l.25-.64-10.45.13,0-.31,12.09-.14c1.31-5.49,2-8.21,3.26-13.62-.16-.26-.24-.38-.41-.64l.66,0c1.82-7.41,2.73-11.08,4.54-18.33-.54-.86-.81-1.3-1.34-2.16l.09-.46-26.24-1.8q-6.66,28.2-13,56.47l.4,0,1.35,2.18,23.45-1.31c2.71-7,4.07-10.52,6.79-17.35C154.31,57.77,154,57.37,153.44,56.56Zm-7.3,16L124,73.69Q130.1,46.78,136.43,20L161,21.56c-1.64,6.5-2.46,9.78-4.1,16.41l-11.95-.34-.6,2.71,11.84.26-2.79,11.64-11.95,0c-.46,2-.69,3-1.15,5.1l11.85-.18C149.74,63.29,148.54,66.37,146.14,72.61Z"/><path class="cls-2" d="M185.28,55.55l-10.09.12c2.68-10.47,5.37-20.94,8.15-31.39L182,22.21l.09-.43-14.19-1q-6.67,26.3-13,52.64l.4,0,1.35,2L182.38,74c1.66-6.49,2.49-9.71,4.15-16.07l-1.35-2ZM180.39,71l-24.45,1.19c4.06-16.72,8.17-33.42,12.44-50.09l12.5.82q-4.41,17-8.65,34l11.86-.17C182.61,62.37,181.87,65.21,180.39,71Z"/><path class="cls-2" d="M214.23,38.75l-4.65.13a.94.94,0,0,0-.75.42,2.18,2.18,0,0,0-.39.92c-1.58,5.94-2.37,8.89-3.95,14.72a1.65,1.65,0,0,0-.11.57c0,.71.19,1.07.55,1.08l4.65.06c.17,0,.4-.17.68-.52a2.72,2.72,0,0,0,.52-.9c1.56-5.9,2.34-8.88,3.9-14.89a1.47,1.47,0,0,0,.16-.8C214.84,39,214.64,38.74,214.23,38.75Zm-4.2,16q-.19.72-.45.72l-2.54,0c1.4-5.13,2.1-7.71,3.49-12.92.17-.39.35-.59.55-.6l2.3,0C212,47.1,211.37,49.67,210,54.78Z"/><path class="cls-2" d="M230.18,29.72a8.08,8.08,0,0,0-1.3-4.7l-.8-1.08a6.37,6.37,0,0,0-1.35-2,2.24,2.24,0,0,0-1.75-.71l-19.74,1.35a7.12,7.12,0,0,0-4.38,2,9.29,9.29,0,0,0-2.73,4.68q-4.77,17.26-9.34,34.58a11.89,11.89,0,0,0-.25,2.18,8.55,8.55,0,0,0,.45,2.91,3.7,3.7,0,0,0,1.45,1.92l.8,1.11A3.6,3.6,0,0,0,192.46,73a3.18,3.18,0,0,0,1.73.33c7.89-.44,11.84.08,19.74.53a3.53,3.53,0,0,0,1.85-.52,9.43,9.43,0,0,0,2-1.47,12.28,12.28,0,0,0,1.7-2,6.42,6.42,0,0,0,1-2.14q4.94-18.7,9.65-37.46ZM228,28.1q-4.69,18.57-9.6,37.1a6.6,6.6,0,0,1-.89,2A8.76,8.76,0,0,1,216,68.93a10.08,10.08,0,0,1-1.8,1.28,3.41,3.41,0,0,1-1.73.46,169.06,169.06,0,0,0-19.75-.31,2.63,2.63,0,0,1-2.44-1.25,5.45,5.45,0,0,1-.9-3.14,11.05,11.05,0,0,1,.25-1.89q4.54-17.28,9.29-34.52a8.59,8.59,0,0,1,2.51-4.08,6.26,6.26,0,0,1,3.85-1.77L225,22.41a1.76,1.76,0,0,1,1.18.37,3.42,3.42,0,0,1,1,1.14,7.36,7.36,0,0,1,.65,1.66,7.2,7.2,0,0,1,.25,1.91Z"/><path class="cls-2" d="M266.13,39.54a35.73,35.73,0,0,0,1.8-4.62,7.41,7.41,0,0,0,.3-1.62c0-.52,0-1.06,0-1.61a26.24,26.24,0,0,0-.45-5A10.92,10.92,0,0,0,266.48,23l-.7-1a6.76,6.76,0,0,0-1.5-2.49,2.76,2.76,0,0,0-2.2-.79l-25.85,1.78q-6.37,26-13,51.94l.4,0,1.35,2.09,13.75.77c1.68-6.84,2.52-10.29,4.2-17.26l11.3.19q.45-.54,1.47-1.89c.69-.91,1.47-2,2.35-3.21s1.82-2.59,2.8-4.09,1.93-3,2.83-4.62S265.36,41.17,266.13,39.54Zm-7.2,6.28c-1,1.46-1.88,2.79-2.73,4s-1.62,2.22-2.3,3.09-1.19,1.5-1.52,1.87l-10.45-.1.7-2.8c3.68-5.55,5.52-8.38,9.2-14.15l-6.7.19q-4.15,17-8.45,34l-12.4-.6q6.39-24.76,12.45-49.61L262.08,20a2.17,2.17,0,0,1,1.72.7,5.76,5.76,0,0,1,1.28,2.09,15.62,15.62,0,0,1,.77,3.07,22.69,22.69,0,0,1,.28,3.65c0,.44,0,.89-.05,1.35a6.9,6.9,0,0,1-.25,1.37,31.25,31.25,0,0,1-1.7,4.4c-.74,1.55-1.55,3.12-2.43,4.67S259.9,44.36,258.93,45.82Z"/><path class="cls-2" d="M292.48,57.19l.25-.69-10.45-.13.05-.33,12.1.14c1.3-6.09,1.95-9.15,3.25-15.32l-.4-.7h.65c1.82-8.46,2.73-12.73,4.55-21.34l-1.35-2.3.1-.53L275,17.78q-6.39,28.32-13.05,56.58l.4,0,1.35,2.27L287.13,78c2.72-7.29,4.08-11,6.8-18.5Zm-7.3,17L263,73.12q6.35-27,12.45-54L300,17.47c-1.64,7.65-2.46,11.44-4.1,19L284,36.78l-.6,2.91,11.85-.26c-1.12,5.22-1.68,7.82-2.8,13l-11.95,0-1.15,5.32,11.85.17C288.78,64.47,287.58,67.74,285.18,74.19Z"/><path class="cls-2" d="M332.77,78c.13-.59.19-.89.31-1.48L320,75.88c-2.48-7.45-3.72-11.13-6.2-18.4v.09a4.74,4.74,0,0,1-.1-.55c0-.24-.09-.51-.15-.82l-.28-1.36a7.25,7.25,0,0,1-.12-1.36,4.14,4.14,0,0,1,.05-.8.67.67,0,0,0,0-.28l.05-.36c3.6-6.43,5.4-9.7,9-16.35l-6.5.18q-4.15,19.71-8.45,39.39l-12.4-.6q6.39-28.8,12.45-57.68l25-1.64a1.93,1.93,0,0,1,1.65.92,9,9,0,0,1,1.28,2.62,23.38,23.38,0,0,1,.82,3.58,25.59,25.59,0,0,1,.3,3.86,14.69,14.69,0,0,1-.3,3l-.2,1-.15.57c0,.06,0,.09-.05.09v.1c-.14.63-.31,1.35-.5,2.14a9.65,9.65,0,0,1-.7,2c-3.56,6.73-5.34,10-8.9,16.55,3.07,9.23,4.6,13.91,7.67,23.41.22-1.06.32-1.58.54-2.64-2.34-7.23-3.51-10.8-5.86-17.88,3.4-6.15,5.1-9.27,8.5-15.62h.05a10.88,10.88,0,0,0,.75-2.24c.23-1,.41-1.85.55-2.62h.05L338,34l.3-1.63a15.24,15.24,0,0,0,.35-3.52,28.24,28.24,0,0,0-.55-5.42,16.49,16.49,0,0,0-1.55-4.6l-.5-.91a11.05,11.05,0,0,0-1.55-3,2.38,2.38,0,0,0-2.05-1.08l-25.5,1.75Q300.54,45.82,293.88,76l.4,0,1.35,2.43,13.75.77c1.66-7.66,2.49-11.52,4.15-19.31,2.36,6.88,3.54,10.36,5.9,17.4h.25L321,79.87l13.5.75L333.18,78Z"/><path class="cls-2" d="M333.88,76.55l1.32.06c-.33-1-.49-1.51-.81-2.52C334.18,75.08,334.08,75.57,333.88,76.55Z"/><path class="cls-2" d="M373.62,38.58c1.82-9.73,2.73-14.64,4.55-24.52l-1.34-2.66c0-.24.05-.37.09-.61l-23.79,1.63a5.39,5.39,0,0,0-3,1.36,15.16,15.16,0,0,0-2.88,3.28,29.65,29.65,0,0,0-2.47,4.61,31.59,31.59,0,0,0-1.77,5.4h0v.57c-.07.44-.14,1-.23,1.69a15.75,15.75,0,0,0-.13,1.86v.48c2.94,10.06,4.41,15.16,7.35,25.5L337.08,57c-1.28,6.25-1.91,9.36-3.19,15.54-.22,1.06-.32,1.58-.54,2.64l-.27,1.3c-.12.59-.18.89-.31,1.48l.41,0,1.35,2.61,2,.12,21.55,1.2a4.34,4.34,0,0,0,2.85-1.07,13.93,13.93,0,0,0,2.87-3.12,23.6,23.6,0,0,0,2.45-4.56,27.79,27.79,0,0,0,1.62-5.4H368c.06-.4.14-1,.25-1.74a17.16,17.16,0,0,0,.14-2.24v-.61c-2.68-9.87-4-14.75-6.69-24.38Zm-7.35,22v.2a16.12,16.12,0,0,1-.12,1.84c-.08.7-.16,1.21-.22,1.54a24.27,24.27,0,0,1-3.83,9.37,14.71,14.71,0,0,1-2.78,3,4.16,4.16,0,0,1-2.74,1.1l-21.38-1-1.32-.06c.2-1,.3-1.47.51-2.46,1.27-6.18,1.91-9.29,3.19-15.54l13.85.2q-4-13.71-8.1-27.38v-.2a13.14,13.14,0,0,1,.15-1.81c.1-.71.18-1.23.24-1.55a29,29,0,0,1,1.58-5,24.57,24.57,0,0,1,2.32-4.37,15.25,15.25,0,0,1,2.73-3.12A4.94,4.94,0,0,1,353.13,14l22.59-1.49c-1.64,8.78-2.46,13.14-4.09,21.81l-12.45.35C362,44.88,363.43,50.07,366.27,60.57Z"/><path class="cls-2" d="M397.42,5.7l.1-.64-14.2,1.08q-3.44,18.74-6.95,37.46l-.25,10.75h.3l1.35,2.77,10.65.12c1.46-4.25,2.19-6.39,3.65-10.7l-.2-.32q3.48-18.88,6.9-37.78Zm-7.65,37.84v-.1c-1.3,3.75-1.95,5.62-3.25,9.33l-9.6,0,.25-9q3.36-18,6.66-35.95l12.49-.91Q393.08,25.19,389.77,43.54Z"/><path class="cls-2" d="M388,57.64l-14.2-.17c-1.72,9-2.58,13.51-4.3,22.4l.4,0,1.35,2.79,13.85.77c1.66-9,2.49-13.48,4.15-22.58l-1.35-2.62Zm-4.9,21.29-12.49-.61c1.48-7.64,2.22-11.49,3.69-19.23l12.5.18C385.29,67.19,384.55,71.12,383.07,78.93Z"/></g></g></svg>