<svg xmlns="http://www.w3.org/2000/svg" viewBox="0 0 730 598"><defs><style>.cls-1{fill:#c62786}.cls-3{fill:#ffce54}.cls-4{fill:#e2c0b0}.cls-5{fill:#e5c7b9}.cls-6{fill:#a0643e}.cls-7{fill:#fff}.cls-8{fill:#a0a0a0}.cls-9{fill:#404040}.cls-10{fill:#61534a}.cls-11{fill:#b9433a}.cls-16{fill:#2b7245}.cls-18{fill:#553b87}.cls-20{fill:#413c39}.cls-22{fill:#f4c9aa}.cls-23{fill:#c94833}.cls-24{fill:#f68e6f}.cls-25{fill:#8a644a}</style></defs><g id="Layer_2" data-name="Layer 2"><g id="Layer_1-2" data-name="Layer 1"><path class="cls-1" d="M526.2.09L318 0C199.06 42.69 114 156.4 114 290c0 170.1 137.9 308 308 308s308-137.9 308-308C730 156.47 645 42.81 526.2.09z"/><path class="cls-1" d="M315.88 0L427 .06V0H0v598h407.79-.46H427V.06zM183 598zm-88.4 0zm313 0z"/><g id="kläder"><path fill="#2c292e" d="M429.94 575.56l.74-16.16-3.25 3.72-7.03 1.93-41.69-.52-27.16-2.89-31.31-5.33-25.76-8.36-12.37-6.15-5.85-6.07-2.22 17.03-1.18 16.51-.46 28.66 2.28.05h154.49l.77-22.42z"/><path class="cls-3" d="M418.45 290.81l-6.48 5.46-4.37 7.26-1.42 7.27v10.26l1.42 7.88 43.77-9.51-3.74-7.72-4.66-6.7-6.81-4.77-10.79-6.02-6.92-3.41zM386.32 471.19l-29.44 15.91-39.31-1.32-2.83-9.26-8.54-35.28-4.31 15.79-.66 6.43-1.7 8.18-3.2 8.26-14.81 35.18-3.92 18.95 2.17 5.34 6.98 5.11 20.47 7.95 13.02 3.88 20.96 3.97 27.32 3.65 30.51 1.14 21.37-.02 7.03-1.93 4.42-5.57v-27.54l-2.44-20.27-2.71-16.22-5.21-28.55-.83-2.66-34.34 8.88M286.14 315.44l1.92 7.07.29 9.51-1.1 8.56-2.32 9.55-5.52 11.36-2.41 4.09-6.53-10.92-3.21-5.3 3.42-9.08 5.81-10.66 9.65-14.18z"/></g><g id="hud"><path class="cls-4" d="M267.7 350.34l9.75 15.4-.41 12.71 5.91-8.62v8.62l-.87 7.23-1.02 6.57-3.61 7.08-2.59 7.15-2.34 4.82 2.34 10.81 2.77 12.55 2.77 13.22 2.07 10.73 1.97 12.49 1.66 6.64 9.78 3.58 1.24 1.75 1.9 7.96.51 4.09h-2.34l-2.55-.88-1.53-3.21-1.39-.55-1.68 1.7 2.05 7.83 2.04 7.88 1.38 4.65-5.84 1.49-1.61 4.32-2.48 1.74-6.58-12.2-.93 1.81-.07 3.16.21 3.43.8 3.21 2.05 2.63.95 2.41-.44 3.58-1.8 1.02-.76 2.63-3.66-5.62-3.04-5.83-1.22-3.75.17-6.61-.11-6.55-.22-3.95-1.85-6.63-2.77-9.84-2.01-7.96-2.99-7.4-3.81-7.38-3.76-7.76-3.09-7.27-2.35-7.6-2.77-10.61-1.43-10.44.94-9.34 4.04-10.75 3.39-8.62 3.62-9.95 2.9-7.16 3.4-9.01 2.6-7.16 2.05-5.88.66 1.64z" id="Layer_5" data-name="Layer 5"/><path class="cls-5" d="M280.19 454.05l-3.19-7.36c1.09-.43 2-.59 2.3.4.64 2.21 1.06 4.47 1.58 6.71zM490.39 441.73l1.66 11.21.18 9.76v11.27l-1.14 4.76-7.94 2.37-14.45 4.77-14.66 2.53-10.91 1.88-17.15 2.28-22.37 4.75-11.82 1.64-16.12 1.03h-7.52l-4.46-1.58-3.17-2.61-2.12-.9-7.22.9-8.6.67-4.97-1.33-3.34 1.57-4.79.99-5.82.89-3.09-.18-4.67-2-1.16-.18-.45 1.03-2.44.44-2.73.41-2.31-1.03-2.42-3.69-2.25-6.25 2.92-1.76-.25-3.76 1.39-.55 2.25 3.04 1.16.92 3.75-1.47 2.24-.91 1.51 2.26 2.25.9 3.45-.49 4.61-.41 19.88-3.95 15.88-3.46-.12-2 5.83.79 4.9.18 5.81-3.21 5.33-.19 4.08 2.2 16.37-.73 10.39-4.96 22.04-9.77 2.39-3.24 17.6-5.74 32.59-9.09z"/><path class="cls-4" d="M385.05 180.71l-15.7-2.04-9.43 4.08-8.76 20.16-3.86 16.01-6.12 11.32-4 20.96.31 14.42 6.84 13.96-7.15 29.93 5.11 34.55 31.58-7.02-1.06-6.71 1.65-13.22 1.5-8.5 4.46-10.55-9.05 5.34 1.89-13.08 5.17-7.9 12.12-9.06 13.19-25.26-2.07-26.87-4.54-25.56-12.08-14.96z"/></g><g id="hår"><path class="cls-6" d="M373.87 337.04l33.73-8.1-2.27-19.96 5.44-10.72 7.45-9.01-7.81-8.91-4.23-14.18 5.17-25.7 2.37-13.02-.47-10.14-3.55-18.16-5.96-13.03-5.29-6.56-13.4-8.36.73 3.55.24 3.93-.97 2.04 5.69 5.17 3.92 7.1 3.19 8.99 2.73 8.89.59 7.58-.23 10.06 1.29 11.56-2 14.76-4.74 10.99-4.35 6.43-4.16 3.79-11.86 10.62-1.86 5.52-1.93 9.63 9.09-3.74-2.93 6.58-2.14 6.4-.89 6.07-1.2 8.97-.79 5.66 1.4 5.3z"/><path class="cls-6" d="M385.05 180.71l1.23-4.75-2.02-8.5-18.52-2.74-13.89 1.52-21.06 7.88-11.71 14.15-6.87 8.51L307 207.2l-4.14 13.49-2.36 12.45-1.65 13.63-1.18 10.83-5.05 6.98-2.67 8.04-.92 9.23.92 10.29 1.21 5.56-3.1 9.47-1.92 8.27 2.21 14.74-2.86 17.66-7.68 16.38-.77 14.23 5.91-8.62-1.89 22.42-4.73 10.26 7.02-4.27 5-7.77 4.85 11.41 2.66-.7-7.51-30.9-.56-11.03 12.43-6.32 41.1-9.56-.11-12.52-3.72-19.26 6.01-33.71-6.19-20.89 2.71-25.3 7.28-12.77 3.48-9.95 3.44-16.39 7.45-12.24 9.66-2.84 13.72 3.21z"/></g><g id="Layer_1-3" data-name="Layer 1"><path d="M386.32 472.73zM439.32 477.48zM425.69 488.83h.07v-.05z"/><path d="M492.42 447c-.43-2.42-.55-4.81.34-6.3a4.33 4.33 0 000-2.47c-.54-3.61-.76-7.32-1.73-10.82q-3.15-11.22-6.95-22.26a174.28 174.28 0 01-5.7-21.07c-2.33-11.31-4.85-22.57-7.24-33.86-1.21-5.76-2.26-11.54-3.36-17.32-.38-2-.7-4-1.07-6-.42-2.22-.73-4.48-1.32-6.66-1-3.57-3-4.88-6.53-4.31a42.84 42.84 0 00-5 1.38c-.86.24-1.82 1-2.31-.6a23.57 23.57 0 00-3.29-7A41.23 41.23 0 00436.39 299c-4.57-2.83-9.46-5.2-14.22-7.67-1.51-.77-2.08-2.14-3-3.33-1.45-1.85-3.32-3.37-4.84-5.16-1.95-2.34-3.82-4.72-4.69-7.75a36.71 36.71 0 01-.52-17.37c1.27-6.49 2.74-12.93 3.9-19.44a68.59 68.59 0 001.51-12.64 103.18 103.18 0 00-4.29-28.25c-2.21-7.45-5.83-14-11.79-19.08-2.29-1.92-5.18-3.15-7.66-4.9-2.13-1.51-4.88-2.42-5.79-5.32a1.32 1.32 0 00-.76-.63c-2.21-.85-4.43-1.71-6.68-2.48a32.78 32.78 0 00-5.5-1.63 34.25 34.25 0 00-7.89-.59 82.45 82.45 0 00-10 1.78c-3.34.71-6.61 1.71-10 2.31a32.45 32.45 0 00-13.88 5.47 34 34 0 00-9.15 9.75c-1.4 2.38-3.44 4.29-5 6.55a118.14 118.14 0 00-7.34 11.58 77.64 77.64 0 00-4.5 11.42c-2 5.94-4 11.88-4.9 18.11-.69 5-2.3 10-1.79 15.14a13.87 13.87 0 01-.27 3.75 28.41 28.41 0 01-1.35 6.32c-1.87 4.39-4.16 8.59-6.12 13a22.79 22.79 0 00-1.79 5.76c-1.09 6.88.35 13.66 1 20.47.19 1.89.66 4 .11 5.7-1.33 4.18-3 8.25-3.37 12.69a2 2 0 01-.37 1c-1.92 2.44-4.05 4.73-5.75 7.32-2.12 3.21-3.71 6.77-5.83 10-3.72 5.64-5.51 12.16-8.35 18.2-1 2-1.46 4.29-2.28 6.41-2.84 7.43-5.73 14.85-8.6 22.29-2.58 6.74-5.28 13.46-7.74 20.26-1.89 5.2-3.89 10.31-3.83 16.09a69.77 69.77 0 001.09 12.75c.66 3.39 1.69 6.8 2.62 10.05a67.24 67.24 0 003.05 9.68c3.34 7.23 7 14.35 10.56 21.54a55 55 0 013 6.76c.85 2.54 1.29 5.22 2 7.82 1.64 5.91 3.33 11.8 5 17.7a2 2 0 01.07.43q0 6.73.08 13.47a8.47 8.47 0 00.09 3c1.27 3.14 2.76 6.22 4.25 9.29.62 1.29 1.43 2.48 2.09 3.61a8.2 8.2 0 00-1.46 1.79 25.15 25.15 0 00-1 3.82c-.52 2.65-1.05 5.29-1.44 8a184.07 184.07 0 00-1.79 24.83c-.06 3.19-.24 6.36-.4 9.53-.14 2.9-.45 5.78-.45 8.67 0 3 .12 6.09.3 9.13.06.88.18 2.12 1.52 2s1.4-1.06 1.36-2.16c-.05-1.49.07-3 .11-4.47.11-4.8.16-9.66.35-14.34s.43-9.37.78-14c.52-6.59 1.11-13.21 1.71-19.77.11-1.34.39-2.67.59-4 .31.08.45.07.49.13a23.3 23.3 0 0010.27 7.52c5.62 2.27 11.41 4.19 17 6.44a113.94 113.94 0 0019.2 5.41c6.08 1.28 12.22 2.31 18.37 3.23 6.57 1 13.19 1.71 19.77 2.57 3.26.42 6.5 1.15 9.76 1.29 8.11.36 16.24.47 24.36.66 4.54.11 9.08.28 13.62.28 5.2 0 10.44.34 15.47-1.53a2.77 2.77 0 011-.15 2.13 2.13 0 002.36-1.68c.09-.33.44-.58.88-1.14.08.7.14 1 .14 1.24 0 4.06.09 8.12-.1 12.18-.33 7.49-.81 15-1.21 22.43h2.66c.17-.94.33-1.89.42-2.84.52-5.62 1.1-11.24 1.47-16.87.22-3.36.11-6.76.11-10.14 0-2.5-.16-5-.23-7.52a24.86 24.86 0 010-2.73c.37-4.57.95-9.13 1.19-13.71a95.34 95.34 0 00-1.11-19.24q-1.62-10.8-3.34-21.6c-.45-2.81-1.06-5.6-1.51-8.41-.05-.36.33-1.11.6-1.15 2.94-.55 5.89-1 8.84-1.47 2.64-.43 5.33-.87 8-1.26 3.72-.53 7.45-1 11.18-1.55 3.06-.41 6.21-.49 9.16-1.3 4.77-1.3 9.41-3.12 14.13-4.65 1.4-.46 2.95-.49 4.3-1.06 2.23-.93 4.37-2 7.29-1.37a28.32 28.32 0 001.16-4.77c.35-4.78.5-9.59.72-14.36a66.36 66.36 0 00-1.15-15.14zM454.1 320.93a11.66 11.66 0 001.64-.54c1.49-.49 2.95-1.07 4.47-1.45a1.57 1.57 0 012.15 1.33c.32 1.9.65 3.8.94 5.7.54 3.43 1 6.88 1.6 10.29.85 4.6 1.84 9.18 2.76 13.76 1.69 8.37 3.29 16.77 5.08 25.11q2.61 12.11 5.58 24.12c.82 3.26 2.18 6.39 3.26 9.59 1.85 5.53 3.86 11 5.47 16.63 1 3.6 1.46 7.38 2.15 11.08a4.77 4.77 0 00.25 1c.78 1.79.84 1.89-.94 2.66-3 1.25-6 2.38-9 3.57-7.82 3.16-16.13 4.56-24.22 6.74-9.22 2.48-18.45 4.95-27.64 7.56-7.14 2-14.18 4.33-21.33 6.42-6.43 1.88-12.91 3.6-19.35 5.46-1.09.32-2.47.24-3 1.66-.07.2-.69.2-1.05.2-2.47-.08-4.81.43-6.41 2.38-1.75 2.15-3.91 2-6.21 1.61a19.15 19.15 0 01-3.34-.9 7.34 7.34 0 00-8.5 2.82 1.74 1.74 0 01-1 .59c-7.79 1.67-15.55 3.41-23.37 4.92-4 .78-8.09 1.2-12.16 1.66a14.19 14.19 0 01-3.73-.31 1.8 1.8 0 01-1.23-.85 16.56 16.56 0 01-.95-3.15c-1.23-6.06-2.65-12.08-3.58-18.18-1-6.49-2.89-12.7-4.68-19q-2.41-8.49-4.62-17c-2.36-9.16-4.73-18.33-6.92-27.53-.82-3.41-1-7-1.74-10.41-.82-3.71-2-7.34-3-11-.43-1.53-1-3.05-1.27-4.61-.72-3.43-1.33-6.89-2-10.34-.46-2.14.93-2.95 2.43-3.69a74 74 0 0118.36-6.42c5.43-1.08 10.73-2.6 16.1-3.79 4.7-1.06 9.44-1.94 14.16-2.92 8.84-1.84 17.68-3.73 26.53-5.56 9.27-1.9 18.57-3.68 27.83-5.68 4-.83 7.88-2.26 11.86-3.22 6.38-1.52 12.81-2.88 19.21-4.31 3-.67 6-1.38 9-2 4.43-.92 8.88-1.79 13.32-2.66 2.37-.46 4.7-.87 7.09-1.34zM436.82 459a26.57 26.57 0 01-3.11 1.89c-5.26 2.29-10.55 4.49-15.81 6.75-4.36 1.88-8.69 3.89-13.11 5.68a16 16 0 01-4.17.71 28.4 28.4 0 01-5.29.35c-2.58-.22-5.28.84-7.75-.67-.34-.22-.64-.5-1.24-1 17.22-4.16 33.86-8.75 50.25-14.32zm-76.67 20.23c-.17.92-.35 1.85-.53 2.77l-.65-.09c-.68-1.12.27-1.86.7-2.78zm-42.58 12.11a1.94 1.94 0 011.12.56c1.93 2 5 1.33 7.6 1.7 3.94.57 3.09.76 7 1.46a2.1 2.1 0 01.5.24l-2.58 1.11a5.19 5.19 0 01-2.27.6 41.84 41.84 0 01-8.29.65 9 9 0 01-4.2-1.71c-2.38-.74-2.48-.43-4.54-1.54-.89-.79-2.19-.7-2.74-1.78a20.23 20.23 0 01-1.67-4.32c-.48-2-1.38-2.94-1.67-5 0-.33.32-.72.51-1.08l.46-.1 3.51 6.3c.14-.14.24-.32.33-.3a4.59 4.59 0 00-.28-.73c-.22-.78 0-1.16.78-1.38s1.9-.71 2.85-1.05c1.77-.64 2-.47 2.3 1.6-.6.21-1.25.4-1.84.63a4.14 4.14 0 00-1.13.57 7.19 7.19 0 01-1.19.31c-.31.08-.62.17-.92.27s-.38-.16-.58-.22-.26.29-.35.32a11.25 11.25 0 007.29 2.88zm-14-7.65c.15.72.23 1.46.35 2.18l-.52.19c-.56-.86-1.17-1.73-1.67-2.65a2.12 2.12 0 00-.95-1 .91.91 0 00-.63 0 .89.89 0 00-.56 1.13c.51 1.66 1 3.28 1.58 4.88.41 1.12.14 1.71-.82 2.06-1-3-2.79-5.83-2.72-8.63.15-3.15 2-6.22 3.2-9.3 0-.1.75-.1 1 .07a21.8 21.8 0 011.85 1.48c1-.3 1.39-.81.43-1.67a17.11 17.11 0 00-2-1.4c-1.67-1.09-1.37-2.67-1-4.2a33 33 0 011.19-3.19c1.36 1.16 2.58 2.23 3.84 3.24a6.14 6.14 0 001.3.6c.19-.51.65-1.11.51-1.49a5.41 5.41 0 00-1.27-1.66c-.11-.12-.36-.09-.55-.16-3.27-1.25-3.65-1.64-2.94-5.08.81-3.87 2-7.67 3-11.49a6 6 0 01.5-.89c.65 2.41 1.28 4.51 1.79 6.63q2 8.43 4 16.89c.77 3.34 1.44 6.7 2.18 10a1.59 1.59 0 01-.85 1.92c-1.42.87-2.78 1.84-4.22 2.8a29 29 0 00-2.09-3c-.59-.67-.76-2.3-2.41-1.27a16.22 16.22 0 00-1-2.06 1.13 1.13 0 00-.1-.13.76.76 0 00-.26-.16.85.85 0 00-1.07.5.57.57 0 000 .26c.26 1.61.63 3.08.93 4.59zm-.33 11.16c-.18.18-.39.6-.57.58-.48-.05-1.17-.13-1.38-.46a4.61 4.61 0 01-.78-2.27c0-.45.72-.9 1.12-1.36.28.28.69.53.83.87.33.79.54 1.65.8 2.63zm-22.05-47.52c-.94-4.57-2-9.13-2.95-13.71s-1.85-8.88-2.72-13.32c-.33-1.65-.47-3.34-.74-5a5.77 5.77 0 00-.44-1.35 3.75 3.75 0 01.2-3.67 28.21 28.21 0 001.9-5.12 4.65 4.65 0 012.38-2.94 23.16 23.16 0 004.86-2.78 31.58 31.58 0 003.84-4.8 18.29 18.29 0 001.1-1.92c.81 2.36 1.53 4.53 2.35 6.69a24.26 24.26 0 001.43 3.16c.82 1.45 1.25 1.43 2.16 0a3.21 3.21 0 00.22-.54l.38.18c.39 1.75.76 3.51 1.19 5.26 1.3 5.34 2.58 10.7 3.95 16 1.28 5 2.69 10 4 15a1.58 1.58 0 01-.08 1.19c-1.95 2.28-2.15 5.09-2.55 7.86-.35 2.24-.9 4.45-1.19 6.7a22.9 22.9 0 00-.28 5.61 11.21 11.21 0 01-1.37 6.38 4.22 4.22 0 00-.29 3.88 1.69 1.69 0 010 1.25c-1.24 2.5-2.54 5-3.88 7.41a1.3 1.3 0 01-1.2.27c-1.39-.46-2.74-1.4-4.17-1.51-2.47-.17-3.28-1.24-3.5-3.63-.37-4.12-1.07-8.22-1.79-12.3-.84-4.81-1.81-9.58-2.79-14.26zm2 20.92l-.68.06v-2.57h.46c.03.83.12 1.66.19 2.5zm-2.27-14.43l-.7.24-3.22-7.35c1.1-.44 2-.6 2.29.4.65 2.2 1.08 4.47 1.6 6.7zm44.39-128.47a60.8 60.8 0 003 14.55 49.2 49.2 0 011.05 4.85c-5 1.05-10 2.11-14.94 3.09-.28.06-.89-.44-1-.8-3.11-8.6-3-17.41-1.64-26.3.16-1 .29-2 .45-3 0-.13.14-.24.41-.67.76 1.61 1.33 3 2.06 4.25a15.35 15.35 0 001.79 2.15 10.78 10.78 0 00.81-2.57c.56-9.72.92-19.48 1.64-29.21.31-4.35 1.39-8.66 2.1-13 .17-1 .24-2 .39-3.33.41.35.62.43.67.57q2.16 5.9 4.29 11.81a25.61 25.61 0 011.05 11.88c-.73 5.79-1.79 11.54-2.39 17.34a47.28 47.28 0 00.23 8.38zM310.47 319c-1.36 7.54-1.9 15.12-.33 22.7a41.48 41.48 0 001.64 5.25c.37 1 .22 1.53-1 1.83Q305 350.3 299.26 352c-1.72.51-3.39 1.26-5.18 2 .06-1 .28-1.58 1.26-1.35s1.31-.26 1.47-1.09c.46-2.42.85-4.86 1.45-7.24a11.8 11.8 0 011.26-2.51 4.6 4.6 0 00.37-.6c1.53-4.57 3-9.17 4.6-13.7 2.13-5.89 2.69-12 3.32-18.19.05-.5.13-1 .2-1.5h.38c.25.84.48 1.68.75 2.52a7.06 7.06 0 00.73 1.88c1.6 2.12 1.02 4.42.6 6.78zm35.27 8.09c0 1.19-.11 2.38 0 3.58 0 .39.6 1 .91 1a1.83 1.83 0 001.42-.76 35.24 35.24 0 002.33-5.86 10.51 10.51 0 00-.27-3.83 103.64 103.64 0 00-5.73-24.18c-1.33-3.41.16-5.5 1.65-7.75 2.27-3.43 5.83-4.73 9.86-4.76a2.69 2.69 0 011.34.46 13.73 13.73 0 006.06 1.74c1.58.14 3.13.55 4.69.8 1 .16 2 .24 3.17.38.1.56.23 1.26.33 2 .05.29-.07.68.09.85 1.68 2 .16 4-.11 6-.27 2.19-1 4.28-1.19 6.52s-.05 4.54-.05 7c1.7-1.37 2.14-3.5 3.49-5.11s2.76-3.16 4.28-4.89c.18.43.3.58.26.65-1.07 2.78-2.3 5.51-3.21 8.35a42.61 42.61 0 00-1.36 6.63 61 61 0 00-.52 6.19c0 1.17-.68 1.57-1.64 1.88s-1.93.63-2.87 1a4.65 4.65 0 00-.89.53l.19.49 4.72-1.46c-.08 3.69-1.63 7.3.34 11L343 341.9a25.15 25.15 0 00.41-3.87c-.21-3.91-.42-7.82-.8-11.71-.17-1.71-.82-3.37-1.13-5.07-.35-2-.63-4.09-.94-6.21 1.51-.63 1.78-1.45.67-3a4.62 4.62 0 01-.68-3.77c.36-2.13.21-4.34.36-6.5a17.2 17.2 0 01.6-2.67 32.7 32.7 0 014.31 18.17c-.22 3.26-.06 6.56-.06 9.85zm51.54-5.09v.14c-.07 2.6.25 5.07 2.56 7.25-1.55.44-2.7.74-3.89 1-3.15.8-3.14.79-4.06-2.34-1.71-5.87-1.38-11.78-1.3-17.79.06-4.13 2.53-6.64 4.5-9.57 2.55-3.78 5-7.58 5.62-12.24 0-.06.13-.11.31-.26a9.09 9.09 0 011.07 8.6c-1.24 3.36-2.84 6.56-3.41 10.14-.21 1.34-1.43 2.58-1.49 3.9-.19 3.7.04 7.42.09 11.17zm-12.68-.4a20.46 20.46 0 011.34-6.13 42.29 42.29 0 012.8-5.54 6.11 6.11 0 01.85-.91 50.63 50.63 0 001.8 22.48c-2.13.57-4.19 1.14-6.27 1.67a.69.69 0 01-.59-.25 1.22 1.22 0 010-.8 7.7 7.7 0 00.59-1.73c-.12-2.97-.6-5.9-.52-8.83zm11.29-34.6c-.3 3.51-2.23 6.38-3.92 9.26-2.23 3.83-5.24 7.25-7.19 11.19-2.33 4.71-4.69 9.54-5.28 14.91a22.2 22.2 0 002.05 11.38l-2.22.44a33.63 33.63 0 00-3.57.71c-1.28.41-1.71-.15-2.09-1.24a11.94 11.94 0 01-.07-6.11c.58-3.41 1.24-6.84 1.53-10.29.46-5.35 2.47-10.19 4.38-15.09a21.25 21.25 0 011.12-2.65 3.57 3.57 0 011.19-1.16c2.43-1.62 5.14-2.93 7.25-4.88 2.58-2.39 5.05-5 6.31-8.49a7.5 7.5 0 01.6-1.07l.39.11c-.16.98-.37 1.98-.48 2.98zm23.77 6.24c1.09.63 2.11 1.39 3.2 2 3.3 1.88 6.67 3.65 9.93 5.6 4 2.39 8.09 4.67 11.12 8.35a13.4 13.4 0 011.88 2.89c.9 2 1.64 4 2.58 6.34l-39.8 8.58a36.81 36.81 0 01.16-17.21c1-4.26 2.33-8.41 5.1-11.87a43.65 43.65 0 014.83-4.68 1.11 1.11 0 011-.04zm-32.59-119q1.05.63 2.1 1.29a91.3 91.3 0 017.75 5 27.82 27.82 0 017.27 9.28c3.83 7.28 5.75 15.11 6.94 23.16.49 3.38 1 6.78 1.29 10.18.47 5.12-.6 10.07-1.73 15-1.7 7.48-3.3 15-4.65 22.53a32.2 32.2 0 00-.27 9.09c.64 5.59 2.32 10.84 6.5 15a49.34 49.34 0 013.67 4.24c.59.72.69 1.45-.46 1.91-4.87 2-7.2 6.25-9.68 10.46-2.3 3.89-2.5 8-2.05 12.33.23 2.16.19 4.35.38 6.52.22 2.56.56 5.12.88 7.92-1.07.24-2.41.6-3.77.93-1 .2-2.46-2-2.21-3.12a6.46 6.46 0 00.14-1.91c-.21-3.18-.53-6.34-.69-9.54s1-6.12 2.39-8.89c3.43-7.06 4.47-14.37 2.34-21.94a46 46 0 01-1.3-13.84c.11-5.09 1.86-9.72 2.68-14.59 1.58-9.39 1.88-18.85 1.95-28.33.05-5.59 0-11.19-.27-16.78a35.05 35.05 0 00-3.57-14.53 31.87 31.87 0 00-7.29-10 60.82 60.82 0 01-5.6-6.25l.39-.47c2.18 1.35 4.57 2.47 6.47 4.13s3.3 3.87 5.12 6.09a4.17 4.17 0 00-.14-1.11 21.39 21.39 0 00-10-9.47 10.78 10.78 0 01-4.58-3.57.76.76 0 010-.81zm.19 3.33a44.78 44.78 0 002.66 3.72c1.78 2.06 3.77 3.94 5.5 6a54.78 54.78 0 015.36 7.3c2.59 4.51 3.52 9.56 4 14.71 1 12.52.56 25-.15 37.55-.37 6.42-2 12.67-3.87 18.84-.88 2.95-1.39 6-2.17 9a3.11 3.11 0 01-1.11 1.58 8.85 8.85 0 00-3.35 5.11c-.91 3.79-3.07 6.75-5.58 9.64s-6.25 4.26-9.42 6.3c-2.2 1.41-4.52 2.65-6.79 4a1.69 1.69 0 010-.55 48.91 48.91 0 014.53-13.36c1.15-2.12 3.26-3.77 5.12-5.43 3-2.68 6.35-5 9.14-7.85a63.89 63.89 0 008.58-10.44c1.65-2.64 2.13-6 3-9.14a34.93 34.93 0 001.17-6.41c.32-4.38.51-8.78-.87-13.07a15.54 15.54 0 01-.33-6.3c.15-1.76.12-3.52.15-5.31a59.35 59.35 0 000-7.66 33.25 33.25 0 00-2-9.3c-2.14-4.92-2.79-10.37-5.62-15.06-2.25-3.7-4.25-7.51-7.95-10.13-1.41-1.04-.33-2.51 0-3.83zm4 11.47c1 2.08 2.26 4.05 3.22 6.16a50.06 50.06 0 013.52 13.28l-4-.09c-2.05 0-4.11.08-6.17 0-1.17 0-1.72.42-1.66 1.61a4.29 4.29 0 01-1.79 4.17c-3.92 2.92-3.78 9.7-2.18 13.35a57.72 57.72 0 012.65 8.8c.21.83.4 2.07-1.29 1.88-.21 0-.71.91-.71.91.94.79-.46 3 1.25 2.87 1.38-.09 2.78-1.19 4-2.08.78-.58.37-2.68-.33-3.44a4.53 4.53 0 01-1-1.67c-.92-3-1.41-6.18-3.3-8.88-1.45-2-1.1-7.85.34-9.91a6.06 6.06 0 013.81-2.43c2.24-.52 4.47-1.12 6.74-1.55a4.78 4.78 0 012.51.19 4.43 4.43 0 012.22 5.32c-.15.37-.75.56-1.34 1-.06-1-.09-1.65-.15-2.67l-2 1.69-.28-1.75c-1.21-.56-2.54 2-3.63-.41a6 6 0 00-1.14.93c-1 1.3-1.18 1.33-2.29-.06-.85 2.52-2.1 4.63-4.52 5.68v.1a1.62 1.62 0 001.6 1.65 4.07 4.07 0 011.33.55c3 1.6 6 2.1 9.11 0 .66-.45 2-.15 2.89.09.28.08.38 1.15.41 1.74.24 4.34.57 8.67.6 13a38.52 38.52 0 01-.73 8.64c-1.19 5.24-2.69 10.39-4.29 15.49a38.33 38.33 0 01-2.94 6 33.83 33.83 0 01-1.86 3.26 8.73 8.73 0 01-1.91 2.11 43.31 43.31 0 01-5.23 3.55c-3.57 1.91-6.78 4.61-10.88 5.48a11.19 11.19 0 01-6.74-1 24.92 24.92 0 01-3.58-1.79c-4.39-2.69-8.87-5.22-13.05-8.23-3.39-2.44-5-6.37-6.67-10.14a35.94 35.94 0 01-2.86-15 17.17 17.17 0 01.52-3.26c.79-4.07 1.46-8.16 2.47-12.17.36-1.41 1.61-2.58 2.42-3.89.34-.56.58-1.19.87-1.79.59-1.25 1.19-2.51 1.82-3.77.55-1.07 1.21-2.08 1.71-3.17.43-.94.65-2 2.13-1.87l-1.14-.59.76-2.24.38-.09 2.09 4-1.16 1.46.12.28 2.94-.69c-.16.56-.27.94-.43 1.54l1.47-.1.09 1.11 1.19-.9.12.47a17.8 17.8 0 011.78-.15 11.47 11.47 0 011.55.16 66.26 66.26 0 007 .77c.77 0 1.78-.91 2.27-1.67.29-.44-.07-1.48-.38-2.13s-1.13-1.3-1.52-2c-.55-1-.92-2.16-1.62-3.28-.1.74-.2 1.48-.31 2.22l-.4.17c-.38-.63-.76-1.29-1.19-1.89-.29-.4-.63-.76-.95-1.15l-1.2 1.52-1.79-2.31c-.64.65-1.28 1.69-1.68 1.6-.72-.19-1.3-1-2.21-1.79v2l-5.4-1c-.1-2.06.41-2.76 2.2-3.35 1.45-.49 2.8-1.33 4.28-1.68 2.31-.53 4.44.56 6.55 1.3 2.54.9 5 2 7.5 3 .82.33 1.19.05 1.24-.79.06-1.1.18-2.21.18-3.31a1.22 1.22 0 00-.59-.94c-1.47-.59-3-1.06-4.45-1.62-2.2-.81-4.35-1.83-6.62-2.42a10.47 10.47 0 00-4.23.15 4.44 4.44 0 00-3.54 2.23c-.18.33-.62.51-1.29.62a52.15 52.15 0 011-5.41 65 65 0 017.33-15.87c.76-1.17 2.44-1.76 3.74-2.55a4.93 4.93 0 011.62-.59c3.25-.64 6.3-2.38 9.7-2.07 2.52.26 5.35.26 7.43 1.45a18.82 18.82 0 017.98 8.01zm1.44 35.56c-1.25-2.75-.93-4.19.95-4.15-.36 1.25.78 2.86-.92 4.06zm-2-4.66v5a33.78 33.78 0 01-3.75-1.64c-.27-.16-.31-1.06-.16-1.54a3.19 3.19 0 013.95-1.91zm-32.92-2.52a25.33 25.33 0 014.23-.75c.69 0 1.19.28 1 1.2s-.35 2.05-.59 3.45a34.55 34.55 0 01-4.89-1.87c-1.19-.73-1.02-1.73.29-2.12zm7 0c.34 1.47.61 2.66.88 3.86l-.38.27c-.4-.48-1-.92-1.15-1.47-.13-.99-.46-1.99.73-2.78zm.53-50.23a12.4 12.4 0 019.46.22c2.45 1 4.88 2.08 7.33 3.11 1.11.46 1.39 1.45 1.82 2.44a10 10 0 01.94 5.41 7 7 0 01-.18.74 8.06 8.06 0 00-1.22-.59c-.76-.25-1.88-.15-2.21-.7s.15-1.53.26-2.34c.5-3.59-3.88-6-6.56-5.77-.26 0-.55.28-.85.6 2.66.31 5.12 1.14 6.24 3.7.45 1 .07 2.43.07 3.84l-2.34-.27a7.36 7.36 0 00-5-6.56c-2.28-.91-5.36-.65-6.34.44 4.88-.34 8.94.56 10.66 6-2.29-.63-4.41-.6-5.62-3s-3.76-2.63-6.08-2.45a13.25 13.25 0 00-6.38 2.51l.14.39 4.47-1.79c2.85-1.15 6.36.11 7.39 2.77l-4.25.45a2.25 2.25 0 00-2.78-1.71c-2 .32-4.3.6-5.82 1.79-2.13 1.63-3.71 4-5.45 6.13a2.74 2.74 0 00-.39 1.87c1.11-2.87 3.25-4.9 5.4-6.89 2.57-2.37 6.12-2.83 8.18-1.11-.21.13-.4.32-.59.32-3 .09-5 2-7.06 3.67a10.78 10.78 0 00-2.43 3.54 66 66 0 00-6 17.13c-.86 3.9-1.37 7.87-2 11.8-.73 4.19-2.84 7.81-5.23 11.17a35 35 0 00-4.32 7.56 57.38 57.38 0 00-3.18 9.87 53.09 53.09 0 00-.49 14.62c.18 2.07.4 4.13.6 6.2a20.43 20.43 0 002.94 9.29 8.3 8.3 0 011.12 5.55q-.72 6.75-1.61 13.49c-.45 3.52-1 7-1.44 10.56-1.29-3.85-.33-7.87-.63-11.79l-.44-.23a13.06 13.06 0 00-1.84 2.09 5.7 5.7 0 00-.86 2.72c.07 3.75.21 7.52.52 11.26.52 6.26 2.69 12.08 4.55 18a46.86 46.86 0 012.13 16.88c-.16 2.48-.11 2.5-2.6 3-.94.19-1.92.28-2.86.44l-2.84.53c-3.38-8.83-5.08-17.86-4.2-27.26.44-4.66 1.17-9.3 1.89-13.93a37.8 37.8 0 00-2.64-21.13 70.64 70.64 0 01-5.36-18.13 52.74 52.74 0 011-17.89c1.22-5.76 4.44-10.34 7.89-15s4.33-10 3.89-15.67c-.3-3.8-.74-7.69-.23-11.42.77-5.46 2-10.89 5.46-15.59 4.87-6.69 10.12-12.93 17.06-17.58a16.65 16.65 0 016.76-2.83 12.34 12.34 0 002.23-.59zM321 218.6c-.68-5.55-1.61-11.08-2.38-16.63a13.44 13.44 0 012.28-10.2c.55-.76.57-1.89 1-2.79a13.93 13.93 0 001.52-3.87 3 3 0 01.92-1.44 52.65 52.65 0 0115.54-11.2 61.38 61.38 0 0114.9-5.06 2.67 2.67 0 011.63.15c-.87.55-1.75 1.07-2.6 1.66A61.51 61.51 0 00339.2 184a36.37 36.37 0 00-4.66 7.63c-1.29 3.17-1.85 6.64-2.72 10-.05.14-.11.37-.05.41.2 2.09.38 2.83.38 4.22 0 3.58-.2 7.15-.3 10.73a19.91 19.91 0 01-4.23 12.51 37.53 37.53 0 00-6.47 11.5 51.71 51.71 0 00-2.56 17.28 2.84 2.84 0 01-.67 1.52 9.47 9.47 0 01-.32 2.25 71.1 71.1 0 00-4.81 21.67c-.35 6-.12 12 0 18 .05 3.89.3 7.79.47 11.68l-.39.13a41 41 0 01-1.81-4c-1.42-3.95-2.8-7.9-4.09-11.89a92.49 92.49 0 01-3.97-19.17 44.79 44.79 0 012.88-20.75 4.56 4.56 0 01.67-1.1 24.85 24.85 0 001.62-2.09c.88-1.49 1.54-3.08 2.51-4.47 1.29-1.88 3-3.45 4.18-5.37a43.28 43.28 0 003.3-6.86c.8-2 1.18-4.16 1.89-6.2 1.56-4.26 1.52-8.63.95-13.03zm-25.94 46.63c.86 6-1.05 11.39-2.62 16.89-.91-4.64.39-9 1.63-13.4a26.76 26.76 0 00-1.24 2.59 24.91 24.91 0 00-1.24 11.55 34.3 34.3 0 01-.16 5.36h-.42c-2.6-5.36-.17-19.39 4.06-22.99zm-5.33 42.3a32.19 32.19 0 013-6.25 24.39 24.39 0 002.26-5.22 122.82 122.82 0 003-15.9c1.08-8.47 1.27-17 1.59-25.45.09-2.08.42-4.13.6-6.21.26-2.92.33-5.89.76-8.79a146.94 146.94 0 012.77-15.82c1.88-7.23 4-14.44 7.54-21.1 1.6-3 3.1-6 4.68-9a10.06 10.06 0 01.9-1.24l.52.26-1.81 4.72c-1.81 4.56-1.39 9.1-.16 13.75a18 18 0 01.2 6.3 79.91 79.91 0 01-1.68 11 76.08 76.08 0 01-3.58 9.91c-1.38 3.38-3.09 6.64-4.42 10-.55 1.4-.42 3-.7 4.55a23.31 23.31 0 01-1 3.58 47 47 0 00-2.79 24.47c.68 4.14 1.62 8.25 2 12.42s.26 8.13.43 12.19c.2 4.77-1.16 9.25-2.26 13.81-1.31 5.46-3.93 10.34-6.16 15.4a34.35 34.35 0 00-1.14 3.7 2.84 2.84 0 01-.5-.6c-1.38-3.43-3-6.8-4-10.33-.74-2.49-.58-5.2-1.1-7.75a25.6 25.6 0 011.06-12.4zm-.39 26.25c.25.16.47.22.52.35 2.51 5.38 3.64 11 2.14 16.84-.36 1.41-.55 2.58 1.59 3.14-1.66.86-2.88 1.52-4.11 2.06-2 1-3.27 2.14-3 4.77.56 5.18.5 10.42 2 15.47.86 2.91 1.9 5.77 2.65 8.7 1.08 4.11 1.91 8.26 2.87 12.39.24 1.08.53 2.15.81 3.28-.89.5-1.49.48-1.9-.59-1.28-3.25-2.52-6.49-2.66-10a9.67 9.67 0 01.15-2c.15-.84.59-1.7-.65-2.15-.16-.06-.22-.58-.22-.89-.06-1.06 0-2.14-.15-3.19 0-.35-.52-.66-.8-1-.34.31-.83.55-.94.91-1 3.39-1.8 6.82-2.89 10.16a12.69 12.69 0 01-2.18 3.53c-1.11 1.51-2.35 2.95-3.54 4.39a8.81 8.81 0 01-1.34 1.1l-.26-.28a19.87 19.87 0 002.27-3 21.59 21.59 0 002.12-5.31c.93-4.52 1.75-9.08 2.29-13.66.37-3 .18-6.15.25-9.22 0-.38.14-.71.15-1.15s0-.87 0-1.3c-.51.18-1.2.2-1.49.55-1.13 1.38-2.15 2.85-3.16 4.31-.59.87-1.08 1.8-1.63 2.7h-.38c.09-1.32.13-2.64.29-4 .71-5.75 3.53-10.68 6.22-15.64a33.61 33.61 0 003.92-12.78c.25-2.76.72-5.55 1.07-8.49zm-19.82 13c2.89-7.73 7.29-14.71 11.24-21.86a73 73 0 014.17-6.25 6 6 0 01.88-.79c3.16 16.43-.59 31.29-9 45.3-.59-1.09-1.23-2.35-1.91-3.59-1.71-3-3.34-6.09-5.21-9a3.83 3.83 0 01-.16-3.77zm159.39 170.35c.69 8.23 1.56 16.47 1.79 24.72.14 5.08-.9 10.19-1.09 15.3-.07 2.07-1.29 3.28-2.26 4.77a.75.75 0 01-.33.28c-2.09.56-4.16 1.52-6.27 1.58-7.63.19-15.27.15-22.9.06-8.27-.08-16.54-.23-24.8-.59-3.55-.16-7.08-1-10.63-1.4-6.11-.78-12.27-1.33-18.35-2.33-7.66-1.27-15.22-3.06-22.88-4.34-7.83-1.3-15.07-4.4-22.47-7a110.21 110.21 0 01-13.07-5.78 12.68 12.68 0 01-6.41-6.85 2.94 2.94 0 01-.34-1.24 5.57 5.57 0 01.52-1.41c.42.19.83.36 1.25.56l.34.17a1.1 1.1 0 00.39.12 1.06 1.06 0 001.12-1c.22-2.86.46-5.74.5-8.61a4.16 4.16 0 00-1-2.32 1.8 1.8 0 01-.42-2.16 9.67 9.67 0 00.3-2.68 4.18 4.18 0 01.56-1c.89 1.74 1.7 3.24 2.43 4.77s2.47 2.71 3.33 2.48c1.16-.7.65-.31 1.43-1.1a2 2 0 00.49-2 5.6 5.6 0 01-.33-2c.18-1.41-.23-2.16.68-3.2 2.08.94 3.49 3.57 4.47 2.84.72-.36 1-.31 1.38-.63a4.49 4.49 0 00.75-.76c.31-.69-.39-2.9-.51-3.55-.12-.88-.4-1.41-.81-3.07a11.43 11.43 0 01-.42-1.41c-.45-1.15-1.79-9-3.26-13.07a4.32 4.32 0 01.17-4 34 34 0 001.65 3.24c.42.64 3.78 1.36 4.86.77v-.08a2 2 0 000-.24c-.72-.32-3.27-.54-3.47-1.09-.43-1.19-.47-2.46-1.68-3.39a2.55 2.55 0 00-3.39-.24c-.51.3-1.34.63-1.7.42-1-.6-1.39 0-2.09.44-2.61 1.61-3.39 4-3.42 6.89a3.31 3.31 0 01-.28.91c-2.86-1.34-4.23-.62-4.54 2.53a45.47 45.47 0 00.06 5.72c0 .19.07.41 0 .56-2 4-.87 7.85 0 11.8.37 1.54 1.52 2.38 2.3 3.58a3.8 3.8 0 01.54 3.57l-.11-.2a1 1 0 00-1.72 0c-.8 1.23-.66 2.69-.66 4.25-.19-.32-.4-.6-.6-.92a84.26 84.26 0 01-4.46-7.39c-1.36-2.88-2.45-5.75-1.88-9.29a56 56 0 00.32-10.84 25.25 25.25 0 00-1.19-5.36c-1.62-6.32-3.13-12.67-4.95-18.93a91.14 91.14 0 00-3.92-10.24c-1.68-4-3.57-7.91-5.36-11.85-1.41-3.07-2.94-6.08-4.24-9.19a54.38 54.38 0 01-1.73-5.71c-1.85-6.34-3.84-12.67-4.69-19.23a34.27 34.27 0 01.13-10.31c.9-5.11 2.92-9.8 4.77-14.57 3-7.69 6.09-15.34 9.12-23q3.17-7.95 6.26-15.92c.67-1.73 1.26-3.49 2-5.61.87 1.68 1.52 3 2.22 4.28a69.53 69.53 0 004.58 8.19c1.27 1.74 1 3.32.94 5.16-.16 3.18-.1 6.38 0 9.57.05 1.64.68 2.13 2.14 2a16.26 16.26 0 014.34-8.91c-.1 1-.2 2-.31 3.05-.53 5-1.05 10.09-1.64 15.11a28.07 28.07 0 01-1.11 4c0 .14-.07.4-.15.4-2.46.69-1.67 3.3-2.81 4.76a15.37 15.37 0 00-1.87 3c-.4.84-.43 1.85-.77 2.72-.2.5-.73.87-1 1.34a3.32 3.32 0 00-.63 1.36c-.35 3.32-2.51 5.71-4.18 8.35-.18.29-.72.38-1.43.72l2.42 2.39.6-.17c-1.52-1.8-.11-2.64.81-3.68.7-.78 1.3-1.63 2-2.57.36 2.12.67 4.12 1.06 6.11a25 25 0 00.76 2.88c.36 1.21-.31 1.51-1.43 1.62a30 30 0 00-3.41.59c-1 .24-1.12 1-.49 1.63 2.59 2.33 4 5.41 5.66 8.34a14.26 14.26 0 001.19 1.79c.16.21.53.25.8.37 0-.34.1-.75-.05-1-2.13-3.32-4.29-6.61-6.68-10.26a34.52 34.52 0 014.4-.53c.35 0 .89 1 1 1.58 1 5.31 2 10.68 3 16 .05.25.11.49.17.73.57 1.93.63 2.13-1.07 2.09-1.43 0-1.07 1-.89 1.6a35.48 35.48 0 002.15 5.36c.74 1.41 1.89 2.6 2.76 3.94.28.41.13 1 .28 1.54 1 3.27.16 6.5-.14 9.74a7.65 7.65 0 00-.11.87 3.83 3.83 0 00.1.59c1.8-.06 2.05 1.11 2.3 2.68a49.63 49.63 0 001.86 6.78c.11.32.67.57 1.07.71 2.34.83 4.77 1.54 7.11 2.47a11.16 11.16 0 012.56 1.85 1.44 1.44 0 01.53.79c.66 3.57 1.32 7.13 1.88 10.71.21.09.27.2.06.32.2 1.33.22 1.32 1.64.88.73-.21 1.62.25 2.39.13 1.13-.18 2.74-.14 3 .64.83 2.38 7.63 2.38 9.53 0l-1.13-.07c-1.68.1-4.46.71-5 .64-1.76-.25-2.49-1.17-2.85-2.9-.49-2.34-2-3.4-2.68-5.69a4.31 4.31 0 01-.09-1.34 13 13 0 011.08-1.37 3.24 3.24 0 01.6 1.07c.52 2.6 1.6 4 3.43 6.11a21.82 21.82 0 002.51 2.39 5 5 0 003 1.09 3 3 0 011.13.07 5.29 5.29 0 013.07 1 5.75 5.75 0 004.82 1.32c2.82-.51 5.7-.66 8.55-1l6.95-1.61c1.18-.47 2.72.94 4 .8 3.69-.4 7.39-.71 11.08-1.09a4 4 0 001.07-.43 4.19 4.19 0 013.76.13c4.67 1.65 4.23 5.16 7.61 4.83a7.19 7.19 0 011.38.28 17 17 0 002.61.41c2.63-.12 5.26-.39 7.88-.55 6.53-.38 13.06-.68 19.57-1.15a39.5 39.5 0 005.52-1.14c5.64-1.23 11.31-2.45 17-3.71 1.07-.24 2-.64 3.18-.95s2-.13 2 1.63a9.55 9.55 0 00.48 3.09c.73 2 .33 3.93 0 5.88a4.35 4.35 0 01-2.9 3.48 19.6 19.6 0 01-5 1.64 29.74 29.74 0 01-6.73-.38 15.82 15.82 0 00-7.53.82c-.24.09-.35.55-.52.84a3.41 3.41 0 001.19.19 31 31 0 013.87-.81 26.12 26.12 0 0110.4 1.59 3.47 3.47 0 001.83.26c2.45-.48 4.87-1.07 7.59-1.67.26 2.33.69 4.33.85 6.46zm-148.4-7.38c-2.63-3-1.18-6.28-.54-9.48.07-.38.4-.7.82-1.37a46 46 0 013.84 5.85c1.38 3 2.35 6.19 3.45 9.31a1.75 1.75 0 010 1.35c-.77 1.2-1.66 2.29-2.63 3.58l-4.66-8.58c-.12-.2-.14-.48-.28-.66zm-1.51 8.6v-8.65c2.07 2.1 2 6.3 0 8.65zm5.62-21.82c.33-1.74 1-3.29 2.79-4.09 1-.42 1.5-.49 1.79.71q1.65 7.08 3.43 14.14c.24.92.84 2.41 1.12 3.15-.94 1.11-2 1.11-2.9 2.08-.76-1.65-1.55-3.13-2.39-5-1.31-2.89-2.7-5.75-3.89-8.68a4.43 4.43 0 01.05-2.31zm192.16-36a1.53 1.53 0 010-2.2c.5-.52.93-1.14 1.44-1.79.43.95.43.95-.6 2.51l1.27-.52c1.35 2.2 1 4.11-.66 4.32-.57-.85-.9-1.56-1.45-2.32zM470 478.29a1.67 1.67 0 010 .5 1.49 1.49 0 01-1.77 1.15c-1.3-.2-2.61-.44-3.92-.51-2.24-.12-3.82-1.55-3.63-3.81a17.17 17.17 0 011.2-6c.53-1.09 2.21-1.75 3.51-2.28a18.66 18.66 0 014.17-.94 2.34 2.34 0 011.5.37 10.28 10.28 0 011.71 1.52 1.15 1.15 0 01.35.84c-.33 1.45-.42 2.85 1.05 3.83.09.1.06.36.09.69l-1.19-.24c.31 1.46 1.07 1.55 2.6.36 1.88 1 1 2.87.92 4.17s-1.61 1.89-2.54 1.89c-.88.79-1.46 1.31-2 1.79l-1.63-5.62-.59.11c.04.75.17 1.47.17 2.18zm-9.9-15.86l1.79-2.44a3.67 3.67 0 01.5 1.1c-.11 1.52.86 1.89 2 1.79s1.41.67 1.41 1.38c0 .37-.66.88-1.13 1.12-1.2.61-2.46 1.09-3.81 1.69-.38-.83-.87-1.88-1.43-3.12l2.39-.22zm14 6.13c.15-.3.52-.49.79-.73a3 3 0 01.6.86c.19.81.29 1.65.46 2.65-2.23-.95-2.54-1.43-1.89-2.78zm3.88-16.44c.19-.05.82.62.79.9a14.42 14.42 0 01-.8 2.46c-.18-.79-.28-1.2-.45-1.94l-1.19 2.63a3.15 3.15 0 011.61-4.05zm1.37 5.62l.59-.16.78 2.91-.5.14c-.32-.96-.62-1.93-.91-2.89zm.93 23l.79-1.95 2 .46.1.38zm3.11-24.39c-.07-.51-.36-1.14-.16-1.49a1.39 1.39 0 011.35-.32 2.73 2.73 0 01.85 1.52 14.22 14.22 0 010 2c.18 2.27-.47 3.21-3.08 4.34V457l1.08-.21a3.41 3.41 0 01-.08-.47zm3.87 21.32c-.78.58-1.65 1-2.6 1.61l-2.08-3.49.4-.54c1.47.46 2.93.9 4.36 1.42a1.29 1.29 0 01-.12.97zm-1.83-4l-.54-.6 2.33-1.84.4.42zm2.23-9.13c1.19.22 3.33 3.53 3.13 4.65-2.05-.91-1.93-3.22-3.12-4.62zm2.67 10.91c-1.72-.39-2.11-.91-2.22-2.83 1.76-.51 2.6.5 2.18 2.83zm.17-3.25l-1.76-.89.6-1.95.59-.05.92 2.72zm.63-5.73l-.36.1-1.77-2.07 2.07-.72zm-.41-4.55l-.48-.19.37-3-.59-.12-.48 1.79a8.06 8.06 0 01-.6 2.05c-.24.42-.89.6-1.35.88-.26-.56-.89-1.33-.71-1.64.71-1.18.16-3.18 2.18-3.53a3.82 3.82 0 00-.31-1.49 7.8 7.8 0 00-1.46-1.29 13.27 13.27 0 00-2.58-2.2c-1.38-.68-2.52 0-3 1.52a7.07 7.07 0 01-.81 2 6.19 6.19 0 01-.73-1.51c-.29-1.56-.44-3.14-.7-4.71a2.93 2.93 0 00-.53-.9 6.75 6.75 0 00-.67.64c-.2.25-.29.68-.54.84-3.13 2-2.95 5.28-3.13 8.38a8.31 8.31 0 00.39 2h-.38c0 .5-.19 1.34 0 1.46a2.29 2.29 0 011.08 3c-.27.67-1.42 1-2.28 1.55-.24-.57-.36-.81-.46-1.07a3.57 3.57 0 00-4.28-2.35c-.34.07-.67.17-1 .22-.79.15-1.09-.16-.88-1 .39-1.42-.06-2-1.59-2.35-.43-.1-.79-.58-1.14-.93-.59-.6-1.12-1.69-1.78-1.79a2.75 2.75 0 00-2.18 1.25 13.6 13.6 0 00-1 3.64 8.05 8.05 0 000 1.7c-1.78-1.19-3.11-2.42-3.15-4.63 0-.4-.8-.87-1.31-1.2a3.45 3.45 0 00-4.77.88 1.5 1.5 0 01-1.94.69c-3.33-.9-4.66.34-4 3.67a2.53 2.53 0 010 .55c-2.91.29-3.9 1.5-3.8 4.63.05 1.32 0 2.33-1.49 3.17a4.25 4.25 0 00-2.15 4 13.81 13.81 0 01-.15 1.59c-1.2-1.54.2-3.68-1.79-4.61.74-2.51-.45-4.9-1-7.37a1.32 1.32 0 00-.42-.66 1.35 1.35 0 00-1.9.16c-1.7 2.37-4.56 4.12-4.42 7.53.08 1.7.39 3.38.59 5.12 2.45-.44 3.59-1.94 4.55-3.66l.35.18a3.81 3.81 0 00-.13 1.26 3.4 3.4 0 00.75 1.62c.68.66 1.31 2.67.82 3.42-.81 1.25-1.7 2.45-2.5 3.7-.27.43-.62 1.3-.47 1.43.62.52 1.24 1.19 2.29.67a5.27 5.27 0 003-3.51c.29-1.11.75-1.36 1.86-.94 2.38.88 4.13.39 6-1.45l-1.08-1.17c.91-.24 1.68-.43 2.44-.65a4.68 4.68 0 00.39-.6c-1 .09-1.73.19-2.49.23a5.76 5.76 0 01-3.71-1.39c.09.5.19 1 .27 1.47-.76.57-2.22.12-2.38 2 1.67-1.27 3-.88 4.05.82l-3.57-.34c-1.9-.18-1.07-1.94-1.62-3l.75.38 2.5-1.37a5.68 5.68 0 011-.39 8 8 0 001.6-.34 2.59 2.59 0 013.86 1.1 10.3 10.3 0 001.61 1.69l-1.06 3.73c-1.25-1.13-.27-2.11.24-3.13-2.92.46-2.86.72-2.2 3.81a6.72 6.72 0 00-1.65.45c-1.61 1-3.18 2.11-4.77 3.18l.36.56c.74-.37 1.49-.73 2.22-1.11a24.5 24.5 0 013.35-1.7 3.09 3.09 0 012.23.28c1.48.85 2.45.87 3.64-.22a3.79 3.79 0 011.1-.6c.35-.14.93-.1 1.06-.34 1-1.74 2.9-.87 4.29-1.46a1.16 1.16 0 01.82 0 1.72 1.72 0 002.16-.66 1.39 1.39 0 011.05-.52c.88 0 1.77.47 2.56-.3a.32.32 0 01.27 0c1.05 1.29 2.13.66 3.24.1.17-.08.53.17.77.32 2.26 1.46 4.47.83 6.56-.3a37.74 37.74 0 003.9-2.77l1.88 1.46c-.24.23-.35.41-.5.47-2.62 1.11-5.21 2.3-7.87 3.3-4.6 1.7-9.41 2.35-14.26 3-5.8.75-11.53 1.91-17.29 2.81-4.1.63-8.22 1.15-12.34 1.7-.78.1-1.59.11-2.79.2.73-.88 1.09-1.65 1.69-2 1.47-.84 1.56-2.21 1.69-3.61a10.11 10.11 0 000-1.74c-.13-1.41 0-2.54 1.75-2.87.3-.06.48-.74.71-1.13-.43 0-.86-.05-1.29-.05h-1.86a4.88 4.88 0 00-.91.31c1.58.9.94 2.17.94 3.28a19 19 0 01-.29 3.45c-.09.49-.67.88-1 1.31v.05h-.07a7.93 7.93 0 01-5.1 3.58 5.36 5.36 0 01-2.22.08c-1.5-.28-3-.68-4.44-1.06a3.7 3.7 0 01-1-.5c-3.16-2-4.75-6.57-3.25-10a7.08 7.08 0 012.52-2.39 11.32 11.32 0 012.31-1c.13.53.23.95.47 1.85.44-2.88 2.8-2.6 4.35-3.35.55-.25 1.87.59 2.57 1.19a4 4 0 011.5 3.84c0 .14-.06.36 0 .41 2.05 1.46.45 3.94 1.56 5.68.13.21-.2.89-.49 1.15a16.44 16.44 0 01-1.79 1.2c-.77.52-1.49 1.33-2.55.47-.17-.16-.56 0-.85 0h-5.62c.43.28.81.75 1.23.78 1.38.11 2.78.06 4.17.06.29 0 .67-.19.85-.07 1.49 1 2.37-.18 3.44-.85a20.4 20.4 0 012.38-1.08v-.06a9 9 0 01-.53-2.87c.31-2.48-1-4.64-1.19-7a3 3 0 01.13-.79l1.36.66.25-.17c-.32-.39-.59-.78-.92-1.14a18.57 18.57 0 01-2-2.23 5.9 5.9 0 00-7.4-2c-1.48.82-2.91 1.62-3.71 3.28-.25.51-1.18.74-1.84 1-1.15.44-2.33.8-2.26 2.38a.45.45 0 01-.07.28c-2.31 2.43-.6 5.06-.15 7.51a4 4 0 002.92 3c.1 0 .26 0 .26.11 1 2.53 3.25 1.28 4.95 1.73.38.1.75.26 1.13.39v.43c-.59.14-1.19.33-1.78.44-3 .6-6.14.91-9.08 1.79a53.54 53.54 0 01-16.09 2.5c-1.29 0-2.58.4-3.87.46-4.17.19-8.35.31-12.52.46a9.88 9.88 0 00-1.88.16c-3.05.72-3.61-.15-6.46-1.15l-1.24-2.17v.52c-.5-.21-1.67-1-2.23-1.15-1.76-.25-2-1.49-3.92-.85-2.05.69-3.17.14-5.26.6a25.35 25.35 0 01-11 .22c-3-.68-5.67-1.15-8.47-1.6-2.47-.39-5-.6-7.44-.94a4.19 4.19 0 01-1.65-.48c-2.6-1.65-6.42-1.47-9.4-3.4.82-.58.63-.8 1.12-.72 1.62.28 3.45-1.27 5 .51 1-1.54 2.39-1 3.72-.41 1.78.76 3.48 1.61 5.54 1 .46-.14 1.11.42 1.72.81a21.1 21.1 0 011.7 1.29l.47-.52-2.32-2.25c1.24-.31 2.18-.82 3.07-.72a12 12 0 007.1-1.45 16 16 0 012.53-.85c-.24 1.33-.42 2.4-.6 3.47l.51.15a21.05 21.05 0 001-2.8c.19-.93.67-1.22 1.55-1.39a37.49 37.49 0 003.89-1.11c3.29-1.05 6.49-.48 9.64.59 2.77 1 5.48 2 8.25 3 .51.2 1.14-.05 1.7 0a5.62 5.62 0 012.11.41c1.45.78 2.78 1.72 4.18 2.57a3.56 3.56 0 00.85.23l.19-.33a31 31 0 00-5.2-3.66c-1.88-.86-4.08-1-6.22-1.5 2.86-4.17.39-6.26-3.1-7.9a2.67 2.67 0 013-.7 8.87 8.87 0 012.81 1.15c3 2.25 6.31 1.36 8.94-1.32a11 11 0 012.49-1.95 4.22 4.22 0 014-.3 24.76 24.76 0 002.91.73 1.56 1.56 0 011 .67c.67 1.79 1.27 3.63 1.86 5.42a2.69 2.69 0 00.53 1.07c.59-2 0-3.81-.63-5.83a10.71 10.71 0 015.12.45 7.91 7.91 0 006-.47 1.55 1.55 0 01.84-.19c3 .47 5.61-1.1 8.35-1.91 1.14-.34 2-1.5 3.15-2 3.95-1.65 8-3 12-4.63 2.68-1.07 5.29-2.33 7.91-3.57 2.3-1.09 4.72-2 6.39-4.11.42-.54 1.31-.56 2.05-1s1.37-1.06 2.11-1.5A9.6 9.6 0 01446 456c7.2-1.67 14.4-3.31 21.62-4.86a89.69 89.69 0 0014.51-4.44c2.27-.93 4.56-1.75 7.08-2.72.23 1.26.5 2.45.65 3.65.46 3.54.87 7.08 1.29 10.62a17.56 17.56 0 01.13 2.61c-.05.33-.4.69-.6 1.06zm-32.82 10.51c-.45.74-.23 2-.12 2.95s0 1.75-1.29 1.91c-1.42.18-2.82.54-4.25.72-.36.05-.78-.27-1.19-.43l.06-.42c1.83.41 3-.6 4.2-1.7.22-.22.25-.65.37-1-.34 0-.76-.12-1 0-1.28.78-2.53 1.41-4 .55a1.18 1.18 0 00-.59 0c-2.29.24-2.7-.07-2.82-2.38 0-.28.55-.57.83-.87s.33-.45.48-.69a1.44 1.44 0 00-1.75.23c-2.24 1.52-4.91-.67-5.05-2.65 0-.56.28-1.5.68-1.66.82-.3 1.71-.79 2.61.29a4 4 0 003.63 1.79 1.76 1.76 0 002.1 1.86 1.7 1.7 0 001.25-.92c.33-1.2.16-2.33-1.3-2.71.73-2.32 1-2.42 3.08-2.32a5.11 5.11 0 014.52 2.38 1.75 1.75 0 01.36 1.19c-.34 1.3-.04 2.63-.81 3.88zm.28 7.91l-.32 1.86-1.61-1 1.23-1.27zm-2.27 2.22l-2.78-.5v-.46l2.21-.89c.19.61.33 1.03.57 1.85zm-7.62-.4c.08-.48.19-1 .27-1.44a11.9 11.9 0 01.27-1.47 6.25 6.25 0 01.68-1.4 1.26 1.26 0 01.68.2 8.28 8.28 0 01-.18 1.23 10.28 10.28 0 01-.28 1.66 10 10 0 01-.78 1.49zm.58 2.84a2.31 2.31 0 01-2.81-.27l-.07-.67 2.63-.52c.09.51.38 1.35.25 1.46zm-2.46-7.8a23.92 23.92 0 01-1.19-2.76 1.93 1.93 0 01.21-1.27c.58 1.74.43 3.94 3.15 3.94-.9 1.19-1.58 1.21-2.17.09zm5.92 5.71c-1.35 1.3-2.13 1.34-3 .18.9-.83 1.8-1.37 3-.18zm-7.51-7.68l-4 .35v-3.1a24.26 24.26 0 013.14 1.27c.43.25.58.96.86 1.48zm4.94-10.43c-.67-2.3-.52-2.51 2.39-2.64l-3.08 6.7a28.77 28.77 0 01-3.16-1.78c-.24-.19-.41-1.17-.24-1.29 1.06-.79.47-1.46.05-2.24a4.43 4.43 0 01-.27-1.25 5.49 5.49 0 011.27.19 3.63 3.63 0 012.16 2.68 5.1 5.1 0 00.69 1.28l.44-.13a11.2 11.2 0 00-.25-1.52zm4.25-2.34c.23.59.41 1 .77 2-.92-.22-1.69-.18-2-.54s-.06-1.09-.06-1.69l.47.11c0 .26 0 .53-.08.95zM439.11 476a7.33 7.33 0 00-.95.84 6.59 6.59 0 01-.85.51 2.73 2.73 0 01-.23-.88 3.9 3.9 0 012.9-3.07c.4 1.11.35 2.01-.87 2.6zm-4.56 5.57l.63.45c-.68 1.24-1.31 2.52-2.08 3.66-.15.23-.84.11-1.28.15a4.45 4.45 0 01.26-1.19 18.94 18.94 0 011.44-2.13 8.49 8.49 0 011.03-.96zm.3-6.71l.23 3.08c-1.49-1.43-1.49-2-.23-3.1zm-4.14.33l-1.48 1.81c-.66-1.82.43-5.37 1.79-6.32a2.21 2.21 0 01.77-.16c0 .29.13.68 0 .89-.71 1-1.48 2-2.29 3.12zm-2-2.44c-.29-2 1.24-3.12 2.65-4.8 0 .71.26 1.21.08 1.44-.85 1.14-1.79 2.2-2.74 3.34zM414 475.87a2.53 2.53 0 013.46-1.55z"/><path d="M310.67 488.1c-.09 0-.19.16-.33.3.07-.01.24-.25.33-.3zM314.18 496.85l1.13.07a3 3 0 00-1.13-.07zM298.67 495a2 2 0 010 .24v.08c.27-.16.21-.27 0-.32zM451.09 477.16zM453.22 462.27z"/><path class="cls-7" d="M410.38 292.17a5 5 0 00-1.15-5.54 18.68 18.68 0 01-5.07-16.09c.09-.68.24-1.34.36-2a1.08 1.08 0 00-.69.75c-1.32 5.81-.48 11.22 3.17 16 1.5 2 3.42 3.73 3 6.55 0 .08.14.16.38.33zM392.94 274.68l-.29-.17c-.32.42-.66.83-.95 1.27a28.65 28.65 0 01-6.39 7 65.28 65.28 0 00-6.62 6.38c-.23.23-.21.71-.3 1.08l.35.1a14.86 14.86 0 011.82-2.49c1.87-1.73 3.81-3.41 5.84-5a26.69 26.69 0 006.09-7.05 7.39 7.39 0 00.45-1.12z"/><path class="cls-8" d="M425.72 488.76a7.75 7.75 0 01-5.14 3.65 5.36 5.36 0 01-2.22.07c-1.49-.28-3-.67-4.44-1.06a3.7 3.7 0 01-1-.5c-3.15-2-4.77-6.55-3.24-10a7.29 7.29 0 012.51-2.38 11.56 11.56 0 012.31-1l.47 1.85c.45-2.88 2.8-2.6 4.35-3.36.56-.27 1.87.54 2.57 1.19a4 4 0 011.51 3.85c0 .13-.07.35 0 .4 2 1.47.44 3.95 1.55 5.69.13.21-.2.89-.49 1.15a15 15 0 01-1.79 1.19c-.78.53-1.48 1.33-2.55.47-.17-.13-.55 0-.85 0h-5.62c.43.29.81.75 1.23.79 1.38.1 2.78.05 4.17.05.29 0 .67-.18.86-.06 1.49 1 2.38-.18 3.43-.86a19.92 19.92 0 012.45-1.1zm-7.57-10.94l-.53-.3a9.93 9.93 0 01-.95 1.79c-.7.85-1.4 2-2.34 2.33-1.19.4-1.86.89-2 2.07a2.3 2.3 0 001.55 2.76c1 .41 2.13.8 2.47 2.15a1.5 1.5 0 001.26.65 21.68 21.68 0 003-1c.6-.23 1.23-.49 1.83-.76s1.46-.48 1.52-.83a3.13 3.13 0 00-.51-2.08c-.33-.52-1-.8-1.65-1.23.82-1.19 1.87-2.42.42-3.71a2.39 2.39 0 00-3.05-.42c-.41.28-.55.94-.81 1.43l.34.16c1.23-1.12 2.38-1.38 3.1-.6.88.95.12 1.65-.49 2.43l-1.3-.74c.29 1.57 1.51 1.94 2.27 2.71a7.82 7.82 0 011 1.79H421c-.6 1.43-1.87 1.82-3.18 2.11-.29.06-.93-.24-.95-.44-.2-1.53-1.53-1.44-2.49-2a3.22 3.22 0 01-1.37-1.95c-.18-.83.44-1.42 1.37-1.72a4.07 4.07 0 002-1.32 25.56 25.56 0 001.74-3.32zm-4.5 10.42c-.11-1.11-2.13-2.24-4.13-2.28zM474 479.81c-.86.79-1.44 1.31-2 1.79l-1.52-5.6-.59.11c0 .72.13 1.43.14 2.15a1.5 1.5 0 01-1.29 1.67 1.39 1.39 0 01-.5 0c-1.31-.2-2.61-.43-3.92-.5-2.24-.12-3.82-1.56-3.63-3.82a18.27 18.27 0 011.2-6c.5-1.08 2.21-1.74 3.51-2.27a18.68 18.68 0 014.17-.95 2.47 2.47 0 011.5.37 10.28 10.28 0 011.71 1.52 1.21 1.21 0 01.35.84c-.33 1.48-.42 2.85 1.05 3.84.1.07.06.36.09.69l-1.19-.24c.31 1.45 1.07 1.53 2.6.35 1.88 1 1 2.84.92 4.17s-1.69 1.85-2.6 1.88zm-3.84-6.14c.4-3 .4-3-.56-3.34-.22 1.06-.47 2.12-.6 3.19a1 1 0 00.39.83c1.35.49 2.73.88 4.1 1.3-.68-1.48-2.13-1.42-3.35-2zm-3-4.2l.45-.07c-.28-.77-.78-1.1-1.35-.26a21.88 21.88 0 00-1.64 3.1c-.11.25.12.65.13.69a8.86 8.86 0 001.75-.54c.23-.12.31-.59.37-.93.13-.65.22-1.33.31-1.99zm-2.78 4.64l-.38-.32c-.32.47-1 1.11-.89 1.36a7.36 7.36 0 001.88 2.69c.86.68 2.48-.12 3.58-1.51a11 11 0 01-3.37.7c-1.35-.16-1.65-1.57-.82-2.92zM451.09 477.16c1.84.42 3.06-.6 4.2-1.71.23-.22.25-.64.37-1-.34 0-.75-.12-1 0-1.28.77-2.53 1.41-4 .55a1.22 1.22 0 00-.6 0c-2.28.23-2.7-.09-2.81-2.39 0-.27.55-.59.82-.87a7.76 7.76 0 00.49-.68 1.42 1.42 0 00-1.75.22c-2.24 1.52-4.92-.66-5.05-2.65 0-.56.28-1.49.68-1.66.8-.32 1.75-.71 2.61.3a4.14 4.14 0 003.63 1.78 1.76 1.76 0 002.1 1.86 1.66 1.66 0 001.25-.91c.32-1.2.16-2.33-1.3-2.72.72-2.29 1-2.42 3.08-2.32a5.27 5.27 0 014.52 2.38 1.78 1.78 0 01.36 1.2c-.32 1.25 0 2.57-.79 3.83-.46.73-.24 2-.12 2.94s0 1.76-1.29 1.92c-1.42.17-2.83.53-4.25.71-.38.05-.8-.27-1.19-.42zm-1.79-4.63l-.46.05.37 1.79a10.21 10.21 0 001.63-.59 7.1 7.1 0 001.19-1.06l-.23-.27-2.15 1.63zm4.77-1.34l-.26.28c.52.59 1 1.19 1.59 1.75.13.13.49 0 .74 0 0-.25 0-.6-.15-.71-.66-.47-1.32-.88-2-1.32z"/><path class="cls-8" d="M449.07 468.86a28.85 28.85 0 01-3.16-1.79c-.27-.2-.41-1.19-.24-1.29 1.06-.79.47-1.46.05-2.24a4.43 4.43 0 01-.27-1.25 5 5 0 011.27.19 3.63 3.63 0 012.16 2.68 5.1 5.1 0 00.69 1.28l.44-.13a11.2 11.2 0 00-.25-1.52c-.67-2.3-.52-2.51 2.39-2.64zM460.84 467.08l-1.43-3.08 2.39-.22-1.73-1.32 1.79-2.43c.25.53.53.82.5 1.1-.11 1.5.9 1.87 2 1.78s1.4.68 1.41 1.38c0 .38-.66.89-1.13 1.13-1.19.58-2.45 1.07-3.8 1.66z"/><path class="cls-7" d="M362.42 221.23a35.08 35.08 0 01-4.88-1.84c-1.19-.64-1-1.64.3-2a24.22 24.22 0 014.23-.77c.69-.08 1.19.25 1 1.19s-.41 2.02-.65 3.42z"/><path class="cls-8" d="M482.35 462.33V457l1.08-.21c0-.23-.06-.37-.08-.51-.07-.51-.36-1.14-.16-1.49a1.39 1.39 0 011.35-.32 2.73 2.73 0 01.85 1.52 14.22 14.22 0 010 2c.19 2.27-.45 3.21-3.04 4.34z"/><path class="cls-7" d="M390.74 224.82a34.54 34.54 0 01-3.75-1.63c-.27-.15-.31-1.06-.16-1.53a3.15 3.15 0 013.91-1.79z"/><path class="cls-8" d="M478.23 462.85c-.57-.89-1-1.62-1.47-2.29a1.59 1.59 0 010-2.2c.5-.55.93-1.19 1.44-1.79.45.95.45.95-.6 2.51l1.27-.52c1.37 2.17 1.01 4.08-.64 4.29zM482.94 475.22c1.46.46 2.92.9 4.36 1.42a1.29 1.29 0 01-.08 1 27.1 27.1 0 01-2.6 1.61l-2.08-3.49zM439.25 477.38c.09.51.2 1 .28 1.52-.78.56-2.24.12-2.38 2 1.68-1.27 3-.88 4.05.82l-3.57-.34c-1.9-.17-1.07-1.94-1.62-3l.75.38 2.52-1.39zM440.82 472.48a23.83 23.83 0 013.15 1.27c.43.23.6 1 .86 1.48l-4 .35z"/><path class="cls-9" d="M303.26 494.84c-.18.18-.39.6-.57.6-.48-.05-1.19-.14-1.38-.46a4.61 4.61 0 01-.78-2.27c0-.45.72-.9 1.12-1.36.28.29.69.53.83.87.31.78.52 1.64.78 2.62z"/><path class="cls-8" d="M440 473.41c.4 1.1.35 2-.87 2.59-.37.18-.6.6-.95.84a6.66 6.66 0 01-.85.52 2.72 2.72 0 01-.23-.89 3.88 3.88 0 012.9-3.06zM429.5 474.56l1.19.63-1.46 1.87c-.63-1.82.46-5.36 1.79-6.32a2 2 0 01.77-.16c0 .3.11.68 0 .88-.7 1.02-1.48 2.02-2.29 3.1zM435.18 482c-.68 1.24-1.31 2.52-2.08 3.7-.15.23-.84.11-1.28.15a4.36 4.36 0 01.26-1.19 18.08 18.08 0 011.44-2.13 9.45 9.45 0 011-1zM477.93 455.5c-.18-.79-.28-1.19-.45-1.92l-1.19 2.63a3.15 3.15 0 011.65-4.06c.19 0 .83.59.8.89a15.07 15.07 0 01-.81 2.46z"/><path class="cls-10" d="M392.73 224.51c-1.25-2.75-.93-4.18.95-4.15-.39 1.34.75 2.94-.95 4.15z"/><path class="cls-8" d="M448.29 482.16c.09-.48.19-1 .27-1.44a11.9 11.9 0 01.27-1.47 6.25 6.25 0 01.68-1.4 1.26 1.26 0 01.68.2 8.28 8.28 0 01-.18 1.23 10.28 10.28 0 01-.28 1.66 9.83 9.83 0 01-.76 1.48zM487.62 464.54c1.2.19 3.33 3.5 3.12 4.63-2.04-.89-1.9-3.17-3.12-4.63zM490.28 475.45c-1.72-.39-2.11-.91-2.22-2.82 1.8-.52 2.63.49 2.22 2.82zM475.9 471.34c-2.18-.95-2.48-1.42-1.79-2.78.15-.3.52-.49.79-.73a3 3 0 01.59.86c.14.81.24 1.65.41 2.65zM446 484.06l2.63-.52c.09.51.42 1.35.25 1.46a2.31 2.31 0 01-2.81-.27zM428.7 472.75c-.3-2 1.23-3.12 2.65-4.77 0 .71.26 1.19.08 1.45-.83 1.12-1.77 2.18-2.73 3.32zM448.59 477.13c-.91 1.19-1.59 1.19-2.15.08a22.56 22.56 0 01-1.2-2.76 2 2 0 01.21-1.26c.55 1.74.42 3.93 3.14 3.94z"/><path class="cls-10" d="M364.86 217.3c.34 1.47.6 2.66.88 3.86l-.38.27c-.4-.48-1-.92-1.15-1.47-.21-.85-.52-1.87.65-2.66z"/><path class="cls-8" d="M452.33 482.91c-1.35 1.3-2.13 1.34-3 .18.9-.83 1.82-1.36 3-.18zM490.73 466.57L489 464.5l2.07-.72v2.69zM489.89 469.31l.93 2.72-.34.17-1.76-.89.6-1.95zM458.18 480.34l-.32 1.89-1.61-1 1.23-1.29zM414 475.87a2.57 2.57 0 013.46-1.55zM455.34 480.68c.2.64.33 1.06.59 1.85l-2.78-.5v-.46zM480.24 480.68l.79-1.95 2 .46.1.39zM453.22 462.27c0 .28 0 .55-.06 1l.85-.81c.23.59.41 1 .77 2-.92-.23-1.7-.2-2-.55s-.06-1.1-.06-1.68zM435.08 477.92c-1.49-1.41-1.49-2-.23-3.08z"/><path class="cls-5" d="M359 481.9c-.66-1.12.28-1.89.7-2.78l.48.1c-.17.92-.35 1.84-.53 2.77z"/><path class="cls-8" d="M484.83 473.07l2.33-1.87.4.42-2.18 2z"/><path class="cls-5" d="M282.47 468.3v-2.54h.45c.07.84.15 1.67.22 2.51z"/><path class="cls-8" d="M479.89 457.56l.75 2.92-.5.13c-.3-.95-.6-1.92-.87-2.89z"/><path d="M385.19 399c.35-2.61.51-5.36 3-6.9 1.65-1 3.45-2 5.58-1a1.39 1.39 0 001.23-.48c1.43-2.16 3.45-2.65 5.81-2.18a2 2 0 011.19.84c.12.22-.29.76-.47 1.16a10.85 10.85 0 00-.66 1.57c-.55 2.27.55 5.49 2.39 6.68a14.48 14.48 0 002.25.75c.45.19 1.17.65 1.13.89-.46 3.09-1.23 6.09-4 8a2.41 2.41 0 01-1.63.07c-.66-.12-1.26-.54-1.91-.62a1.61 1.61 0 00-1.24.51 4.52 4.52 0 01-6 1.31c-4.34-2.18-6.07-5.98-6.67-10.6zm15.36-9.29c-2.71-.39-3.44-.13-5 2a1.36 1.36 0 01-2.07.49 2.62 2.62 0 00-1.74-.48c-2.29.78-4.36 2.15-5.13 4.45-1.65 5 1.79 11.12 6.8 12.73a2.45 2.45 0 002.88-.7c1.27-1.82 2.81-1.67 4.6-1.22a2.39 2.39 0 001.85-.22 8.6 8.6 0 002.65-6c-4.61-.51-6.71-6-4.79-11.09zM392.94 384.86c.14-2.05-.11-4.17 2-5.29a3.51 3.51 0 012.39 0c.24.06.4 1.14.28 1.69a4.43 4.43 0 01-4.67 3.6zm1.19-1.29c1.89-.77 2.76-2 2.39-3.36-1.72.51-2.52 1-2.44 3.36zM301.15 511.9c1.79.68 3.64.55 5.12 2.25.93 1.08 2.7 1.54 4.17 2s3 .6 4.51 1c3.16.85 6.29 1.78 9.44 2.7l-.09.72a12.09 12.09 0 01-2.69 0c-3.66-.83-7.33-1.67-10.95-2.69-1.69-.47-3.61-1-4.82-2.11a8.78 8.78 0 00-3.84-2.47c-.33-.08-.6-.48-.84-.76-.09-.07-.01-.26-.01-.64zM402.26 530.55c-1 .42-2 .89-3 1.24a4.58 4.58 0 01-2.39.48c-3.3-1-6.89-.51-10.09-2.24-1.47-.79-3.47-.6-5.22-.85-1.55-.21-3.11-.36-4.66-.6-.21 0-.39-.33-.6-.51.27-.13.54-.41.79-.39 3.1.23 6.22.38 9.3.82 1.57.22 3 1.12 4.62 1.48a27.33 27.33 0 006 .88c1.38 0 2.74-.78 4.14-1.09.41-.1.9.19 1.36.3a2.11 2.11 0 01-.25.48zM374.76 264c-4-.16-7.5-1.26-9.94-4.77-1.58-2.28-3.34-4.45-5.08-6.62a14.64 14.64 0 00-1.59-1.36 4.57 4.57 0 01-.6-.79c.32-.11.73-.41.94-.31 2.82 1.45 5.33.6 8-.68a12.2 12.2 0 014.5-.83c3.47-.2 7-.18 10.26 1.07a11.78 11.78 0 013.81 2.67c1.59 1.52 2.86 3.42 5.49 3.12.18 0 .47.35.59.6.06.08-.18.48-.33.51-1.61.31-2.68 1.54-3.65 2.59a14.86 14.86 0 01-12.4 4.8zm-9.13-7.3l-.5.38a9.86 9.86 0 002 2.56c2.39 1.57 5 2.75 8 2.48a31.23 31.23 0 013.35-.39c3.26.09 5.68-1.46 7.94-3.79a4.29 4.29 0 00-1.23-.16c-2.67.6-5.32 1.23-8 1.79a5 5 0 01-2 .1 54.47 54.47 0 01-5.36-1.33c-1.42-.43-2.83-1.08-4.2-1.64zm17.75-.25c-1.33-2.18-14.49-3.95-17.8-2.38 1.22 1.06 2.66 1 4.08 1.19 2.51.35 5 .84 7.49 1.37a10.94 10.94 0 006.26-.18zm-15.78-4.59a43.61 43.61 0 0117.4 3 10 10 0 00-6.49-3.26 9.69 9.69 0 01-3.34-.47c-2.73-1.24-5.09.11-7.57.75zM375 241.08c-2.28.85-4.47-2-4-4.47.25-1.38.4-3 2.14-3.45.32-.09.73.13 1.1.21a3.37 3.37 0 01-.6.78c-1.45.89-1.6 2.38-1.55 3.8a2.39 2.39 0 002.05 2.45c.23.03.44.35.86.68z"/><path d="M376.25 237.68a21 21 0 012.54 1.07c.21.12.22.78.13 1.15 0 .13-.65.14-1 .15a8.81 8.81 0 01-1.54 0 2.68 2.68 0 01-1.35-.39 1.21 1.21 0 01-.16-1.16c.28-.39.84-.5 1.38-.82zM359.6 246.19c-.07 1.23-1.05 1.61-1.84 2.17s-1.47 1.12-2.18 1.66c-.31-1.36 1.56-3.25 4.02-3.83zM390.39 251.2c1.65.41 2.3 2.72 1.29 4.28-.43-1.48-.82-2.76-1.29-4.28zM380.54 245.73a3.72 3.72 0 01.08 1 3.28 3.28 0 01-.46.76c-.21-.2-.55-.37-.59-.59a3.06 3.06 0 01-.09-1.41 3.62 3.62 0 01.62-1 9.11 9.11 0 01.47 1c.03.13-.04.34-.03.24zM367.18 241.77c-.92.48-1.71.91-2.53 1.27a6.43 6.43 0 01-.5-.69c.84-.43 1.68-.86 2.53-1.26a4.76 4.76 0 01.5.68zM376.63 243.7c1.16 1.2 1 2-.54 3.07.22-1.24.38-2.17.54-3.07zM469.52 461.26c.26-3.19-1-6.39.54-9.44a4.77 4.77 0 013.11 4.87c0 .72-.11 1.45-.19 2.16a2.17 2.17 0 01-2.3 2.22c-.35.03-.68.11-1.16.19zM376.71 477.87c2.65.6 3.8 4.42 2 5.59a6.08 6.08 0 00-2-5.59zM472.48 461.25l1.27 1.14-.87 1.79c-1.53-1.1-1.67-1.65-.4-2.93zM327.79 237.5c-1.12 3.58-2.67 7.23-3.39 11.07s-.6 7.85-.88 11.53c-1.94-2.76.53-18.52 4.27-22.6zM337.09 286.05c.13-2.54.44-5.08.33-7.6s-.67-5.07-1.07-7.81c1.76 1.83 2.3 11.17.74 15.41z"/><path d="M335.63 271.51c.86 4.24 1.37 8.47.37 12.72h-.37zM304.9 275.51c-2.84-5.19 2.38-21 8.23-25.09-6.35 7.18-8.88 15.58-8.23 25.09z"/><path d="M307.31 271.47c-1.52-4.17 2.95-16.84 6.85-19.25a33.8 33.8 0 00-6.85 19.25zM410.38 292.17c-.24-.19-.37-.25-.36-.29.4-2.85-1.52-4.59-3-6.56-3.65-4.81-4.49-10.22-3.17-16a1.08 1.08 0 01.69-.75c-.12.67-.27 1.34-.36 2a18.67 18.67 0 005.07 16.09 5 5 0 011.13 5.51zM392.94 274.68a8 8 0 01-.46 1.14 27.39 27.39 0 01-6.09 7.05c-2 1.54-4 3.22-5.84 4.95a15.36 15.36 0 00-1.82 2.5l-.35-.1c.09-.37.07-.85.3-1.09a64.05 64.05 0 016.61-6.37 28.58 28.58 0 006.41-7c.29-.44.63-.85.95-1.27zM418.12 477.82a26.17 26.17 0 01-1.78 3.35 4.07 4.07 0 01-2 1.32c-.93.3-1.55.89-1.37 1.72a3.22 3.22 0 001.37 2c1 .53 2.28.44 2.49 2 0 .2.66.5 1 .44 1.31-.29 2.6-.68 3.18-2.1a1.31 1.31 0 01.28 0h2a8.2 8.2 0 00-1-1.79c-.76-.78-2-1.14-2.27-2.71l1.29.73c.6-.78 1.38-1.47.5-2.42-.73-.78-1.87-.51-3.11.59l-.34-.16c.27-.49.41-1.15.81-1.42a2.4 2.4 0 013.06.42c1.45 1.28.4 2.51-.42 3.71.6.43 1.32.71 1.65 1.23a3.15 3.15 0 01.51 2.07c-.06.36-1 .6-1.52.84s-1.2.53-1.83.75a19.28 19.28 0 01-3 1 1.48 1.48 0 01-1.26-.65c-.34-1.34-1.44-1.74-2.47-2.15a2.3 2.3 0 01-1.55-2.75c.16-1.19.84-1.68 2-2.08.94-.31 1.64-1.47 2.34-2.33a10.56 10.56 0 00.95-1.79zM413.62 488.24l-4.13-2.24c2 0 4.02 1.13 4.13 2.24zM470.14 473.67c1.22.56 2.68.5 3.31 2-1.37-.42-2.75-.81-4.1-1.3a.93.93 0 01-.39-.83c.16-1.07.41-2.13.6-3.19.98.3.98.3.58 3.32zM467.18 469.47c-.09.66-.16 1.34-.29 2-.06.34-.14.81-.37.93a8.86 8.86 0 01-1.75.54s-.24-.44-.13-.69a21.88 21.88 0 011.64-3.1c.6-.84 1.07-.51 1.35.26zM464.4 474.11c-.83 1.35-.53 2.76.82 2.92a10.92 10.92 0 003.37-.7c-1.1 1.39-2.72 2.19-3.58 1.51a7.36 7.36 0 01-1.88-2.69c-.12-.25.6-.89.89-1.36zM449.29 472.53l.36 1.55 2.12-1.58.23.27a6.63 6.63 0 01-1.19 1.05 9.36 9.36 0 01-1.63.6l-.37-1.79zM454 471.19c.65.44 1.31.85 1.92 1.33.15.12.11.47.15.71-.25 0-.59.12-.74 0-.57-.54-1.06-1.15-1.59-1.74z"/><path class="cls-11" d="M365.63 256.7c1.4.56 2.78 1.19 4.23 1.66a54.43 54.43 0 005.36 1.32 5 5 0 002-.09c2.66-.6 5.31-1.23 8-1.79a4.29 4.29 0 011.23.16c-2.26 2.33-4.68 3.88-7.94 3.79a31.23 31.23 0 00-3.35.39c-3 .27-5.61-.91-8-2.48a9.86 9.86 0 01-2-2.56z"/><path class="cls-7" d="M383.41 256.45a11 11 0 01-6.24.18c-2.48-.53-5-1-7.49-1.37-1.41-.2-2.86-.14-4.08-1.19 3.29-1.57 16.45.2 17.81 2.38z"/><path class="cls-11" d="M367.6 251.86c2.48-.64 4.84-2 7.57-.77a9.93 9.93 0 003.34.48 9.81 9.81 0 016.49 3.25 43.59 43.59 0 00-17.4-2.96z"/><path stroke-miterlimit="10" stroke="#231f20" fill="none" stroke-width="4" d="M419.95 462.45l1.59 5.23"/></g><g id="Layer_2-2" data-name="Layer 2"><path d="M288.15 362.49c-.46-2.14.93-3 2.46-3.7A74 74 0 01309 352.4c5.4-1.08 10.69-2.59 16.09-3.79 4.71-1.06 9.45-1.94 14.17-2.92 8.84-1.85 17.68-3.73 26.53-5.56 9.27-1.91 18.57-3.68 27.83-5.68 4-.86 7.88-2.26 11.86-3.22 6.38-1.52 12.81-2.88 19.21-4.31 3-.68 6-1.38 9.05-2 4.43-.91 8.88-1.78 13.32-2.65 2.35-.46 4.71-.87 7.07-1.34a11.66 11.66 0 001.64-.54c1.48-.5 3-1.07 4.47-1.45a1.57 1.57 0 012.15 1.33c.32 1.89.65 3.8.94 5.7.54 3.42 1 6.88 1.6 10.29.85 4.6 1.84 9.17 2.76 13.76 1.69 8.37 3.29 16.76 5.08 25.11q2.61 12.09 5.58 24.11c.82 3.27 2.18 6.4 3.26 9.6 1.85 5.53 3.86 11 5.46 16.62 1 3.58 1.47 7.38 2.16 11.08a4.7 4.7 0 00.25 1c.78 1.78.83 1.89-.94 2.65-3 1.28-6 2.39-9 3.58-7.82 3.14-16.13 4.55-24.22 6.74-9.22 2.48-18.48 4.94-27.64 7.56-7.15 2-14.2 4.33-21.33 6.41-6.43 1.88-12.91 3.58-19.35 5.47-1.09.31-2.47.24-3 1.66-.07.18-.69.22-1.05.2-2.47-.1-4.81.41-6.41 2.38-1.75 2.15-3.91 2-6.21 1.61a21.09 21.09 0 01-3.34-.9 7.32 7.32 0 00-8.5 2.82 1.74 1.74 0 01-1 .59c-7.79 1.67-15.55 3.4-23.37 4.92-4 .77-8.09 1.19-12.16 1.66a14.19 14.19 0 01-3.73-.31 1.87 1.87 0 01-1.23-.85 16.56 16.56 0 01-.95-3.15c-1.23-6.06-2.65-12.09-3.58-18.18-1-6.49-2.9-12.7-4.68-19q-2.42-8.51-4.62-17c-2.39-9.16-4.73-18.33-6.92-27.53-.82-3.41-1-7-1.74-10.41-.82-3.71-2-7.34-3-11-.43-1.54-.95-3.06-1.27-4.61-.82-3.45-1.43-6.91-2.09-10.36z" fill="#636466"/><path class="cls-9" d="M310.27 486.69a1.93 1.93 0 00.64 1.66c1.16.83 5.06-1.65 5.4-1.79s-.27-1.75-.75-1.89c-.87-.27-2.3.55-2.75.68s-2.51.75-2.54 1.34z"/><path d="M388.25 391.13l2.45-.52c4.29-1.16 7.62 3.64 8.21 6.2l2.12 9.13a7.43 7.43 0 01-5.59 8.9h-.2l-.91.18a7.53 7.53 0 01-8.82-5.68l-2.15-9.19c-.8-3.37.64-8.15 4.89-9.02z" fill="#fbb040" stroke="#000" stroke-width="2" stroke-miterlimit="10"/><path fill="#119e49" stroke-miterlimit="10" stroke="#231f20" d="M391.28 390.72l2.44-3.84-2.51.68 2.97-5.52-4.33 2.19 2.78-7.54-5.95 5.55-6.2-3.15 4.7 5.99-4.35-.03 4.9 3.14-2.68.82 5.35 2.33 2.88-.62z"/></g><path class="cls-16" d="M191.29 306.58l.76 22.47 3.02 15.72 7.29 11.86 12.45 11.64 5.28 10.24 1.51 9.43v5.53l3.02-2.63 3.01-5.41 1.39 8.04-2.39 22.89 1.76 7.79.8 5.16-1.33 5.68-6.4 7.82 21.72 35.06 3.67 19.06-1.4 9.09-8.59 4.55-16.81 2.03-39.17 1.52-18.46-.88-25.41-4.43-25.65-8.72-8.09-3.41-3.16-4.93-1.13-16.19 4.29-20.97-.38-13.4 3.03-11.75.76-4.43-1.26-10.99-1.92-3.67-9.2 5.8-5.06 6.75-4.41 1.79-3.66-1.23-5.81-5.71-6.65-13.69-1.23-10.88 3.38-24.29 5.81-44.17 10.23-34.13 4.78-4.14 15.09-7.96 15.39-4.78 9.66 13.31 13.21 13.23 12.13 6.19 12.3 2.44 14.78-.66 7.05-1.64z"/><path fill="#e6e0db" d="M170.5 320.23l1.3 14.21-.66 12.97-1.26 11.16-2.97 8.9-5.43 5.1-10.79 1.14-8.71-1.81-2.9-2.01-6.35-25.12-.46-20.75.85-3.8 3.81 1.66 6.45 1.83 9.84-.07 8.26-1 7.98-1.4 1.04-1.01z"/><path class="cls-18" d="M144 333.64l1.92-1.93 1.86 1.49-1.09 2.04-2.69-1.6zM146.09 344.77l-1.06 2.15 1.17 2.02 2.04-1.09-.86-3.08h-1.29zM146.69 358.04l2.3.96.7 1.5-1.2 1.59-2.4-.33-.43-1.7 1.03-2.02zM156.78 347.09l-1.28 1.85.93 1.67 1.16.85.89-.85.54-.84-2.24-2.68zM156.78 335.89l-.97 1.53 1.6 1.68 1.73-.93.46-.75-1.21-1.53h-1.61z"/><path fill="#94887f" d="M140.3 317.42l17.11-1.2 12.05 2.14 1.13 2.88-13.33 1.91-12.23.55-4.73-.68-4.87-1.78-2.31-1.02 1.54-1.94 5.64-.86z"/><path class="cls-16" d="M233.12 287.82l17.49 8.09 12.17 10.75 9 10.94 11.72 19.36 9.58 16.12.84 3.63-1.32 10.87-2.56 17.1-9.46 21.29-7.57 16.19-4.41 15.87-1.74 2.84-3.89 3.18-2.71-7.45-8.29-6.22-6.41-2.39 7.64-13.08 2.01-7.9 4.2-6.41 2.4-8.29 1.71-14.64.48-14.88-10.35-11.59-10.03-11.46.7-19.36-5.3-17.41-4.59-10.94-1.31-4.21z"/><path class="cls-20" d="M253.41 597.65l4.01-44.97-.68-20.11-2.98-11.46-6.91-15.49-11.09 5-19.25 1.93-23.58 1.16-23.58.09-27.62-4.04-20.7-5.97-20.49-9.12-9.07 30.36-6.3 31.09-1.66 18.87 1.12 20.58.1 2.08h74.56l5.91-28.21 2.52-24.25.86 1.39 4.71 1.37.87 12.82 1.86 12.58 5.21 18.03 1.92 6.32h36.19l34.07-.05zM252.71 597.66h.71l-34.08.05h34.07z"/><g id="hud-2" data-name="hud"><path fill="#f0cb76" d="M192.92 279.9l-.44 53.05 3.55 14.02 6.33 9.66 12.45 11.64 5.28 10.24 1.51 14.96 3.02-2.63 3.01-5.41 1.39 8.04.84.82 7.32-7.16 3.84-3.74 2.45-6.58 3.22-.2.68-7.28-1.81-14.54-2.32-12.45.99-19.32-2.71-14.14-10.62-27.17-1.08-13.37-2.63-29.72-5.61-28.11-7.76-22.75-10.5-17.85-12.18-12.81-11.38-4.31h-4.71l-7.82 1.49-9.16 2.02-7.56 5.12-8.21 4.29-7.34 5.98-2.4 6.85-.94 7.84-.93 7.23-.52 6.31v5.45l.95 4.5 1.48 3.92-1.5 1.14-.41 3.63 1.71 5.68 1.17 5.2-.76 6.3 1.21 9.33 2.32 10.56 1.25 6.9.69 10.05 7.64-4.48 3.44-4.19 12.14 9.32 7.84 4.7 8.14-.31 5.91-4.08 5.95-5.65 1.47 5.65 2.11 6.36z"/><path class="cls-22" d="M167.76 181.31l-3.68-3.42-8.61.82-8.28 5.04-6.97 8.18-4.4 10.87-1.36 10.74v1.39l-2.61-1.99-1.16 5.2 3.24 11.3 2.56 1.62 1.79 9.97 1.19 9.16 3.93 8.7 7.11 6.07 10.99 8.27 6 3.76 6.26 1.13 5.9-1.55 8.44-8.07 9.52-12.44 3.13-6.79 1.85-17.14-.71-21.11-4.12-18.21-8.24-10.38-8.01-4.02-4.15-.52-4.38 1.12-2.49 2.3-1.53.46-1.21-.46z"/><path class="cls-7" d="M177.66 221.87l3.22-2.37 8.59-.8 2.57 3.17-4.53 2.35-4.72.67-3.94-1.14-1.49-.87.3-1.01zM159.46 221.21l-4.18-3.1h-6.44l-3.77 3.1 3.77 2.26 3.43 1.02 3.72-.27 3.47-1.59v-1.42z"/><path class="cls-22" d="M191.34 268.16l1.58 38.65-14.77 2.07h-11.86l-15.67-5.02-13.31-10.76-9.99-11.53-3.23-5.52 13.02-2.86 6.8-3.56 3.55-5.42 3.05.75 8.46 6.36 7.23 4.92 5.03 1.88 6.92-.69 8.03-7.09 5.16-2.18zM246.11 427.38l5.54 2.32 8.96 7.46 2.1 5.31-1.29 2.67-8.88 12.21-5.79 10.95-4.63 6.83-2.7 4.5-8.62 6.85-2.88-4.7 5.92-6.25 2.91-6.94-2.91 1.67-6.08 5.55-8.3 4.61-2.52-4.19 10.82-8.82-.36-2.53-5.97 4.58-7.52 3.37-3.79 1.34.48-3.03-2.24-2.13 6.88-4.45 8.1-6.5 4.31-4.49-1.52-1.45-6.58 4.34-6.12 3.76-5.07 2.36-2.37-4.49 4.7-3.82 6.61-5.52 3.56-4.97 5.42-7.04 2.52-4.52.5-3.77h3.01l2.94.98 4.73-.23 6.13-1.82zM101.97 349.06l3.16 8.11 6.9 6.02 5.08 3.59 4.19 1.49 2.1-2.78 2.98-1.89 5.2-2.61 1.76-1.75 1.63-3.83-3.39-11.03-2.63-7.37-1.23-8.25v-5.61l-.57-2.74-1.09-1.57-4.52 2.05-5.74 3.35-3.72 2.46-1.7 2.35-5.93 3.54-3.45 5.03.53 4.13.86 2.95-.42 4.36z"/><path class="cls-23" d="M227.32 482.09l-1.75 3.38.23 1.86 1.07 1.41 3.32-2.48-1.3-3.15-1.57-1.02zM216.94 476.23l-3.47 2.54.68 2.63 1.4.69 3.91-1.67-2.52-4.19zM207.51 469.59l-1.82 2.22.3 2.06 1.12.88 2.28-.88 1.21-2.73-3.09-1.55zM208.21 461.93l-2.22-3.84-2.58 2.83-.41 2.1.72 1.17 4.49-2.26z"/></g><g id="Layer_1-4" data-name="Layer 1"><path d="M239.25 385.62a3.68 3.68 0 000-3.3l-.69-1.22h-.64a8.25 8.25 0 01-.06 1.66c.22 1 .43 2 .63 2.9a6.68 6.68 0 00.76-.04zM85.76 597.65zM253 597.66z"/><path d="M294.65 353.28c-2-3.64-4.12-7.19-6.27-10.73-1.41-2.31-3-4.5-4.42-6.83-2.57-4.26-5-8.63-7.58-12.87a91.08 91.08 0 00-5.49-7.89 140.37 140.37 0 00-9-11 89.2 89.2 0 00-9.7-8.22A39.72 39.72 0 00246 292c-2.52-1.3-5.15-2.42-7.77-3.55-1.38-.59-2.83-1.06-4.58-1.67a60.63 60.63 0 01-2.65-16.49 218.82 218.82 0 00-2.93-33.9c-1.44-8.2-3.07-16.39-5-24.49a115.81 115.81 0 00-11.6-30.21 100.35 100.35 0 00-15.12-21c-2.72-2.79-5.63-5.49-9.7-6.59-2.72-.73-5.41-1.6-8.14-2.35a3.94 3.94 0 00-1.93 0 34.06 34.06 0 01-4.18 1.29c-2.81.37-5.68.39-8.49.73a21 21 0 00-10.16 3.82c-3.25 2.41-6.34 5-10.38 6.29-2.86.9-5.55 2.15-7.33 4.67a33.49 33.49 0 00-5.49 15.08c-.41 3-.52 6.13-1.17 9.12a33 33 0 00.51 16.36c.65 2.29 1.85 4.4.52 7.11-.94 2-.06 4.45.89 6.63a15.44 15.44 0 011.29 9.42 29.33 29.33 0 00.4 11.47c.62 3.21 1.65 6.35 2.35 9.55.74 3.4 1.49 6.81 1.89 10.26a52 52 0 010 7.89c0 .31-.84.72-1.36.84-3.21.74-6.47 1.29-9.64 2.17a2.07 2.07 0 01-2.66-.8 1.65 1.65 0 00-2.2-.68 48.12 48.12 0 01-6.68 2.45 97.79 97.79 0 00-21.92 9 14.7 14.7 0 00-6.93 6.72 108.13 108.13 0 00-6.11 18.2c-2.3 9.09-5.33 18-6.49 27.35-1.06 8.57-2.14 17.14-3.11 25.72-.39 3.43-.39 6.93-.8 10.38-.75 6.35-1.66 12.69-2.53 19a30.49 30.49 0 002.6 17.2 59.82 59.82 0 003.1 6.14 34.78 34.78 0 003.72 5c.88 1 2.34 1.57 3.15 2.61a6.55 6.55 0 008.11 2.26 9.39 9.39 0 005.27-5.41 3.37 3.37 0 01.93-1.22 11.67 11.67 0 014.84-3.16c1.93-.58 3.58-2 5.3-3.06.61 3.51 1.28 7.27 1.84 11.06a10.17 10.17 0 010 3.73c-.9 3.79-2.17 7.51-2.93 11.32a46.7 46.7 0 00-.66 8.18c-.06 2.49.53 5 .18 7.46a112.11 112.11 0 01-2.83 13.58c-1.77 6.43-1.15 12.93-.9 19.39.15 3.73 1.48 7.36.19 11.19-2.16 6.45-4 13-6 19.54-.42 1.34-1.19 2.58-1.54 3.94-1.58 6.14-3.21 12.29-4.55 18.48-1.16 5.54-2.1 11.14-3 16.74a123.6 123.6 0 00-1.35 23.06c.16 5.88.6 11.74 1 17.61v.25h2.56c-.05-1.11-.1-2.21-.13-3.32-.2-6.9-.75-13.82-.46-20.71a239.61 239.61 0 012.28-23.91c.94-6.42 2.65-12.73 4.09-19.08a61.26 61.26 0 012.29-8.42c3.14-8.05 6.15-16.13 7.33-24.68a5.43 5.43 0 01.57-1.22c1.54 2.21 3.74 2.86 5.92 3.66 5 1.87 10 4 15 5.95 1.89.72 3.92 1.11 5.88 1.66 4.4 1.22 8.78 2.71 13.22 3.66s9 1.37 13.48 2 8.93 1.61 13.44 1.9a82 82 0 0014.61-.05c4.66-.53 9.38-.56 14.07-.79 3.06-.16 6.11-.26 9.16-.41.7 0 1.4-.2 2.09-.2 1.76.08 3.52.26 5.28.34a13.89 13.89 0 011.91-.15 20.57 20.57 0 008.55-.54 8.74 8.74 0 011.45-.21c5.08-.26 10.16-.62 14.79-2.95 2-1 4-2.23 6.1-3.45.27.58.63 1.49 1.07 2.36a74.94 74.94 0 016.47 18.26 76.42 76.42 0 012 20.56c-.14 2.69-.2 5.38-.4 8.06-.1 1.34-.52 2.66-.65 4-.34 3.92-.65 7.86-.89 11.79q-.77 12.62-1.44 25.22c0 .21.06.42.1.63h1.77l.06-.06a2.36 2.36 0 00.45-1.28c.38-5.24.72-10.49 1.09-15.73.4-5.49.73-11 1.22-16.49.32-3.66 1-7.32 1.31-11a91 91 0 00-.56-16.82 77.82 77.82 0 00-5.14-20.26c-1.4-3.59-3.46-6.92-5.17-10.38a1.3 1.3 0 01.11-1.25c1.13-.91.92-2 .68-3.13a18.86 18.86 0 01-.53-4c.14-7.43-2.16-14.39-4.44-21.34a2.79 2.79 0 01.46-2.72c1.85-2.75 4-5.43 5.29-8.41 2.88-6.45 7.33-11.89 11.46-17.55a23.65 23.65 0 013-3 40.14 40.14 0 004.16-4.08 28 28 0 002.71-4.95 60.46 60.46 0 002.45-5.6c1.27-3.56 2.18-7.26 3.66-10.74 3.89-9.15 8.15-18.17 11.93-27.33 1.33-3.23 1.81-6.8 2.55-10.24.32-1.47.26-3 .5-4.5.46-2.82 1.05-5.62 1.51-8.44.43-2.62.84-5.24 1.13-7.88.33-2.35 1.2-4.86-.02-7.18zM222 219.09a12.38 12.38 0 01.43 1.47c1.39 7.72 2.85 15.44 4.07 23.21.6 3.79.69 7.66 1 11.49.28 3.42.55 6.84.76 10.26.12 2.07 0 4.15.18 6.22a69.45 69.45 0 007.94 28.12 57.8 57.8 0 016.62 23.25 78.1 78.1 0 01-.39 14.34 45.29 45.29 0 002.29 21c1.37 3.81 1.38 7.69 1.17 11.61-.11 2-.26 4-.39 6l-.7.06a44.35 44.35 0 01-.75-4.27c-.17-2.19-.53-4.25-2.4-5.74a3.29 3.29 0 00-1.09-.38 3.84 3.84 0 00-.07 1.22c.54 2 1.16 3.82.81 5.94-.52 3.16-.71 6.38-1 9.58l-.43.08-2.56-3.05-.26.23c.22 1 .44 2.05.65 3.05a8.25 8.25 0 00.06-1.66h.64l.69 1.22a3.68 3.68 0 010 3.3 8.3 8.3 0 001.1-.24 2.81 2.81 0 001.39-1.18c.78-2.12 1.39-4.3 2.44-6.53.09.79.21 1.57.28 2.36a9.4 9.4 0 00.13 1.83 1.24 1.24 0 00.94.66 1.22 1.22 0 00.86-.73c1.52-6.56 2.86-13.19 1.67-19.91-.63-3.62-2.08-7.1-2.84-10.7-.63-2.92-.78-5.92-1.14-8.89l.65-.17a8.2 8.2 0 01.68 1.05c2.6 5.56 7.21 9.52 11.76 13.54 2.13 1.9 4.59 3.6 5.39 6.49a13.45 13.45 0 01.74 4.39c-.24 3.5-.8 7-1.22 10.47 0 .32-.14.7 0 .93 1.37 2.17-.06 4.19-.35 6.26s-1 4.11-1.52 6.17a2.75 2.75 0 00.12.9h.52c-.39 1.18-.81 2.35-1.22 3.53a16.25 16.25 0 00-1.25 4.5c-.11 1.56-1.46 3.17-2.55 4.54a11.72 11.72 0 00-2.4 5.63 17.31 17.31 0 01-.8 2.33 36.55 36.55 0 01-4.65 9.31c-.88 1.33-1.38 2.93-2.39 4.16a4.83 4.83 0 01-2.77 1.49 40.71 40.71 0 01-7.06.61 22.34 22.34 0 01-5-.92 1.58 1.58 0 01-.83-1.07 91.23 91.23 0 01-1.83-9.63c-.22-2.22.68-4.55.43-6.76-.53-4.65.79-9.12.94-13.68.06-1.74 1.84-2.16 2.86-3.13 1.73-1.66 5.72-4.63 7-7.61a6.68 6.68 0 01-.77.07c-.2-.93-.41-1.9-.63-2.9-.55 4.27-4.29 6.82-7.62 10.57-.17-.67-.26-1-.33-1.33a38 38 0 00-1-4.61 6.37 6.37 0 01-.24-2.94 21.7 21.7 0 00-.44-6.28c-.57-2.68-1.74-5.25-2.27-7.94a41 41 0 01.67-18.1c2.11-8.36 4.06-16.77 5.66-25.23a33.54 33.54 0 00-3.84-23.12c-3.1-5.57-6.59-11-8.17-17.27s-3.7-12.7-3-19.32q1.13-11.13 3-22.12c1.29-7.78 2.27-15.54 1.58-23.43a7.25 7.25 0 01.05-2.6zm-9-29a54.09 54.09 0 016.72 22c.37 4.75 1 9.48 1.14 14.24.17 7.67-1.08 15.23-2.61 22.75s-2.66 14.93-2.12 22.46a62.37 62.37 0 009.41 29.38c2.64 4.15 5.09 8.45 5.8 13.43a44.21 44.21 0 01-.76 16.13c-2 9-4.35 18-6.11 27.07a31.87 31.87 0 00.88 15.27c1 3.13 1.64 6.33 2.41 9.52a1.83 1.83 0 010 1.22c-1.53 2.72-3.13 5.42-4.72 8.11-.06.1-.27.11-.73.26a17.08 17.08 0 00.41-3.62 74.61 74.61 0 00-1.42-9.52 71.24 71.24 0 00-2.82-7.57 2.35 2.35 0 010-1.34 33.28 33.28 0 00-.23-17.71c-1.48-5.61-4.32-10.64-6.59-15.91a79.41 79.41 0 01-6.34-22.26c-.66-5.73-1.7-11.51-1.42-17.22.42-8.35 1.74-16.66 2.93-24.95.95-6.43 2.21-12.82 3.39-19.22 1.07-5.83 2.4-11.62 3.28-17.48a66.41 66.41 0 00.23-17.42c-.42-3.62-.53-7.27-.92-10.89-1.06-9.87-5.42-18.33-12.37-25.56a29.78 29.78 0 00-11.89-7.66 19.63 19.63 0 00-11.8-.18 12.18 12.18 0 00-5 2.53 1.62 1.62 0 00-.1.18 12.55 12.55 0 01-1.15 1.26 9.19 9.19 0 00-.74 2.12c-.2.52-.44 1-.78 1.83a24.4 24.4 0 01-1.92-2c-2.23-3.05-5.51-2.92-8.77-2.59-4.89.52-8.47 3.47-11.94 6.49a43.06 43.06 0 00-4.52 4.64c-4 4.62-5.67 10.19-6.72 16-.56 3.1-.93 6.23-1.42 9.56-.31-.37-.73-.62-.83-1-.58-2.21-1.42-4.43-1.49-6.65 0-1.66.94-3.35 1.52-5 1.18-3.49 2.35-7 3.66-10.46 1.61-4.27 4.49-7.78 7.46-11.25a31.38 31.38 0 017.33-6.11 14.87 14.87 0 019.16-2.07 57.22 57.22 0 018.68 1.88 2 2 0 01.42.19 2.29 2.29 0 01.8 3.14c-.13.22 0 .59.1 1.33a8.29 8.29 0 011.25-1.44c.89-1.47 1.68-4 2.66-5.32a6.63 6.63 0 014.83-2.52c7.4-.93 13.55 1.73 19.54 5.59 6.43 4.11 10.67 9.94 14.16 16.33zM198.84 251a6.39 6.39 0 01-.93 1.93c-2.15 2.89-4.26 5.74-6.42 8.6-1.94 2.56-3.75 5.23-5.91 7.61s-4.83 4.7-7.33 7a2 2 0 01-1.33.4c-2.77-.06-5.52-.11-8.26-.33a5.79 5.79 0 01-2.68-1.05c-2.59-1.78-5.11-3.66-7.63-5.55q-4.23-3.14-8.37-6.38a12.59 12.59 0 01-2.37-2.3c-3.29-4.45-6.58-8.84-7.23-14.58-.43-3.73-1.58-7.39-2.26-11.1-.54-3-.92-5.94-1.29-8.92-.4-3.15-.67-6.31-1-9.47a43.35 43.35 0 012-17.24 27.13 27.13 0 013.88-8.34c1.62-2.2 3.51-4.2 5.29-6.27.09-.09 2.87-1.78 3-1.84 2.1-1.07.77-.36 2.1-1.07 3.28-2.71 6.7-3.05 10.88-3a3.83 3.83 0 012.3.94c3.09 2.91 4.59 2.39 7.48.47a9.93 9.93 0 017.89-1.26c6.47 1.26 10.07 5.69 13.27 10.78 3.45 5.5 4.48 11.56 5.14 17.71.74 6.93 1.15 13.88 1.71 20.82l-.33 8.66a38.31 38.31 0 01-1.6 13.78zm-10.11-94c.29.14.4.64.56 1.18h.26l-.09.44c1.24-.73 2.13.46 3.19 1.42 5.5 5 9.76 10.89 13.71 17a18.38 18.38 0 01.86 1.65c-3.08-2.34-6-4.7-9.12-6.88a26.09 26.09 0 00-11.88-4.77c-3.46-.41-7.16-.77-10.49 1.06a1.8 1.8 0 01-.61.08c-.39-2 1-4.61 3.53-5.8s5.18-2 7.79-3c.54-.21 2.47-.57 3-.75a4.28 4.28 0 01-.17-.46 14.22 14.22 0 00-2.44-.07 22.73 22.73 0 00-8.64 3.38.77.77 0 01-.3.06c-.22-1.32.86-3.47 2.32-4.59a1.27 1.27 0 01.27-.18c1-.61 2.06-1.81 2.95-1.69a20.06 20.06 0 015.3 1.92zm-22.64-1.74a26.76 26.76 0 009.16-1.64c2-.8 3.95.12 6.11 1.09a9.66 9.66 0 00-4.94 6.17c-6.18-3.14-12.56-4.35-19.4-2.47a15.08 15.08 0 019.07-3.15zm-32.35 23c.32-1 .92-1.92 1.15-2.92a12.55 12.55 0 014.53-6.71 13.13 13.13 0 013-1.49c3.59-1.66 7.25-3.22 10.21-5.93 2.06-1.9 4.9-1.88 7.56-2.36 4.27-.76 8.28.09 12.28 1.26a7.64 7.64 0 012.66 1.44 2 2 0 01.51 1.78 20.2 20.2 0 01-1.52 3.14c-4.69-2.72-9.6-3.13-14.58-2.78a27.17 27.17 0 00-7 1.26 17 17 0 00-4.85 3c-3.27 2.62-6.48 5.31-9.57 8.12-1.77 1.61-3.25 3.52-5.16 5.31.27-1.09.46-2.18.78-3.17zm-2.51 23.72l-.54-.09c.11-1.28.16-2.58.36-3.88.46-3.4.89-6.81 1.5-10.18a16.15 16.15 0 014.3-8.75c2.2-2.16 4.36-4.36 6.69-6.38 2-1.69 4.19-3.12 6.23-4.74 4.12-3.28 9.09-3 14-3.2a20.69 20.69 0 018.18 1.65c1.59.6 2 2.23 1 3.83-.46.79-1 1.49-1.33 2-3.22-.77-6.35-1.68-9.54-2.23a16.29 16.29 0 00-12.31 2.51 38.21 38.21 0 00-14.38 17.35c-1.51 3.55-2.45 7.25-3.67 10.88a11.89 11.89 0 01-.49 1.18zm.26 17.48a10.39 10.39 0 01.1-4.12c.17-1 .91-1.18 1.52-.21a8.13 8.13 0 011.08 2.31c.5 2.15.95 4.33 1.26 6.52.24 1.72.26 3.47.37 5.21l-.55.32a5.57 5.57 0 01-.89-1.32c-1.02-2.94-2.11-5.81-2.89-8.76zm3.09 25.77a37.27 37.27 0 01-.65-14c0-.23.19-.46.68-.79a9.28 9.28 0 01.68 1.7c.75 4 1.49 8 2.16 12 .31 1.94.21 4 .74 5.86a76.73 76.73 0 003.46 10c1.27 2.91.9 5.92 1.35 8.86a.79.79 0 01-.36.65c-1.13.56-2.28 1.09-3.94 1.87a36.56 36.56 0 000-3.67c-.32-2.83-.59-5.65-1.13-8.44-.9-4.75-2.06-9.48-2.99-14.09zm14.65 19.76c.94.85 1.68 1.61 2.51 2.22 4.41 3.33 8.64 7 13.35 9.84 3 1.81 6.4 3 10.45 2a17.57 17.57 0 008.72-5c1.11-1.11 2.19-2.24 3.29-3.36l.51.19a25 25 0 01.51 3.23c.07 2.68 0 5.37.07 8 .07 1.8.55 3.54.68 5.38.36 5.23.47 10.48 1 15.7.21 1.94.07 2.91-2.15 3.16-3.13.35-6.22 1.05-9.36 1.31a76.32 76.32 0 01-9.2.14 44.82 44.82 0 01-14.57-3.39c-6.25-2.45-11.22-6.4-16-11s-8.55-9.9-12.26-15.27c-.22-.33-.38-.71-.71-1.32 9.13-1.7 18.22-2.99 23.16-11.88zm95.25 226.21c.86 4.66.17 9.24-.41 13.82a3.38 3.38 0 01-1.7 2.09c-2.86 1.5-5.73 2.93-9.16 3-1.85 0-3.72.94-5.55.94-3.49 0-6.8 1.14-10.41.73-3.82-.44-7.77.14-11.66.28-.54 0-1.08.16-1.62.16-5.89.22-11.8.4-17.71.65-3.33.14-6.71.63-10 .48a85.44 85.44 0 01-11.14-.88c-7.07-1.27-14.26-1.93-21.37-3.05a76.69 76.69 0 01-9.59-2.36c-4.8-1.41-9.58-2.88-14.29-4.52-4.48-1.55-8.88-3.34-13.3-5-4.63-1.77-5.79-5.54-6-9.77s-.34-8.51-.34-12.78A18.69 18.69 0 01101 471c.82-3.54 1.65-7.09 2.45-10.65.22-1 .33-2 .56-3.38a14.18 14.18 0 011.32 1.14 39 39 0 002.7 3.05 5.14 5.14 0 002 .69c1.66.48 3.33 1 5 1.39a3.32 3.32 0 001.29-.2c-.28-.27-.5-.74-.84-.88-3.06-1.26-6.17-2.51-8.55-4.89a8.54 8.54 0 01-1.16-1.64c-.46-.73-.85-1.52-1.46-2.57a57 57 0 01-.58-6.07 44.5 44.5 0 01.54-7.1c.84-5.43 3.38-10.57 3-16.21a25.81 25.81 0 01-.3-2.63 10.78 10.78 0 01.47-3.91c1.69-3.76 3.6-7.46 5.47-11.12 1.53-3 3.43-5.93 4.65-9.06 2.45-6.07 4.49-12.27 6.72-18.41.45-1.23.89-2.45 1.37-3.67.94-2.37.3-4.14-2-5.4-1.93-1-2-1.52-.52-3a16.47 16.47 0 012.94-2.18 32.29 32.29 0 014.17-2.06 2 2 0 011.63.19c1.7 1.45 3.32 3 4.91 4.54a3 3 0 01.73 1.36c.84 3.22 3.72 4.28 6.33 5.6a8.92 8.92 0 003.23.95 65 65 0 0010.24.42c3.18-.26 6.08-1.23 8.27-4.18 1.58-2.18 3.18-4.19 3.79-6.72a90.77 90.77 0 002.11-10.06c.67-5 .92-10.15 1.48-15.2a41.2 41.2 0 00-1.38-16.38 9 9 0 01-.28-2.78c.06-1.84-.64-3-2.57-3.34a70.56 70.56 0 00-9.51-1c-4.37-.09-8.76.09-13.12.39a82.88 82.88 0 00-9.81 1.33c-3.29.64-4.54 2.39-4.84 6.37-.09 1.23-.24 1.57-1.46.76a5.11 5.11 0 00-1.8-.52c-.27-2.32-.29-3.06-1-4.16-.6-1-.93-1.48-2.23-.93a29 29 0 00-3.27 1.76c-.35.12-3.4 1.71-3.66 1.9-2 1.41-2.89 1.35-5 3.29-.65.61-1.52.6-1.79 1.36-.67 1.92-3.53 2.61-5.16 3.43-3.75 1.9-8.2 7.13-5.35 12.46a5.75 5.75 0 01.22 5.39 1.4 1.4 0 00-.18.61c.23 4.64-3.6 6.27-6.81 8.25-2 1.24-3.91 2.34-4.15 4.94 0 .55-.93 1-1.17 1.56-1.11 2.55-3.81 3.65-5.5 5.65-.66.76-1.17 2-2.64 2a2.19 2.19 0 00-.19 1.38c.32.75-.06.92-.53 1.44a5.5 5.5 0 00-1.46 3.12c-.13 3.24-2.36 5.24-4.28 7.46-.24.28-.62.5-.74.82a4.18 4.18 0 00-.11 1.22c.4-.12.91-.12 1.18-.37 1.14-1 2.1-2.22 3.32-3.16a5.06 5.06 0 001.84-4.45 12.93 12.93 0 01.56-2.82l.61.05a31.59 31.59 0 000 3.89c.06.5.68.93 1 1.39a5.84 5.84 0 00.43-1.55c0-1.71-.13-3.42-.13-5.14a2.68 2.68 0 01.55-1.58c1.32-1.63 2.72-3.19 4.09-4.77l.53.08c.13 1.13.22 2.27.39 3.4a29.41 29.41 0 00.69 3.46c.09.29.71.44 1.08.65.2-.33.59-.68.56-1-.21-1.89-.46-3.78-.82-5.64a4.16 4.16 0 011-4.15 29.85 29.85 0 00.85 3.86c.23.66 1 1.16 1.45 1.73a8.65 8.65 0 00.07-2q-.44-2.52-1.07-5a3.88 3.88 0 012.67-4.61c3-.71 4.85-2.72 6.62-4.88.45-.53.88-1.11 1.39-1.75a42.07 42.07 0 002.95 5.64 17.27 17.27 0 003.79 3.89c2.32 1.82 4.94 3.29 7.25 5.13a7.48 7.48 0 004.31 1.91c1.22.08 1.43.61 1.1 1.68-1 3.32-2 6.7-3 10A25.71 25.71 0 01114 390c-.72.89-1.06 2.06-1.73 3-.84 1.17-2 2.16-2.74 3.38a49 49 0 00-2.3 4.72c-1.57 3.31-3 6.74-5.75 9.34a21.14 21.14 0 01-4.79 3.32 16.46 16.46 0 00-6.78 6.06 15 15 0 01-2.24 2.84c-2.14 2.06-5.07 1.67-7-.61-1.16-1.39-2.73-2.48-4-3.78A8.64 8.64 0 0175 416c-1.88-3.89-4.06-7.75-5.39-11.83a29.77 29.77 0 01-.91-9.24 89.62 89.62 0 011.08-9.16c.74-5.89 1.55-11.77 2.16-17.67.92-8.8 1.53-17.64 2.75-26.4.85-6.15 2.46-12.26 3.76-18.37.39-1.83.83-3.66 1.29-5.49 1.22-4.62 2.32-9.27 3.67-13.85 1.1-3.74 2.48-7.41 3.7-11.14 1-3.14 3.84-4.76 6.32-6.41a70.43 70.43 0 0111.19-5.93c2.66-1.17 5.69-1.55 8.49-2.44 2.26-.73 4.43-1.72 6.64-2.6.74-.3 1.47-.62 2-.85 2.41 3.67 4.65 7.27 7.1 10.74a74.61 74.61 0 0014.5 14.89c5.7 4.56 12.27 7.21 19.32 8.86a43.32 43.32 0 0014.54.67c1.17-.12 2.39.21 3.53 0 3.19-.5 6.34-1.11 9.7-1.72-.08 1.55-.16 3.18-.27 4.81-.28 4.1-1 8.22-.78 12.28.5 7.49 1 15.06 4.1 22.14a32.4 32.4 0 006.75 9.67c4.46 4.51 12.07 9.26 15.12 14.87-.13-.32-.26-.62-.38-1-.08 0-.11-.05-.07-.07l.07.07h.11a5.31 5.31 0 001.92-.93c-2.47-4.71-9-8.55-12.45-12.38a37 37 0 01-8.49-15.26 42.61 42.61 0 01-1.62-14.16q.36-4.91.61-9.81a5.35 5.35 0 00-.17-1.83c-1.05-3.66.28-7.25.34-10.87.11-7.19.28-14.37.43-21.56 0-1.25.08-2.52.08-3.74 0-.46.08-1-.17-1.36-1.2-1.54-.47-3.14-.41-4.77a37.1 37.1 0 013.2-12.82 5.91 5.91 0 01.34-.88 17.81 17.81 0 002.23-7.06c1.05-7.81 2.48-15.58 3.31-23.41.56-5.35 1.06-10.87.35-16.15-.91-6.66-3-13.17-4.72-19.72-.65-2.54-2.68-4.36-4.14-6.46-.53-.79-1.18-1.49-1.75-2.24a22.71 22.71 0 00-12.73-8.17c-3.63-.95-7.1-.63-10.08 1.88a4 4 0 01-.82.17c2.07-2.69 4.37-4.47 7.52-5.08a34.43 34.43 0 015.16-.61 13.81 13.81 0 017.54 2 61.65 61.65 0 017.31 5.1c4.63 3.63 7.66 8.44 10.2 13.54 2.71 5.42 3.61 11.28 4.06 17.22.22 2.9.42 5.81.67 8.72.68 7.79-.27 15.47-1.76 23.11-1.54 8-3.09 15.93-4.7 23.86a179.68 179.68 0 00-3.8 31.26 89.74 89.74 0 001.22 14.12 86 86 0 008.23 27.68 74.34 74.34 0 015.24 13.4 32.43 32.43 0 01.09 16.17 1.18 1.18 0 01-.23.18 9.09 9.09 0 01.48 1.06 3 3 0 00.2.29c.07 0 .1.06.06.09l-.06-.09c-.37-.15-2-.29-2.6-.42H215c.69.56 4.15 2.07 2.91 3.23l-2.36-1.87c-.06-.13-.15-.26-.22-.4 1.53 3.78 4 6.3 4.75 10.36.83 4.4.47 9 .61 13.51l.41.27a33.63 33.63 0 003.79-3.86 31.77 31.77 0 002.41-4.81c.43 1.78 1.7 3.48.37 5.66s-1.41 4.69-1.41 7.21c0 4.34-.11 8.69-.42 13a13.77 13.77 0 01-1.52 4.24c-2.74 6.1-5.54 12.14-8.3 18.25a21.34 21.34 0 00-1.31 3.35c-.12.41.38 1 .61 1.47.51-.26 1.25-.39 1.47-.79 1.51-2.68 3-5.43 4.32-8.17s2.27-5.61 3.49-8.39a23.11 23.11 0 011.44-2.45c.76 2.26 2 4.27 1.91 6.24 0 1.59.51 3.17.11 4.71a11.86 11.86 0 01-1.52 3.83c-1.39 2-3.12 3.82-4.66 5.75-2.33 2.92-4.36 6.1-7 8.74a75.72 75.72 0 01-8.48 6.76 12.79 12.79 0 00-3.85 4.48c-.59 1.16-.82 2.33.13 3.34s1.9.38 2.92-.1c3.39-1.56 6.9-2.93 10.22-4.62a54 54 0 005.54-3.71c1.65-1.1 3.33-2.15 5-3.22l.48.49a11.75 11.75 0 01-1.41 1.87 107.26 107.26 0 01-8.74 7.63 70.21 70.21 0 01-9.41 5.49c-1.61.83-3.57 4.36-2.22 6.29a2.09 2.09 0 001.58.84c2.76-.4 5.52-.71 8-2.14 2.27-1.28 4.87-2 7.16-3.31a35.25 35.25 0 004.23-3.34 8.71 8.71 0 011-.58c-.07.52 0 .89-.17 1.06a36.55 36.55 0 01-4.64 4.51c-2.4 1.72-5.15 3-7.59 4.66a4.94 4.94 0 00-2.06 2.93 4.34 4.34 0 001.34 3.11c.41.42 1.89.26 2.65-.1a99.27 99.27 0 0010.7-5.32c2.28-1.41 4.06-3.55 6.07-5.39.49-.44 1-.86 1.79-1.54a6.74 6.74 0 01-.09 1.11c-1.14 2.86-2.25 5.69-5 7.75-2.06 1.53-4.35 3.11-4.88 6a3.83 3.83 0 001.92 4.48c1.94-1.27 3.94-2.49 5.84-3.84 2.13-1.5 4.21-3.06 6.23-4.7a10.35 10.35 0 001.54-2.12c.26-.37.51-.75 1-1.42a61 61 0 011.79 6c.46 2.6.53 5.27 1.01 7.87zM102.91 342.37c-1.73-3.39-1.14-5.87 1.73-8.76 3.28-3.32 7.4-4.67 12-4.88a3.05 3.05 0 00.8-.05c2.77-1 5.49-.1 8.21.2h.14a2.11 2.11 0 011.47 2.59 27.1 27.1 0 01-1.22 3.31c-.53-1.47-1-2.86-1.55-4.26l-.51.16a6.45 6.45 0 00.13 1 32.76 32.76 0 011.3 4.77 2.54 2.54 0 01-1.45 1.91 27.59 27.59 0 01-4.13.69c-2.53.46-5.1.89-7.55 1.57-.42.11-.52 1.32-.78 2l.55.32a14.23 14.23 0 001.5-.66 15.82 15.82 0 017.38-2.35 21.91 21.91 0 005-1.15c2.1-.6 3.34 0 4 2a2.49 2.49 0 01.11.29c.66 2.59.67 2.61-2 3.39-1.65.48-3.38.71-5 1.32-2 .76-4 1.71-6 2.66-.24.12-.23.71-.33 1.09.42.09.94.36 1.26.22a32.36 32.36 0 004.33-2.16c2-1.29 4.25-1.37 6.51-1.29a3.59 3.59 0 013.21 3.23 2.09 2.09 0 01-.83 1.53c-2 1.28-4.09 2.5-6.15 3.72-1.15.68-2.33 1.33-3.85 2.2 2.35.84 3.91.33 5.8-.22 2.4-.71 2.15-2.62 3.14-3.92 3.61.12 4.32 1.5 3.3 4.8s-3.91 3.83-6.31 5.1c-2.06 1.1-4.14 2.06-5.46 4-1 1.42-2.12.53-3 0-1.61-.94-3-2.18-4.55-3.26a34.74 34.74 0 00-3.66-2.44 13.16 13.16 0 01-5.13-5.44 20.19 20.19 0 01-1.72-3.49c-.56-1.66-1.61-3.27-.56-5.16a4.67 4.67 0 00-.13-4.58zM129.18 331a17.84 17.84 0 00-.78-2 3.19 3.19 0 012.57 3.11c.37 2.91.43 5.85.61 8.79 0 .07-.12.15-.37.48-.53-2.65-2.28-4.77-1.54-7.55.23-.83-.25-1.83-.49-2.83zm9.09-8a34.46 34.46 0 007.48 1.22 114.69 114.69 0 0013-.51c3.75-.38 7.45-1.22 11.33-1.83.13 1.62.31 3.25.39 4.89.14 2.44.26 4.88.3 7.32 0 2.12-.06 4.26-.06 6.39a92.91 92.91 0 01-2.28 20.15c-1.17 5.07-4 8.74-9.16 10.38a17 17 0 01-5.74.82c-3.56-.15-7.09-.7-10.63-1.06a17 17 0 00-2 .09c-.62-2.4-1.26-4.88-1.94-7.39-1.27-4.79-2.65-9.54-3.71-14.37-1.14-5.13-2.32-10.27-2.08-15.59.16-3.73.18-7.47.29-11.21a5.54 5.54 0 01.3-1.13 31.35 31.35 0 004.51 1.88zm-4-3.53a21.4 21.4 0 013.85-1l20.7-1.1c2.84-.05 5.72.78 8.55 1.39.66.14 1.17 1 2.08 1.75-3.57.52-6.58.78-9.51 1.39-5.25 1.1-10.58 1.1-15.94 1.1-3.54.05-6.62-1.58-9.71-3zm1.16 41.53c-1.85-1.26-1.94-1.76-.72-3.52.29 1.22.47 2.27.72 3.52zm71.63 99.78a1.83 1.83 0 01-.38 1.6 5.13 5.13 0 01-1.63.95 8.89 8.89 0 01-.86.32c-.89-1.72-.44-3 1.33-3.4a1.78 1.78 0 011.54.52zm3.09 10.58c-.18 1.27-2.75 3.21-3.39 2.74a1.77 1.77 0 01-.33-1.74 4 4 0 011.89-1.64c.45-.18 1.22.39 1.83.63zm7.92 7.9l-2.45 2.15c-.39-.19-.73-.28-.7-.36a3.94 3.94 0 01.06-1.94c.28-.56 1.08-1.28 1.55-1.22s1.02.87 1.54 1.36zm10.5 4.41a2.36 2.36 0 01.66 2.21 9.82 9.82 0 01-2.13 2.37 1.73 1.73 0 01-.51-2.6c.19-.36.53-.66.68-1 .26-.65.45-1.65 1.3-.99zm31.89-41.22c-.64 1.21-1.24 2.26-.78 3.8.19.67-.93 1.77-1.59 2.58a85.28 85.28 0 00-9.35 14c-2 3.73-4.47 7.18-6.74 10.75a29.5 29.5 0 00-2.27 3.57c-.88 1.95-2.59 3.05-4.18 4.27-1.11.89-2.12 1.9-3.15 2.88-.52.49-1 1-1.46 1.5-.63-1.33-1.19-2.5-1.76-3.66h-.61c.72-.72 1.45-1.44 2.16-2.18a52.62 52.62 0 004.21-4.5c.78-1 1-2.42 1.59-3.57 1.5-2.82 3.12-5.58 4.61-8.4a1.47 1.47 0 00-.11-1.42c-.63-.52-1.15-.29-1.66.47A55.27 55.27 0 01225 476.92c-1.65 1.14-3.48 2-5.07 2.93a24.52 24.52 0 01-1.68-2.6 1.32 1.32 0 01.24-1.28c4.83-2.91 8.69-6.87 12.36-10.94a51.58 51.58 0 004.17-5.92 6 6 0 00.5-1.36l-.31-.36c-.67.21-1.52.24-2 .66-3.14 2.85-6.12 5.86-9.32 8.64a29.51 29.51 0 01-5.43 3.62c-2.12 1.14-4.41 2-6.63 3a8.65 8.65 0 01-1.22.29 5.2 5.2 0 01.2-1.18 1.84 1.84 0 00-1-2.72c-1-.5-.71-1.06.15-1.45 5-2.21 9-5.78 13.08-9.16 2.28-1.85 4.65-3.57 5.87-6.28a3.5 3.5 0 00.26-1.46c0-1.14-.7-1.35-1.64-.82a52.59 52.59 0 00-4.65 2.85 76.41 76.41 0 01-11.74 7.38c-.71.35-1.38.8-1.8 1a32.45 32.45 0 01-2.2-2.76 1.32 1.32 0 01.12-1.29c2.61-2 5.22-4.06 7.94-5.9 1.52-1 3-1.91 3.64-3.78a10 10 0 011.88-2.9c2.52-3.18 5.23-6.23 7.59-9.52.93-1.29 1.14-3.07 1.63-4.64a14.7 14.7 0 00.3-2 4.52 4.52 0 011 .17c3.28 1.87 6.75 1.34 10.22.73 1.83-.29 3.67-.7 5.5-.9a2.85 2.85 0 011.78.53c2.66 1.79 5.42 3.51 7.87 5.54 1.88 1.55 3.85 3.28 3.9 6a3 3 0 01-.05 1.4zm32-83.12c-.49 3.66-.81 7.33-1.3 11-.58 4.44-1.13 8.87-1.94 13.27a42.89 42.89 0 01-4.89 12.83c-3.88 7-7.88 14-11.21 21.28-1.93 4.22-2.66 9-3.91 13.47-.76 2.72-1.32 5.54-2.3 8.21a9.43 9.43 0 01-2.64 3.13 14.73 14.73 0 00-6.3-9.58c-3.13-2.19-6-5-10.46-5.74 2.34-4.12 3.44-8.9 8.16-11.89l-1.72-.84c.47-2.52 2.33-4 4.52-5.07.78-.43 1.4-.83.78-1.65s-1.31-.34-1.92.2a2.3 2.3 0 01-1.5.56 5 5 0 01.39-1.17c1-1.52 1.9-3.12 3-4.58a17 17 0 012.41-2.15c.24-.2.63-.36.71-.61a21.48 21.48 0 00.58-2.23c-.55.35-1.1.7-1.66 1-.22.13-.47.22-1 .46 1-2.63 1.74-5 2.81-7.23.31-.65 1.45-1 2.26-1.37s1.72-.8 1.11-1.84-1.55-.67-2.39-.15c-.3.19-.61.36-.95.55-.14-.24-.28-.38-.28-.49.73-3.37.74-7 3.45-9.71a5.45 5.45 0 00.77-1.68l-2 .42h-.32c.21-2 .36-4 .65-6 .56-3.87.72-7.77-1.46-11.2a35 35 0 00-5-5.49c-3.31-3.35-6.8-6.57-10-10a25.07 25.07 0 01-4.1-5.71c-.53-1.06-.05-2.62.08-4 1-9.31 1.1-18.58-2.57-27.48-2-4.94-4.3-9.77-6.42-14.65-.53-1.23-.91-2.5-1.52-4.1 2.48 1.2 4.58 2.22 6.68 3.2a43.08 43.08 0 014.1 1.84 77 77 0 018.55 5.57 87.83 87.83 0 019.94 9.05c2.8 3.05 4.9 6.71 7.51 9.95 4.44 5.55 7.32 11.87 10.33 18.21 2.59 5.5 5.33 11 9.25 15.7a7.76 7.76 0 011.76 6.7z"/><path d="M218 374.13c1.24-1.16-2.22-2.67-2.91-3.23.12.34.25.64.38 1 .07.14.16.27.22.4zM217.53 371a9.09 9.09 0 00-.48-1.06 5.31 5.31 0 01-1.92.93c.57.13 2.23.27 2.6.42a3 3 0 01-.2-.29zM189.55 158.2h-.26a4.28 4.28 0 00.17.46zM170.46 177.41a12.55 12.55 0 001.15-1.26 1.62 1.62 0 01.1-.18 8.29 8.29 0 00-1.25 1.44zM215 370.87l-.07-.07s.01.05.07.07zM160.94 597.65h-2.66 2.66zM182.05 589.37c-.9-3-2.13-5.88-3.05-8.86a96.11 96.11 0 01-3.78-23.82c-.14-2.84-.61-5.67-.91-8.51a1.74 1.74 0 00-.05-.39 1.41 1.41 0 00-1.74-1c-1.93.48-3.29-.36-4.8-1.66a14 14 0 00-1.29 2.8c-.62 3.15-1.19 6.32-1.61 9.51-.45 3.39-.71 6.82-1.06 10.22-.19 1.87-.4 3.75-.57 5.59-.29 3.2-.5 6.38-1.87 9.43a24 24 0 00-1.67 5.69c-.52 3.07-1 6.16-1.37 9.25h2.66c.78-4.28 1.54-8.56 2.36-12.83.3-1.52 1-3 1.29-4.5q1.11-6.75 2-13.55c.4-3.25.6-6.51.84-9.77.17-2.32.22-4.63.39-6.94.08-1 .32-2 .44-2.79l4.74 1.37V556a71.93 71.93 0 002.59 19.9c2 7.29 4.31 14.54 6.54 21.79h2.35c-.8-2.81-1.58-5.57-2.43-8.32z"/><path class="cls-22" d="M125 320.51c1.06-.61 1.13-.09 1.34.73a4.5 4.5 0 01.32 2.35 6.54 6.54 0 00-4.85 2.5 2.69 2.69 0 01-1.64.69c-1.87.25-3.77.33-5.63.61a7.84 7.84 0 00-1.72.41l-.06-.08a17.41 17.41 0 011.94-1.37c1.48-1.22 2.21-1.06 3.73-2.23"/><path d="M152.14 248.67a28.75 28.75 0 004.08 1.55 14.8 14.8 0 003.25-.06 28.34 28.34 0 018.91 1.22c1.29.4 3-.4 4.44-.49a48.25 48.25 0 017.41-.2 8.86 8.86 0 004.73-1.12 2 2 0 011.22-.12c-.15.47-.23 1.33-.47 1.37-2.9.49-3.81 2.77-4.74 4.88-1.5 3.41-3.67 6-7.46 7.33-3.31 1.14-10.46.12-12.68-2.44-1.54-1.77-2.51-4-3.82-5.95a47.11 47.11 0 00-3-4c-.25-.29-.93-.21-1.32-.45a6.55 6.55 0 01-1-1zm5.72 4.64c1.56 3.15 2.54 6.84 6.59 8.06s8.44 1.36 12.21-1.23c2.26-1.54 4.59-6.36 4.06-8.08-7.15 9.71-14.83 7.5-22.83 1.25zm3.3-.61l-.42.54c.16 1.49 1.42 2.1 2.7 2.52 1.1.37 2.32.41 3.47.67a14.56 14.56 0 008.55-.41c1.07-.42 1.78-1.65 2.66-2.52l-.42-.53c-2.1.56-4.19 1.16-6.31 1.67-1.11.26-2.37.74-3.37.48-2.32-.59-4.55-1.58-6.83-2.41zm-.81-1.26v.4a4.37 4.37 0 00.57.21c2.41.51 4.89.69 7.07 2.06.37.24 1.13 0 1.68-.1 2.05-.44 4.09-.94 6.14-1.38 1-.22 2.1-.35 3.14-.52l-.11-.74c-2.32.25-4.65.4-7 .76-1.83.28-3.5.61-5.33-.17a9.15 9.15 0 00-6.18-.52zM144.48 218.13c.18-.64.33-1.14.47-1.64l2.44.65c.57-3.47 2.2.32 3.34-.38v-1.49l.46-.35 1.75 2.45.9-1.65c.39.67.57 1.33 1 1.64s1-.05 1.45-.09c.95.78 1.95 1.63 3 2.44 1.31 1.07 1.49 2.72 0 3.53a13 13 0 01-5 1.59 12.53 12.53 0 01-7.53-2 3.78 3.78 0 00-2.31-.11c-.42-.38-1.73-.61-.91-1.83.09-.13-.48-.61-.65-1-.33-.68-.58-1.38-1-2.45zm6.87 1c-.88 1.36-.61 2.82 1 3.29a5.47 5.47 0 003.18-.14 2.08 2.08 0 00.76-1.95c-.21-.53-1.23-.89-1.9-1.22-.13-.06-.46.26-.69.41l1.36.64a4.43 4.43 0 01.51.45l-1.76 1.55zm-1.92.34c-.25 0-.37 0-.45.07l-2.39 1.5c.79.55 1.58 1.1 2.38 1.63.49.33 1 .62 1.69 1.06-.49-1.68-.86-2.96-1.23-4.23zm8.66 1.1h-.49l-.81 2.78.28.26a6.34 6.34 0 001.87-1.41c.17-.2-.54-1.03-.85-1.6zM186.23 216.59c.1.61.19 1.11.37 2.16l2.81-3.05.89 2.14 1-1.57.61.24c-.08.77-.17 1.54-.27 2.45l4.6.36c-.19.64-.36 1.22-.61 2.09l-1.46-1.25c-.92.46-1.93.91-.86 2.23a60.62 60.62 0 01-7.43 3c-1.48.39-3.25-.12-4.89-.31a7.86 7.86 0 01-2.18-.56c-2-.87-2.25-1.59-1.31-3.49a14.58 14.58 0 00.69-2c1.9.51 3.23-.06 4.36-1.84 1.45 1.32 1.5 1.31 3.68-.6zm-.71 5.61c-2.21.68-2.62-.69-2.66-2.32-1.39 0-1.41.83-1.34 1.6a1.87 1.87 0 002 1.83c1 .06 1.88.16 2-1.11.43-.25 1.06-.42 1.22-.78s.16-1.42 0-1.5a7.64 7.64 0 00-2.18-.24l-.23.36c.54.66 2.74.63 1.25 2.16zm-3.94 2c-.48-1.19-.88-2.2-1.45-3.66l-2.19 2.27zm6.59-3.95v3.2l2.67-2z"/><path d="M136.49 215c7.88-6.45 16.17-5.15 24.69-.93v2.53c-4.05-1.42-8-2.93-12.1-4.16a7.87 7.87 0 00-4 .2c-2.29.58-4.49 1.45-6.75 2.15a9.43 9.43 0 01-1.84.21zM198.24 213.5a5.47 5.47 0 01-1.77-.29c-3-2.06-5.74-.72-8.6.35-3.37 1.22-6.81 2.29-10.24 3.37-1.91.61-1.27-1.06-1.55-1.83s.08-1.08 1-1.23c1.83-.31 3.66-1 5.49-1.41 2.71-.69 5.4-1.49 8.14-2s4.79 1 7 2c.19.15.23.48.53 1.04zM175.39 242c-.06.32 0 .73-.19.94-1 1.06-2 2-3 3.08-2 2.1-4.47 2-6.55 0-1.3-1.27-2.92-2.26-4.23-3.54-.66-.61-1.46-1.76-1.27-2.4.37-1.22.58-2.9 2.89-3.2a22.17 22.17 0 01-1 2.08c-.61 1-1.83 1.76.3 2.78 1.52.73 2.63 2.35 3.81 3.67.86 1 1.57 1.1 3 .94 2.16-.26 2.81-1.62 3.82-2.91a13.65 13.65 0 011.93-1.71zM189.27 251.72a3.55 3.55 0 00.2-1.41 8.44 8.44 0 00-1.12-3.06c-1.39-1.83-3-3.42-4.57-5.11l.2-.38c.33.08.79.05 1 .24 1.48 1.46 2.91 3 4.37 4.44a3.53 3.53 0 01-.08 5.28zM164.69 227.49c.61-2.65-.14-5.05-1.22-7.39-.24-.52-.61-1-.83-1.51a6 6 0 01-.21-1.33c2.98 1.74 4.37 8.24 2.26 10.23zM150.69 251.81a4.27 4.27 0 01.52-6 7.67 7.67 0 001.39-1.67c.26-.35.45-.73.67-1.09l.61.3a8.62 8.62 0 01-1.55 2.52A4.06 4.06 0 00151 251a.9.9 0 010 .46c0 .1-.14.17-.31.35zM174.26 230.69c-1.52-1.36-1.87-5.25-.65-7.33.23 2.57.39 4.83.65 7.33zM147.64 357.74c1.29-3.42 4.16-2.37 6.51-2.25 2.16.1 3.52-1.1 3.06-3.06a1.57 1.57 0 00-.67-.77 2.77 2.77 0 01-.88-4.27 4.26 4.26 0 00.65-2c.16-1.55.23-3.11.26-4.67a4 4 0 00-.38-1.43c-.08-.23-.36-.39-.49-.61a2.31 2.31 0 01.12-3 2.57 2.57 0 011.94-.44c1.29.25 2.38 1 2.34 2.4 0 .49-.65 1-1 1.45-.48.67-1.29 1.33-1.35 2a30.06 30.06 0 00.08 5.45c.06.61.61 1.17 1 1.76.61 1.1 1.08 2.18-.15 3.24-.25.22-.26.73-.29 1.12a20.41 20.41 0 01-.14 2.34 2.27 2.27 0 01-2.55 1.93c-1.08-.07-2.13-.49-3.19-.49a5.21 5.21 0 00-2.84.67c-.36.25 0 1.48.09 2.28s.39 1.51.13 2.06-1.19 1.37-1.74 1.31a3.8 3.8 0 01-2.56-1.29c-.44-.67-.14-1.83 0-2.78a17.24 17.24 0 00.61-2.23 24.64 24.64 0 000-4.38c-.14-1.32 0-2.7-1.4-3.79a2.66 2.66 0 01-.12-2.73c1.57-2 1-4.19 1-6.26 0-1.54-.12-3.25-1.61-4.52a1.83 1.83 0 01-.23-2.58 2.5 2.5 0 01.23-.23c.55-.51 1.61-1.13 2.13-.94a4.3 4.3 0 012.2 2c.23.5-.48 1.41-.79 2.14-.23.56-.71 1.11-.7 1.66a53.15 53.15 0 00.39 5.91 7 7 0 001 2.79c.93 1.5.79 2.8-.68 3.81-.2.14-.47.39-.46.57.09 2.63.3 5.2.48 7.83zm1.84 2.66c-.8-.65-1.4-1.46-1.84-1.4a2.22 2.22 0 00-1.55 1.35c-.14 1.08.9 1.48 1.84 1.4.45 0 .81-.67 1.55-1.35zm9.16-10.73l-1.57-1.51c-.32.4-1 .85-.89 1.19a2.16 2.16 0 001.08 1.22c.16.12.73-.45 1.38-.9zm-11.19-3.84l-.94-.19a7.44 7.44 0 00-.61 2c0 .15 1 .36 1.54.54zm11.68-8.22v-.51a5.46 5.46 0 00-1.6-.61c-.26 0-.87.73-.79.87.24.42.69 1 1.12 1s.84-.48 1.28-.75zm-11.75-3.91c-.71-.42-1.11-.81-1.54-.86-.25 0-.55.55-.82.86a4.44 4.44 0 001.22.73c.23.06.58-.35 1.14-.73z"/><path class="cls-24" d="M157.89 253.31c8 6.25 15.68 8.46 22.83-1.22.54 1.72-1.79 6.54-4.05 8.08-3.76 2.57-8 2.45-12.21 1.23-4.04-1.25-4.99-4.94-6.57-8.09z"/><path class="cls-7" d="M161.19 252.71c2.28.83 4.51 1.83 6.85 2.44 1 .26 2.27-.22 3.38-.49 2.11-.51 4.21-1.1 6.3-1.67l.43.53c-.88.87-1.6 2.11-2.67 2.53a14.44 14.44 0 01-8.54.41c-1.16-.26-2.37-.31-3.48-.68-1.28-.42-2.53-1-2.69-2.51z"/><path class="cls-24" d="M160.38 251.44a9.09 9.09 0 016.2.53c1.83.75 3.52.44 5.33.16 2.3-.36 4.64-.5 7-.75l.11.74c-1 .17-2.11.29-3.14.51-2.06.44-4.09.94-6.15 1.38-.55.12-1.31.34-1.68.11-2.16-1.38-4.65-1.55-7.07-2.06a5.37 5.37 0 01-.56-.21z"/><path class="cls-25" d="M151.35 219.16l2.44 3 1.76-1.54a3 3 0 00-.5-.45l-1.37-.64c.23-.15.57-.47.69-.41.69.34 1.68.67 1.9 1.22a2 2 0 01-.76 2 5.47 5.47 0 01-3.18.14c-1.56-.48-1.86-1.96-.98-3.32zM185.51 222.2c-.11 1.27-1 1.17-2 1.11a1.87 1.87 0 01-2-1.83c-.07-.77-.05-1.62 1.34-1.6 0 1.63.45 3 2.66 2.32z"/><path class="cls-25" d="M185.52 222.2c1.49-1.53-.71-1.5-1.25-2.16l.23-.36a7.64 7.64 0 012.18.24c.21.08.25 1.06 0 1.5s-.79.53-1.22.78z"/></g></g></g></svg>